<svg width="32.000000" height="32.000000" viewBox="0 0 32 32" fill="none" xmlns="http://www.w3.org/2000/svg" xmlns:xlink="http://www.w3.org/1999/xlink">
	<desc>
			Created with Pixso.
	</desc>
	<defs/>
	<rect id="editor/spellcheck" width="32.000000" height="32.000000" fill="#FFFFFF" fill-opacity="0"/>
	<path id="Color" d="M18.6934 19.5734C19.0266 20.4133 18.4133 21.3333 17.4934 21.3333C16.96 21.3333 16.48 21 16.28 20.5067L15.0801 17.3333L7.56006 17.3333L6.38672 20.4933C6.18652 21 5.70654 21.3333 5.17334 21.3333C4.2666 21.3333 3.63989 20.4133 3.97339 19.5734L9.63989 5.15997C9.91992 4.45331 10.5867 4 11.3333 4C12.0801 4 12.7466 4.45331 13.0266 5.15997L18.6934 19.5734ZM8.57324 14.6667L11.3333 7.30664L14.0933 14.6667L8.57324 14.6667ZM18 26.24L27.8533 16.3867C28.3599 15.88 29.2134 15.88 29.72 16.4C30.24 16.92 30.24 17.76 29.72 18.28L18.9465 29.0667C18.4268 29.5867 17.5867 29.5867 17.0667 29.0667L12.1599 24.16C11.6399 23.64 11.6399 22.8 12.1599 22.28C12.6799 21.76 13.52 21.76 14.04 22.28L18 26.24Z" clip-rule="evenodd" fill="#22262A" fill-opacity="1.000000" fill-rule="evenodd"/>
</svg>
