<svg width="32.000000" height="32.000000" viewBox="0 0 32 32" fill="none" xmlns="http://www.w3.org/2000/svg" xmlns:xlink="http://www.w3.org/1999/xlink">
	<desc>
			Created with Pixso.
	</desc>
	<defs>
		<clipPath id="clip5_106">
			<rect id="WCR_Text-Frame-Add" width="32.000000" height="32.000000" fill="white" fill-opacity="0"/>
		</clipPath>
	</defs>
	<rect id="WCR_Text-Frame-Add" width="32.000000" height="32.000000" fill="#FFFFFF" fill-opacity="0"/>
	<g clip-path="url(#clip5_106)">
		<path id="Vector" d="M32 24L28 24L28 20L24 20L24 24L20 24L20 28L24 28L24 32L28 32L28 28L32 28L32 24Z" fill="#22262A" fill-opacity="1.000000" fill-rule="nonzero"/>
		<path id="Vector" d="M6 24L4 24L4 6L6 6L6 4L24 4L24 6L26 6L26 18L28 18L28 6L30 6L30 0L24 0L24 2L6 2L6 0L0 0L0 6L2 6L2 24L0 24L0 30L6 30L6 28L18 28L18 26L6 26L6 24ZM26 2L28 2L28 4L26 4L26 2ZM2 2L4 2L4 4L2 4L2 2ZM4 28L2 28L2 26L4 26L4 28Z" fill="#22262A" fill-opacity="1.000000" fill-rule="nonzero"/>
	</g>
</svg>
