<svg width="24.000000" height="24.000000" viewBox="0 0 24 24" fill="none" xmlns="http://www.w3.org/2000/svg" xmlns:xlink="http://www.w3.org/1999/xlink">
	<desc>
			Created with Pixso.
	</desc>
	<defs/>
	<path id="XMLID 121" d="M12 0C5.37 0 0 5.37 0 12C0 18.62 5.37 24 12 24C18.62 24 24 18.62 24 12C24 5.37 18.62 0 12 0ZM22.5 11.99C22.5 12.31 21.74 12.81 20.52 13.29C20.55 12.86 20.57 12.43 20.57 12C20.57 11.56 20.55 11.13 20.51 10.7C21.74 11.17 22.49 11.67 22.49 11.98C22.5 11.99 22.5 11.99 22.5 11.99ZM12.01 22.5C12.01 22.5 12 22.5 12 22.5C11.68 22.5 11.18 21.74 10.7 20.52C11.13 20.55 11.56 20.57 12 20.57C12.43 20.57 12.87 20.55 13.29 20.51C12.82 21.74 12.32 22.5 12.01 22.5ZM12 19.07C11.38 19.07 10.78 19.02 10.2 18.95C9.97 18.12 9.78 17.14 9.63 16.03C10.4 16.08 11.19 16.11 11.99 16.11C12.8 16.11 13.59 16.08 14.35 16.03C14.21 17.14 14.02 18.12 13.79 18.95C13.21 19.02 12.61 19.07 12 19.07ZM12 14.61C11.1 14.61 10.27 14.57 9.48 14.51C9.42 13.73 9.38 12.89 9.38 12C9.38 11.1 9.42 10.27 9.48 9.48C10.26 9.42 11.1 9.38 11.99 9.38C12.89 9.38 13.72 9.42 14.51 9.48C14.57 10.26 14.61 11.1 14.61 12C14.61 12.89 14.57 13.72 14.51 14.51C13.73 14.57 12.89 14.61 12 14.61ZM1.5 12.01C1.5 12 1.5 12 1.5 12C1.5 11.68 2.25 11.18 3.47 10.7C3.44 11.13 3.42 11.56 3.42 12C3.42 12.43 3.44 12.87 3.47 13.29C2.25 12.82 1.5 12.32 1.5 12.01ZM4.92 12C4.92 11.38 4.97 10.78 5.04 10.2C5.87 9.97 6.85 9.78 7.96 9.63C7.91 10.4 7.88 11.19 7.88 11.99C7.88 12.8 7.91 13.59 7.96 14.35C6.85 14.21 5.87 14.02 5.04 13.8C4.97 13.21 4.92 12.61 4.92 12ZM12 1.5C12.32 1.57 12.81 2.26 13.29 3.48C12.86 3.44 12.43 3.42 12 3.42C11.56 3.42 11.13 3.44 10.7 3.48C11.18 2.26 11.67 1.57 12 1.5ZM12 4.92C12.61 4.92 13.21 4.97 13.79 5.03C14.02 5.87 14.21 6.85 14.35 7.96C13.59 7.91 12.8 7.88 12 7.88C11.19 7.88 10.4 7.91 9.64 7.96C9.78 6.85 9.97 5.87 10.2 5.03C10.78 4.97 11.38 4.92 12 4.92ZM16.03 9.63C17.14 9.78 18.12 9.97 18.95 10.2C19.02 10.78 19.07 11.38 19.07 12C19.07 12.61 19.02 13.21 18.95 13.79C18.12 14.02 17.14 14.21 16.03 14.36C16.08 13.59 16.11 12.8 16.11 12C16.11 11.19 16.08 10.4 16.03 9.63ZM20.29 9.03C20.19 8.45 20.06 7.89 19.9 7.36C20.77 8.03 21.46 8.82 21.9 9.68C21.43 9.44 20.89 9.22 20.29 9.03ZM18.67 8.58C17.82 8.38 16.88 8.22 15.88 8.11C15.77 7.11 15.61 6.17 15.41 5.32C16.28 5.52 17.11 5.79 17.86 6.13C18.2 6.88 18.47 7.71 18.67 8.58ZM14.96 3.7C14.77 3.1 14.55 2.56 14.32 2.09C15.18 2.53 15.96 3.22 16.63 4.09C16.1 3.93 15.54 3.8 14.96 3.7ZM9.67 2.09C9.44 2.56 9.22 3.1 9.03 3.7C8.45 3.8 7.89 3.93 7.36 4.09C8.03 3.22 8.81 2.53 9.67 2.09ZM8.58 5.32C8.38 6.17 8.22 7.11 8.11 8.11C7.11 8.22 6.17 8.38 5.32 8.58C5.52 7.71 5.79 6.88 6.13 6.13C6.88 5.79 7.71 5.52 8.58 5.32ZM3.7 9.03C3.1 9.22 2.56 9.44 2.09 9.68C2.53 8.81 3.22 8.03 4.09 7.36C3.93 7.89 3.8 8.45 3.7 9.03ZM2.09 14.31C2.56 14.55 3.1 14.77 3.7 14.96C3.8 15.54 3.93 16.1 4.09 16.63C3.22 15.96 2.53 15.18 2.09 14.31ZM5.32 15.41C6.17 15.61 7.11 15.77 8.11 15.88C8.22 16.88 8.38 17.82 8.58 18.67C7.71 18.47 6.88 18.2 6.13 17.86C5.79 17.11 5.52 16.28 5.32 15.41ZM9.03 20.29C9.22 20.89 9.44 21.43 9.67 21.9C8.81 21.46 8.03 20.77 7.36 19.9C7.89 20.06 8.45 20.19 9.03 20.29ZM14.32 21.9C14.55 21.43 14.77 20.89 14.96 20.29C15.54 20.19 16.1 20.06 16.63 19.9C15.96 20.77 15.18 21.46 14.32 21.9ZM15.41 18.67C15.61 17.82 15.77 16.88 15.88 15.88C16.88 15.77 17.82 15.61 18.67 15.41C18.47 16.28 18.2 17.11 17.86 17.86C17.11 18.2 16.28 18.47 15.41 18.67ZM20.29 14.96C20.89 14.77 21.43 14.55 21.9 14.31C21.46 15.18 20.77 15.96 19.9 16.63C20.06 16.1 20.19 15.54 20.29 14.96ZM20.66 6.07C20.14 5.69 19.57 5.34 18.96 5.03C18.65 4.42 18.3 3.85 17.92 3.33C18.99 4.07 19.92 5 20.66 6.07ZM6.07 3.33C5.69 3.85 5.34 4.42 5.03 5.03C4.42 5.34 3.85 5.69 3.33 6.07C4.07 5 5 4.07 6.07 3.33ZM3.33 17.92C3.85 18.3 4.42 18.65 5.03 18.96C5.34 19.57 5.69 20.14 6.07 20.66C5 19.92 4.07 18.99 3.33 17.92ZM17.92 20.66C18.3 20.14 18.65 19.57 18.96 18.96C19.57 18.65 20.14 18.3 20.66 17.92C19.92 18.99 18.99 19.92 17.92 20.66Z" fill="#FFFFFF" fill-opacity="1.000000" fill-rule="nonzero"/>
</svg>
