<svg width="32.000000" height="32.000000" viewBox="0 0 32 32" fill="none" xmlns="http://www.w3.org/2000/svg" xmlns:xlink="http://www.w3.org/1999/xlink">
	<desc>
			Created with Pixso.
	</desc>
	<defs>
		<clipPath id="clip1_439">
			<rect id="CL_Type-User" width="32.000000" height="32.000000" fill="white" fill-opacity="0"/>
		</clipPath>
	</defs>
	<rect id="CL_Type-User" width="32.000000" height="32.000000" fill="#FFFFFF" fill-opacity="0"/>
	<g clip-path="url(#clip1_439)">
		<path id="XMLID 119" d="M16 0C7.16 0 0 7.16 0 16C0 24.83 7.16 32 16 32C24.83 32 32 24.83 32 16C32 7.16 24.83 0 16 0ZM16 28C12.24 28 8.9 26.27 6.7 23.58C7.7 20.54 9.71 18.12 12.22 16.89C10.28 15.64 9 13.47 9 11C9 7.37 11.75 4.39 15.28 4.03C15.52 4.02 15.75 4 16 4C16.24 4 16.47 4.02 16.71 4.03C20.24 4.39 23 7.37 23 11C23 13.47 21.71 15.64 19.77 16.89C22.29 18.12 24.29 20.54 25.29 23.58C23.09 26.27 19.75 28 16 28Z" fill="#F78065" fill-opacity="1.000000" fill-rule="nonzero"/>
	</g>
</svg>
