<svg width="32.000000" height="32.000000" viewBox="0 0 32 32" fill="none" xmlns="http://www.w3.org/2000/svg" xmlns:xlink="http://www.w3.org/1999/xlink">
	<desc>
			Created with Pixso.
	</desc>
	<defs>
		<clipPath id="clip5_99">
			<rect id="layout/format-list-checks 1" width="32.000000" height="32.000000" fill="white" fill-opacity="0"/>
		</clipPath>
	</defs>
	<rect id="layout/format-list-checks 1" width="32.000000" height="32.000000" fill="#FFFFFF" fill-opacity="0"/>
	<g clip-path="url(#clip5_99)">
		<path id="Color" d="M4 6.66L12 6.66L12 14.66L4 14.66L4 6.66ZM6.66 9.33L6.66 11.99L9.33 11.99L9.33 9.33L6.66 9.33ZM14.66 9.33L28 9.33L28 11.99L14.66 11.99L14.66 9.33ZM14.66 19.99L28 19.99L28 22.66L14.66 22.66L14.66 19.99ZM6.66 26.66L2 21.99L3.87 20.11L6.66 22.89L12.78 16.78L14.66 18.66L6.66 26.66Z" fill="#22262A" fill-opacity="1.000000" fill-rule="nonzero"/>
	</g>
</svg>
