<svg width="32.000000" height="32.000000" viewBox="0 0 32 32" fill="none" xmlns="http://www.w3.org/2000/svg" xmlns:xlink="http://www.w3.org/1999/xlink">
	<desc>
			Created with Pixso.
	</desc>
	<defs>
		<clipPath id="clip5_146">
			<rect id="WCR_Calendar-Today" width="32.000000" height="32.000000" fill="white" fill-opacity="0"/>
		</clipPath>
	</defs>
	<rect id="WCR_Calendar-Today" width="32.000000" height="32.000000" fill="#FFFFFF" fill-opacity="0"/>
	<g clip-path="url(#clip5_146)">
		<path id="Vector" d="M27.8 4L26 4L26 0L22 0L22 4L10 4L10 0L6 0L6 4L4.19 4C1.87 4 0 5.88 0 8.19L0 27.8C0 30.12 1.87 32 4.19 32L27.8 32C30.12 32 32 30.12 32 27.8L32 8.19C32 5.88 30.12 4 27.8 4ZM28 28L4 28L4 12L28 12L28 28Z" fill="#22262A" fill-opacity="1.000000" fill-rule="nonzero"/>
		<path id="Vector" d="M7 16L15 16L15 24L7 24L7 16Z" fill="#22262A" fill-opacity="1.000000" fill-rule="evenodd"/>
	</g>
</svg>
