<svg width="252.892578" height="180.000000" viewBox="0 0 252.893 180" fill="none" xmlns="http://www.w3.org/2000/svg" xmlns:xlink="http://www.w3.org/1999/xlink">
	<desc>
			Created with Pixso.
	</desc>
	<defs>
		<clipPath id="clip4_175">
			<rect id="undraw_Destination_re_sr74 1" width="252.892563" height="180.000000" fill="white" fill-opacity="0"/>
		</clipPath>
	</defs>
	<rect id="undraw_Destination_re_sr74 1" width="252.892563" height="180.000000" fill="#FFFFFF" fill-opacity="0"/>
	<g clip-path="url(#clip4_175)">
		<path id="Vector" d="M251.5 167.27C251.47 167.34 251.41 167.4 251.34 167.43C251.27 167.47 251.19 167.47 251.11 167.44L14.65 79.45C14.58 79.43 14.52 79.37 14.49 79.3C14.46 79.23 14.45 79.15 14.48 79.07C14.51 79 14.56 78.94 14.63 78.9C14.71 78.87 14.79 78.87 14.86 78.9L251.32 166.88C251.39 166.91 251.45 166.97 251.49 167.04C251.52 167.11 251.52 167.19 251.5 167.27Z" fill="#F2F2F2" fill-opacity="1.000000" fill-rule="nonzero"/>
		<path id="Vector" d="M125.54 0L69.19 0C64.77 0 60.53 1.76 57.41 4.88C54.28 8.01 52.52 12.25 52.52 16.67L52.52 21.76C52.4 21.73 52.28 21.72 52.17 21.75C52.05 21.77 51.94 21.82 51.84 21.89C51.75 21.97 51.67 22.06 51.62 22.17C51.57 22.28 51.54 22.39 51.54 22.51L51.54 26.43C51.54 26.55 51.57 26.67 51.62 26.78C51.67 26.89 51.75 26.98 51.84 27.05C51.94 27.13 52.05 27.18 52.17 27.2C52.28 27.22 52.4 27.22 52.52 27.19L52.52 33.12C52.4 33.08 52.28 33.08 52.16 33.1C52.05 33.13 51.94 33.18 51.84 33.25C51.75 33.32 51.67 33.42 51.62 33.53C51.57 33.63 51.54 33.75 51.54 33.87L51.54 43.66C51.54 43.78 51.57 43.9 51.62 44.01C51.67 44.12 51.75 44.21 51.84 44.29C51.94 44.36 52.05 44.41 52.16 44.43C52.28 44.46 52.4 44.45 52.52 44.42L52.52 48C52.4 47.97 52.28 47.96 52.16 47.99C52.05 48.01 51.94 48.06 51.84 48.13C51.75 48.21 51.67 48.3 51.62 48.41C51.57 48.52 51.54 48.63 51.54 48.75L51.54 58.55C51.54 58.67 51.57 58.78 51.62 58.89C51.67 59 51.75 59.09 51.84 59.17C51.94 59.24 52.05 59.29 52.16 59.31C52.28 59.34 52.4 59.33 52.52 59.3L52.52 162.7C52.52 167.12 54.28 171.35 57.41 174.48C60.53 177.61 64.77 179.36 69.19 179.37L125.54 179.37C129.96 179.36 134.19 177.61 137.32 174.48C140.44 171.35 142.2 167.12 142.21 162.7L142.21 16.67C142.2 12.25 140.44 8.01 137.32 4.88C134.19 1.76 129.96 0 125.54 0ZM138.68 162.7C138.68 166.18 137.29 169.52 134.83 171.99C132.36 174.45 129.02 175.84 125.54 175.84L69.19 175.84C65.71 175.84 62.36 174.45 59.9 171.99C57.43 169.52 56.05 166.18 56.04 162.7L56.04 16.67C56.05 13.18 57.43 9.84 59.9 7.37C62.36 4.91 65.71 3.52 69.19 3.52L125.54 3.52C129.02 3.52 132.36 4.91 134.83 7.37C137.29 9.84 138.68 13.18 138.68 16.67L138.68 162.7Z" fill="#3F3D56" fill-opacity="1.000000" fill-rule="nonzero"/>
		<path id="Vector" d="M125.54 177.8L69.19 177.8C65.19 177.8 61.35 176.2 58.52 173.37C55.68 170.54 54.09 166.7 54.09 162.7L54.09 16.67C54.09 12.66 55.68 8.82 58.52 5.99C61.35 3.16 65.19 1.57 69.19 1.56L125.54 1.56C129.54 1.57 133.38 3.16 136.21 5.99C139.04 8.82 140.64 12.66 140.64 16.67L140.64 162.7C140.64 166.7 139.04 170.54 136.21 173.37C133.38 176.2 129.54 177.8 125.54 177.8Z" fill="#E6E6E6" fill-opacity="1.000000" fill-rule="nonzero"/>
		<path id="Vector" d="M126.93 175.45L67.8 175.45C65.1 175.45 62.51 174.37 60.6 172.46C58.69 170.55 57.61 167.97 57.61 165.26L57.61 14.1C57.61 11.4 58.69 8.81 60.6 6.9C62.51 4.99 65.1 3.91 67.8 3.91L75.51 3.91C75.96 3.91 76.38 4.09 76.7 4.41C77.02 4.72 77.19 5.15 77.19 5.6C77.19 6.91 77.72 8.18 78.65 9.11C79.58 10.04 80.85 10.57 82.17 10.57L111.78 10.57C113.09 10.57 114.36 10.04 115.29 9.11C116.22 8.18 116.75 6.91 116.75 5.6C116.75 5.15 116.93 4.72 117.24 4.41C117.56 4.09 117.99 3.91 118.43 3.91L126.93 3.91C129.63 3.91 132.22 4.99 134.13 6.9C136.04 8.81 137.11 11.4 137.12 14.1L137.12 165.26C137.11 167.97 136.04 170.55 134.13 172.46C132.22 174.37 129.63 175.45 126.93 175.45Z" fill="#FFFFFF" fill-opacity="1.000000" fill-rule="nonzero"/>
		<path id="Vector" d="M99.91 7.34L92.86 7.34C92.65 7.34 92.45 7.26 92.31 7.11C92.16 6.96 92.08 6.76 92.08 6.56C92.08 6.35 92.16 6.15 92.31 6C92.45 5.85 92.65 5.77 92.86 5.77L99.91 5.77C100.12 5.77 100.32 5.85 100.46 6C100.61 6.15 100.69 6.35 100.69 6.56C100.69 6.76 100.61 6.96 100.46 7.11C100.32 7.26 100.12 7.34 99.91 7.34Z" fill="#FFFFFF" fill-opacity="1.000000" fill-rule="nonzero"/>
		<path id="Vector" d="M105.2 6.75C105.2 6.97 105.02 7.14 104.8 7.14C104.59 7.14 104.41 6.97 104.41 6.75C104.41 6.53 104.59 6.36 104.8 6.36C105.02 6.36 105.2 6.53 105.2 6.75Z" fill="#FFFFFF" fill-opacity="1.000000" fill-rule="evenodd"/>
		<path id="Vector" d="M55.63 34.51L139.02 34.51L139.02 35.4L55.63 35.4L55.63 34.51Z" fill="#E6E6E6" fill-opacity="1.000000" fill-rule="evenodd"/>
		<path id="Vector" d="M55.63 52.36L139.02 52.36L139.02 53.25L55.63 53.25L55.63 52.36Z" fill="#E6E6E6" fill-opacity="1.000000" fill-rule="evenodd"/>
		<path id="Vector" d="M55.63 89.25L139.02 89.25L139.02 90.14L55.63 90.14L55.63 89.25Z" fill="#E6E6E6" fill-opacity="1.000000" fill-rule="evenodd"/>
		<path id="Vector" d="M55.63 126.14L139.02 126.14L139.02 127.04L55.63 127.04L55.63 126.14Z" fill="#E6E6E6" fill-opacity="1.000000" fill-rule="evenodd"/>
		<path id="Vector" d="M55.63 155L139.02 155L139.02 155.9L55.63 155.9L55.63 155Z" fill="#E6E6E6" fill-opacity="1.000000" fill-rule="evenodd"/>
		<path id="Vector" d="M115.3 34.95L116.19 34.95L116.19 89.7L115.3 89.7L115.3 34.95Z" fill="#E6E6E6" fill-opacity="1.000000" fill-rule="evenodd"/>
		<path id="Vector" d="M73.55 89.68L74.44 89.68L74.44 155.45L73.55 155.45L73.55 89.68Z" fill="#E6E6E6" fill-opacity="1.000000" fill-rule="evenodd"/>
		<path id="Vector" d="M74 107.72L137.12 107.72L137.12 108.62L74 108.62L74 107.72Z" fill="#E6E6E6" fill-opacity="1.000000" fill-rule="evenodd"/>
		<path id="Vector" d="M115.39 155.45L116.29 155.45L116.29 175.45L115.39 175.45L115.39 155.45Z" fill="#E6E6E6" fill-opacity="1.000000" fill-rule="evenodd"/>
		<path id="Vector" d="M57.46 71.17L115.59 71.17L115.59 72.06L57.46 72.06L57.46 71.17Z" fill="#E6E6E6" fill-opacity="1.000000" fill-rule="evenodd"/>
		<path id="Vector" d="M68.78 3.69L69.6 3.35L82.76 34.78L81.93 35.13L68.78 3.69Z" fill="#E6E6E6" fill-opacity="1.000000" fill-rule="evenodd"/>
		<path id="Vector" d="M109.22 10.57L110.12 10.57L110.12 34.95L109.22 34.95L109.22 10.57Z" fill="#E6E6E6" fill-opacity="1.000000" fill-rule="evenodd"/>
		<path id="Vector" d="M133.13 48.49C133.13 56.49 120.77 75.12 117.15 80.4C117.05 80.56 116.9 80.69 116.73 80.78C116.56 80.87 116.37 80.92 116.17 80.92C115.98 80.92 115.79 80.87 115.62 80.78C115.45 80.69 115.3 80.56 115.19 80.4C111.58 75.12 99.22 56.49 99.22 48.49C99.22 43.99 101 39.68 104.18 36.5C107.36 33.32 111.68 31.53 116.17 31.53C120.67 31.53 124.99 33.32 128.17 36.5C131.35 39.68 133.13 43.99 133.13 48.49Z" fill="#F78065" fill-opacity="1.000000" fill-rule="nonzero"/>
		<path id="Vector" d="M124.8 47.3C124.8 52.07 120.94 55.93 116.17 55.93C111.41 55.93 107.55 52.07 107.55 47.3C107.55 42.54 111.41 38.67 116.17 38.67C120.94 38.67 124.8 42.54 124.8 47.3Z" fill="#FFFFFF" fill-opacity="1.000000" fill-rule="evenodd"/>
		<path id="Vector" d="M82.93 155.24L115.61 89.95L116.41 90.35L83.73 155.64L82.93 155.24Z" fill="#E6E6E6" fill-opacity="1.000000" fill-rule="evenodd"/>
		<path id="Vector" d="M162.67 104.32C163.05 104.52 163.48 104.64 163.92 104.67C164.35 104.69 164.79 104.62 165.2 104.46C165.6 104.3 165.97 104.05 166.27 103.73C166.57 103.41 166.79 103.03 166.93 102.61L177.56 102.43L174.44 97.87L164.82 98.74C164.11 98.56 163.35 98.64 162.7 98.98C162.04 99.32 161.53 99.89 161.27 100.57C161 101.26 161 102.02 161.26 102.71C161.52 103.4 162.02 103.97 162.67 104.32L162.67 104.32Z" fill="#FFB8B8" fill-opacity="1.000000" fill-rule="nonzero"/>
		<path id="Vector" d="M169.05 104.18C168.88 104.18 168.72 104.15 168.57 104.08C168.42 104.02 168.28 103.92 168.17 103.81C168.05 103.69 167.97 103.55 167.91 103.39C167.85 103.24 167.82 103.07 167.83 102.91L168.04 98.03C168.06 97.74 168.17 97.47 168.37 97.25C168.57 97.04 168.84 96.91 169.12 96.88L181.44 95.46L181.03 103.59L169.11 104.18C169.09 104.18 169.07 104.18 169.05 104.18Z" fill="#F78065" fill-opacity="1.000000" fill-rule="nonzero"/>
		<path id="Vector" d="M184.05 171L180.58 172.13L174.56 159.29L179.68 157.62L184.05 171Z" fill="#FFB8B8" fill-opacity="1.000000" fill-rule="nonzero"/>
		<path id="Vector" d="M186.03 174.07L174.85 177.72L174.8 177.58C174.62 177.01 174.54 176.41 174.59 175.81C174.64 175.21 174.8 174.62 175.07 174.09C175.34 173.55 175.72 173.07 176.18 172.68C176.63 172.29 177.16 171.99 177.73 171.81L177.73 171.81L184.56 169.58L186.03 174.07Z" fill="#2F2E41" fill-opacity="1.000000" fill-rule="nonzero"/>
		<path id="Vector" d="M194.26 176.36L190.61 176.36L188.88 162.3L194.26 162.3L194.26 176.36Z" fill="#FFB8B8" fill-opacity="1.000000" fill-rule="nonzero"/>
		<path id="Vector" d="M195.19 179.9L183.43 179.9L183.43 179.75C183.43 179.15 183.55 178.55 183.78 178C184.01 177.44 184.34 176.94 184.77 176.51C185.19 176.09 185.7 175.75 186.25 175.52C186.81 175.29 187.41 175.17 188.01 175.17L188.01 175.17L195.19 175.17L195.19 179.9Z" fill="#2F2E41" fill-opacity="1.000000" fill-rule="nonzero"/>
		<path id="Vector" d="M188.72 172.94C188.42 172.94 188.13 172.83 187.91 172.63C187.69 172.43 187.55 172.16 187.51 171.87L182.81 132.55L175.92 143.6L184 164.24C184.11 164.53 184.11 164.84 184 165.13C183.89 165.41 183.67 165.65 183.4 165.78L176.55 169.13C176.39 169.21 176.22 169.25 176.05 169.26C175.87 169.26 175.7 169.23 175.54 169.16C175.38 169.1 175.23 168.99 175.12 168.87C175 168.74 174.91 168.59 174.85 168.42L167.26 145.48C166.69 143.75 166.61 141.9 167.05 140.13L171.95 119.99L172.01 119.95L183.08 113.89L183.14 113.92L196.18 118.67L194.81 144.5L195.8 171.31C195.82 171.63 195.71 171.94 195.49 172.18C195.28 172.41 194.98 172.56 194.66 172.57L188.8 172.94C188.77 172.94 188.75 172.94 188.72 172.94Z" fill="#2F2E41" fill-opacity="1.000000" fill-rule="nonzero"/>
		<path id="Vector" d="M181.54 127.64C179.59 127.64 177.95 127.09 176.93 125.68L176.89 125.63L177.56 118.66L171.65 121.94C171.53 122.01 171.39 122.04 171.25 122.02C171.11 122.01 170.98 121.95 170.87 121.86C170.76 121.77 170.69 121.65 170.65 121.51C170.62 121.38 170.63 121.23 170.68 121.1L178.04 101.54L182.91 85.6C183.15 84.32 183.77 83.15 184.69 82.24C185.62 81.32 186.8 80.71 188.07 80.48C192.41 79.69 194.99 81.15 197.97 84.39C198.69 85.18 199.22 86.13 199.52 87.15C199.82 88.18 199.88 89.26 199.7 90.31L196.88 106.43L197.71 120.88C197.77 121.13 197.76 121.39 197.66 121.63C197.57 121.87 197.4 122.07 197.18 122.21C194.88 123.67 187.81 127.64 181.54 127.64Z" fill="#F78065" fill-opacity="1.000000" fill-rule="nonzero"/>
		<path id="Vector" d="M198.71 70.76C198.71 74.8 195.43 78.07 191.4 78.07C187.36 78.07 184.09 74.8 184.09 70.76C184.09 66.73 187.36 63.46 191.4 63.46C195.43 63.46 198.71 66.73 198.71 70.76Z" fill="#FFB8B8" fill-opacity="1.000000" fill-rule="evenodd"/>
		<path id="Vector" d="M193.3 122.85C193.7 122.67 194.05 122.4 194.34 122.07C194.62 121.74 194.83 121.35 194.94 120.92C195.06 120.5 195.08 120.06 195 119.63C194.93 119.2 194.76 118.79 194.51 118.43L200.78 109.84L195.26 109.58L190.16 117.77C189.58 118.23 189.19 118.89 189.07 119.61C188.94 120.34 189.09 121.08 189.47 121.71C189.86 122.34 190.47 122.8 191.17 123.01C191.88 123.22 192.63 123.16 193.3 122.85Z" fill="#FFB8B8" fill-opacity="1.000000" fill-rule="nonzero"/>
		<path id="Vector" d="M196.7 118.01C196.39 118.05 196.08 117.98 195.83 117.8L191.68 114.91C191.43 114.73 191.25 114.47 191.18 114.18C191.12 113.88 191.16 113.57 191.31 113.31L198.7 100.17L191.27 91.22C190.88 90.75 190.59 90.21 190.42 89.62C190.26 89.03 190.21 88.42 190.29 87.81C190.38 87.21 190.59 86.63 190.91 86.11C191.23 85.59 191.65 85.14 192.15 84.79C192.66 84.45 193.22 84.21 193.82 84.09C194.42 83.98 195.04 83.99 195.64 84.13C196.23 84.26 196.79 84.52 197.28 84.89C197.77 85.25 198.18 85.71 198.48 86.25L206.68 100.72C206.74 100.83 206.77 100.94 206.77 101.06C206.77 101.18 206.74 101.3 206.68 101.4L197.58 117.4C197.5 117.55 197.39 117.68 197.25 117.78C197.11 117.88 196.96 117.95 196.79 117.99C196.76 118 196.73 118 196.7 118.01Z" fill="#F78065" fill-opacity="1.000000" fill-rule="nonzero"/>
		<path id="Vector" d="M188.48 69.83C187.76 69.29 186.75 69.37 185.9 69.09C185.39 68.92 184.93 68.62 184.57 68.22C184.21 67.82 183.97 67.33 183.86 66.81C183.75 66.28 183.78 65.74 183.95 65.23C184.11 64.72 184.41 64.26 184.81 63.9C185.74 63.07 187.06 62.88 188.29 62.73C189.98 62.52 191.68 62.31 193.38 62.48C195.07 62.64 196.78 63.22 198.02 64.39C199.38 65.67 200.06 67.59 200.06 69.47C200.01 71.35 199.5 73.2 198.55 74.83C198.26 75.45 197.82 76 197.28 76.41C196.71 76.78 195.9 76.88 195.35 76.48C194.88 76.13 194.71 75.51 194.49 74.96C194.28 74.41 193.91 73.82 193.33 73.74C192.58 73.63 192 74.4 191.28 74.65C190.28 75 189.17 74.22 188.76 73.24C188.35 72.26 188.45 71.15 188.57 70.09L188.48 69.83Z" fill="#2F2E41" fill-opacity="1.000000" fill-rule="nonzero"/>
		<path id="Vector" d="M252.89 179.7C252.89 179.78 252.86 179.85 252.8 179.91C252.75 179.96 252.67 180 252.59 180L0.29 180C0.21 180 0.14 179.96 0.08 179.91C0.03 179.85 0 179.78 0 179.7C0 179.62 0.03 179.54 0.08 179.49C0.14 179.43 0.21 179.4 0.29 179.4L252.59 179.4C252.67 179.4 252.75 179.43 252.8 179.49C252.86 179.54 252.89 179.62 252.89 179.7Z" fill="#CCCCCC" fill-opacity="1.000000" fill-rule="nonzero"/>
		<path id="Vector" d="M120.04 89.55C120.04 91.68 118.31 93.42 116.17 93.42C114.04 93.42 112.31 91.68 112.31 89.55C112.31 87.41 114.04 85.68 116.17 85.68C118.31 85.68 120.04 87.41 120.04 89.55Z" fill="#F78065" fill-opacity="1.000000" fill-rule="evenodd"/>
		<path id="Vector" d="M170.63 47.26C169.01 49.41 161.92 51.93 159.88 52.62C159.82 52.64 159.75 52.65 159.69 52.64C159.62 52.63 159.56 52.6 159.51 52.56C159.46 52.52 159.42 52.47 159.39 52.41C159.36 52.35 159.35 52.29 159.35 52.23C159.45 50.08 159.88 42.56 161.5 40.41C162.4 39.2 163.76 38.4 165.26 38.18C166.75 37.97 168.28 38.36 169.49 39.27C170.7 40.18 171.5 41.53 171.71 43.03C171.93 44.53 171.54 46.05 170.63 47.26Z" fill="#F2F2F2" fill-opacity="1.000000" fill-rule="nonzero"/>
		<path id="Vector" d="M169.21 43.51C169.21 45.12 167.91 46.42 166.3 46.42C164.7 46.42 163.4 45.12 163.4 43.51C163.4 41.91 164.7 40.61 166.3 40.61C167.91 40.61 169.21 41.91 169.21 43.51Z" fill="#FFFFFF" fill-opacity="1.000000" fill-rule="evenodd"/>
		<path id="Vector" d="M159.07 54.89C159.07 55.61 158.49 56.19 157.77 56.19C157.05 56.19 156.47 55.61 156.47 54.89C156.47 54.17 157.05 53.58 157.77 53.58C158.49 53.58 159.07 54.17 159.07 54.89Z" fill="#F2F2F2" fill-opacity="1.000000" fill-rule="evenodd"/>
		<path id="Vector" d="M29.06 106.31C31.43 109.94 31.36 122.08 31.28 125.55C31.28 125.65 31.25 125.76 31.2 125.85C31.15 125.94 31.08 126.02 30.99 126.08C30.9 126.13 30.8 126.17 30.7 126.18C30.6 126.19 30.49 126.17 30.39 126.13C27.18 124.81 16.03 120.02 13.65 116.39C12.99 115.38 12.53 114.25 12.31 113.06C12.08 111.87 12.1 110.65 12.34 109.47C12.59 108.29 13.07 107.16 13.75 106.16C14.43 105.16 15.3 104.31 16.31 103.65C17.32 102.98 18.46 102.53 19.64 102.3C20.83 102.08 22.05 102.09 23.24 102.34C24.42 102.59 25.54 103.06 26.54 103.75C27.54 104.43 28.39 105.3 29.06 106.31Z" fill="#F2F2F2" fill-opacity="1.000000" fill-rule="nonzero"/>
		<path id="Vector" d="M25.68 110.81C25.68 113.4 23.59 115.49 21 115.49C18.42 115.49 16.32 113.4 16.32 110.81C16.32 108.23 18.42 106.13 21 106.13C23.59 106.13 25.68 108.23 25.68 110.81Z" fill="#FFFFFF" fill-opacity="1.000000" fill-rule="evenodd"/>
		<path id="Vector" d="M35.66 130C35.66 131.16 34.72 132.09 33.56 132.09C32.4 132.09 31.46 131.16 31.46 130C31.46 128.84 32.4 127.9 33.56 127.9C34.72 127.9 35.66 128.84 35.66 130Z" fill="#F2F2F2" fill-opacity="1.000000" fill-rule="evenodd"/>
	</g>
</svg>
