<svg width="247.498779" height="180.000000" viewBox="0 0 247.499 180" fill="none" xmlns="http://www.w3.org/2000/svg" xmlns:xlink="http://www.w3.org/1999/xlink">
	<desc>
			Created with Pixso.
	</desc>
	<defs>
		<clipPath id="clip4_0">
			<rect id="undraw_exploring_1l7f 1" width="247.498871" height="180.000000" fill="white" fill-opacity="0"/>
		</clipPath>
		<linearGradient x1="93.213394" y1="152.394562" x2="93.213394" y2="18.192230" id="paint_linear_4_79_0" gradientUnits="userSpaceOnUse">
			<stop stop-color="#808080" stop-opacity="0.250980"/>
			<stop offset="0.540000" stop-color="#808080" stop-opacity="0.121569"/>
			<stop offset="1.000000" stop-color="#808080" stop-opacity="0.101961"/>
		</linearGradient>
		<linearGradient x1="17593.453125" y1="22544.925781" x2="17593.453125" y2="17699.304688" id="paint_linear_4_133_0" gradientUnits="userSpaceOnUse">
			<stop stop-color="#808080" stop-opacity="0.250980"/>
			<stop offset="0.540000" stop-color="#808080" stop-opacity="0.121569"/>
			<stop offset="1.000000" stop-color="#808080" stop-opacity="0.101961"/>
		</linearGradient>
	</defs>
	<rect id="undraw_exploring_1l7f 1" width="247.498871" height="180.000000" fill="#FFFFFF" fill-opacity="0"/>
	<g clip-path="url(#clip4_0)">
		<g opacity="0.100000">
			<path id="Vector" d="M137.46 86.81C131.43 86.8 125.52 88.49 120.4 91.67C120.33 83.13 116.89 74.96 110.83 68.94C104.77 62.92 96.57 59.54 88.03 59.54C84.18 59.54 80.36 60.22 76.75 61.56L76.75 53.73C76.75 49.48 75.91 45.27 74.28 41.34C72.66 37.42 70.27 33.85 67.27 30.84C64.26 27.84 60.69 25.45 56.76 23.83C52.84 22.2 48.63 21.36 44.38 21.36C35.79 21.36 27.56 24.77 21.49 30.84C15.42 36.91 12.01 45.15 12.01 53.73L12.01 139.64L169.83 139.64L169.83 119.18C169.83 110.6 166.42 102.36 160.34 96.29C154.27 90.22 146.04 86.81 137.46 86.81Z" fill="#F78065" fill-opacity="1.000000" fill-rule="nonzero"/>
		</g>
		<path id="Vector" d="M174.12 135.78C174.12 135.78 178.67 128.65 179.2 125.61C179.58 123.62 180.11 121.67 180.79 119.77" stroke="#535461" stroke-opacity="1.000000" stroke-width="2.000000"/>
		<path id="Vector" d="M181.82 125.85L178.97 126.1C178.97 126.1 180.48 128.71 181.82 125.85Z" fill="#F78065" fill-opacity="1.000000" fill-rule="nonzero"/>
		<path id="Vector" d="M176.83 124.27L179.1 126.09C179.1 126.09 176.16 127.25 176.83 124.27Z" fill="#F78065" fill-opacity="1.000000" fill-rule="nonzero"/>
		<path id="Vector" d="M182.18 123.36L179.61 123.7C179.61 123.7 181.88 125.55 182.18 123.36Z" fill="#F78065" fill-opacity="1.000000" fill-rule="nonzero"/>
		<path id="Vector" d="M177.92 122.44L179.62 123.64C179.62 123.64 177.56 124.51 177.92 122.44Z" fill="#F78065" fill-opacity="1.000000" fill-rule="nonzero"/>
		<path id="Vector" d="M180.25 121.36C180.25 121.36 182.37 120.8 182.67 120.92C182.97 121.04 182.79 122.38 181.94 122.44C181.09 122.5 180.25 121.36 180.25 121.36Z" fill="#F78065" fill-opacity="1.000000" fill-rule="nonzero"/>
		<path id="Vector" d="M178.84 119.77C178.84 119.77 180.18 121.04 180.24 121.36C180.3 121.67 179.14 122.39 178.53 121.36C177.92 120.32 178.84 119.77 178.84 119.77Z" fill="#F78065" fill-opacity="1.000000" fill-rule="nonzero"/>
		<path id="Vector" d="M181.94 119.89C181.94 120.22 181.67 120.5 181.33 120.5C181 120.5 180.72 120.22 180.72 119.89C180.72 119.55 181 119.28 181.33 119.28C181.67 119.28 181.94 119.55 181.94 119.89Z" fill="#FFD037" fill-opacity="1.000000" fill-rule="evenodd"/>
		<path id="Vector" d="M180.85 119.58C180.85 119.92 180.57 120.19 180.24 120.19C179.9 120.19 179.63 119.92 179.63 119.58C179.63 119.25 179.9 118.97 180.24 118.97C180.57 118.97 180.85 119.25 180.85 119.58Z" fill="#FFD037" fill-opacity="1.000000" fill-rule="evenodd"/>
		<g opacity="0.100000">
			<path id="Vector" d="M148.72 64.79C146.44 67.09 146.31 70.61 146.31 70.61C146.31 70.61 149.83 70.41 152.09 68.11C154.35 65.81 154.5 62.29 154.5 62.29C154.5 62.29 150.98 62.5 148.72 64.79Z" fill="#F78065" fill-opacity="1.000000" fill-rule="nonzero"/>
		</g>
		<g opacity="0.100000">
			<path id="Vector" d="M129.42 49.11C130.23 52.23 133.17 54.18 133.17 54.18C133.17 54.18 134.81 51.06 134.01 47.93C133.21 44.81 130.27 42.87 130.27 42.87C130.27 42.87 128.63 45.99 129.42 49.11Z" fill="#F78065" fill-opacity="1.000000" fill-rule="nonzero"/>
		</g>
		<g opacity="0.100000">
			<path id="Vector" d="M170.53 78.84C168.25 81.13 168.11 84.66 168.11 84.66C168.11 84.66 171.63 84.46 173.9 82.16C176.16 79.86 176.31 76.34 176.31 76.34C176.31 76.34 172.79 76.54 170.53 78.84Z" fill="#F78065" fill-opacity="1.000000" fill-rule="nonzero"/>
		</g>
		<g opacity="0.100000">
			<path id="Vector" d="M179.58 98.61C179.32 101.83 181.46 104.63 181.46 104.63C181.46 104.63 184.04 102.22 184.3 99C184.56 95.79 182.42 92.99 182.42 92.99C182.42 92.99 179.85 95.4 179.58 98.61Z" fill="#F78065" fill-opacity="1.000000" fill-rule="nonzero"/>
		</g>
		<g opacity="0.100000">
			<path id="Vector" d="M232.06 83.63C231.8 86.85 233.94 89.65 233.94 89.65C233.94 89.65 236.52 87.23 236.78 84.02C237.04 80.81 234.9 78.01 234.9 78.01C234.9 78.01 232.33 80.42 232.06 83.63Z" fill="#F78065" fill-opacity="1.000000" fill-rule="nonzero"/>
		</g>
		<path id="Vector" d="M14.64 137.24C14.64 137.24 115.62 117.99 226.9 137.24C338.19 156.48 -40.65 153.53 14.64 137.24Z" fill="#F78065" fill-opacity="1.000000" fill-rule="nonzero"/>
		<path id="Vector" d="M70.61 140.37C70.79 142.67 68.55 144.41 66.41 145.25C64.26 146.1 61.81 146.62 60.33 148.38C59.92 148.84 59.66 149.42 59.59 150.03C59.53 151.38 60.78 152.4 61.99 153C65.44 154.71 69.41 154.92 73.21 155.59C77.01 156.25 81.01 157.61 83.19 160.79C84.2 162.26 84.75 164.05 85.88 165.45C87.7 167.67 90.82 168.54 93.66 168.16C96.5 167.77 99.09 166.29 101.32 164.49C103.82 162.47 106.13 159.94 109.24 159.14C114.59 157.75 119.6 161.9 124.71 164.01C130.89 166.56 137.92 166.13 144.41 164.53C145.87 164.17 147.34 163.74 148.58 162.9C150.01 161.93 151.03 160.48 152.37 159.39C155.69 156.68 160.36 156.57 164.64 156.6L177.07 156.67C179.53 156.68 182.15 156.65 184.2 155.31C186.31 153.92 187.42 151.29 187.29 148.78C187.15 146.26 185.89 143.89 184.13 142.09C180.2 138.1 174.28 136.96 168.73 136.18C142.02 132.49 114.94 132.8 87.97 133.1C83.46 133.15 78.93 133.2 74.45 133.83C73.34 133.98 68.71 134.21 68.27 135.39C67.86 136.5 70.51 139 70.61 140.37Z" fill="#F78065" fill-opacity="1.000000" fill-rule="nonzero"/>
		<path id="Vector" d="M48.4 160.2C48.4 161.05 44.31 161.74 39.26 161.74C34.21 161.74 30.12 161.05 30.12 160.2C30.12 159.35 34.21 158.65 39.26 158.65C44.31 158.65 48.4 159.35 48.4 160.2Z" fill="#F78065" fill-opacity="1.000000" fill-rule="evenodd"/>
		<path id="Vector" d="M55.66 173.02C55.66 173.87 51.57 174.57 46.52 174.57C41.48 174.57 37.38 173.87 37.38 173.02C37.38 172.17 41.48 171.48 46.52 171.48C51.57 171.48 55.66 172.17 55.66 173.02Z" fill="#F78065" fill-opacity="1.000000" fill-rule="evenodd"/>
		<path id="Vector" d="M24.25 151.62C24.25 152.19 21.51 152.65 18.13 152.65C14.75 152.65 12.01 152.19 12.01 151.62C12.01 151.05 14.75 150.59 18.13 150.59C21.51 150.59 24.25 151.05 24.25 151.62Z" fill="#F78065" fill-opacity="1.000000" fill-rule="evenodd"/>
		<path id="Vector" d="M74.1 164.87C74.1 165.44 71.36 165.9 67.98 165.9C64.6 165.9 61.86 165.44 61.86 164.87C61.86 164.3 64.6 163.83 67.98 163.83C71.36 163.83 74.1 164.3 74.1 164.87Z" fill="#F78065" fill-opacity="1.000000" fill-rule="evenodd"/>
		<path id="Vector" d="M205.38 156.28C205.38 156.85 202.64 157.31 199.26 157.31C195.88 157.31 193.14 156.85 193.14 156.28C193.14 155.71 195.88 155.24 199.26 155.24C202.64 155.24 205.38 155.71 205.38 156.28Z" fill="#F78065" fill-opacity="1.000000" fill-rule="evenodd"/>
		<path id="Vector" d="M166.74 166.37C166.74 166.94 164 167.41 160.62 167.41C157.24 167.41 154.5 166.94 154.5 166.37C154.5 165.8 157.24 165.34 160.62 165.34C164 165.34 166.74 165.8 166.74 166.37Z" fill="#F78065" fill-opacity="1.000000" fill-rule="evenodd"/>
		<path id="Vector" d="M234.42 160.2C234.42 161.05 230.33 161.74 225.29 161.74C220.24 161.74 216.15 161.05 216.15 160.2C216.15 159.35 220.24 158.65 225.29 158.65C230.33 158.65 234.42 159.35 234.42 160.2Z" fill="#F78065" fill-opacity="1.000000" fill-rule="evenodd"/>
		<path id="Vector" d="M203.26 168.87C203.26 170.24 196.65 171.36 188.5 171.36C180.35 171.36 173.74 170.24 173.74 168.87C173.74 167.49 180.35 166.37 188.5 166.37C196.65 166.37 203.26 167.49 203.26 168.87Z" fill="#F78065" fill-opacity="1.000000" fill-rule="evenodd"/>
		<path id="Vector" d="M139.3 176.51C139.3 178.43 130.07 179.99 118.68 179.99C107.28 179.99 98.05 178.43 98.05 176.51C98.05 174.58 107.28 173.02 118.68 173.02C130.07 173.02 139.3 174.58 139.3 176.51Z" fill="#F78065" fill-opacity="1.000000" fill-rule="evenodd"/>
		<path id="Vector" d="M226.98 107.09C226.98 107.09 222.36 111.71 224.97 118.57C227.58 125.42 220.5 136.83 220.5 136.83L220.72 136.79C230.21 135.11 234.93 124.26 229.65 116.2C227.68 113.2 226.07 109.69 226.98 107.09Z" fill="#F78065" fill-opacity="1.000000" fill-rule="nonzero"/>
		<path id="Vector" d="M226.98 107.09C226.98 107.09 224.37 112.76 226.98 117.38C229.59 122 227.43 134.96 220.5 136.83" stroke="#535461" stroke-opacity="1.000000" stroke-width="1.000000"/>
		<path id="Vector" d="M235.21 125.78C235.21 125.78 229.94 124.94 229.46 129.66C228.98 134.39 219.32 135.04 219.32 135.04L219.5 135.16C227.47 140.39 235.1 138.5 233.95 131.55C233.51 128.96 233.55 126.37 235.21 125.78Z" fill="#F78065" fill-opacity="1.000000" fill-rule="nonzero"/>
		<g opacity="0.200000">
			<path id="Vector" d="M235.21 125.78C235.21 125.78 229.94 124.94 229.46 129.66C228.98 134.39 219.32 135.04 219.32 135.04L219.5 135.16C227.47 140.39 235.1 138.5 233.95 131.55C233.51 128.96 233.55 126.37 235.21 125.78Z" fill="#F5F5F5" fill-opacity="1.000000" fill-rule="nonzero"/>
		</g>
		<path id="Vector" d="M235.21 125.78C235.21 125.78 231.12 126.69 231.45 130.4C231.79 134.11 225.38 138.58 219.32 135.04" stroke="#535461" stroke-opacity="1.000000" stroke-width="1.000000"/>
		<path id="Vector" d="M173.15 130.38C173.15 130.38 171.73 125.58 173.41 122.06C174.12 120.58 174.34 118.92 174.02 117.31C173.86 116.55 173.64 115.8 173.34 115.08" stroke="#535461" stroke-opacity="1.000000" stroke-width="2.000000"/>
		<path id="Vector" d="M174.39 112.85C174.39 113.44 173.33 115.14 173.33 115.14C173.33 115.14 172.27 113.44 172.27 112.85C172.27 112.57 172.38 112.3 172.58 112.1C172.78 111.9 173.05 111.79 173.33 111.79C173.61 111.79 173.88 111.9 174.08 112.1C174.28 112.3 174.39 112.57 174.39 112.85Z" fill="#F78065" fill-opacity="1.000000" fill-rule="nonzero"/>
		<path id="Vector" d="M176.15 116.11C175.83 116.6 174.01 117.45 174.01 117.45C174.01 117.45 174.05 115.44 174.37 114.95C174.44 114.83 174.54 114.72 174.65 114.64C174.77 114.55 174.9 114.5 175.04 114.46C175.18 114.43 175.32 114.43 175.46 114.45C175.6 114.48 175.74 114.53 175.85 114.61C175.97 114.69 176.08 114.79 176.16 114.9C176.24 115.02 176.29 115.15 176.32 115.29C176.35 115.43 176.35 115.58 176.32 115.72C176.29 115.86 176.23 115.99 176.15 116.11Z" fill="#F78065" fill-opacity="1.000000" fill-rule="nonzero"/>
		<path id="Vector" d="M176.07 121.66C175.55 121.93 173.55 121.75 173.55 121.75C173.55 121.75 174.59 120.03 175.12 119.76C175.37 119.64 175.66 119.62 175.93 119.7C176.2 119.79 176.42 119.98 176.54 120.24C176.67 120.49 176.69 120.78 176.6 121.05C176.52 121.32 176.33 121.54 176.07 121.66Z" fill="#F78065" fill-opacity="1.000000" fill-rule="nonzero"/>
		<path id="Vector" d="M175.07 125.86C174.6 126.21 172.6 126.36 172.6 126.36C172.6 126.36 173.34 124.49 173.81 124.14C173.93 124.05 174.05 123.98 174.19 123.94C174.33 123.91 174.47 123.89 174.62 123.91C174.76 123.93 174.9 123.98 175.02 124.05C175.14 124.12 175.25 124.22 175.34 124.34C175.42 124.45 175.48 124.58 175.52 124.72C175.55 124.86 175.55 125.01 175.53 125.15C175.5 125.29 175.45 125.42 175.37 125.54C175.3 125.66 175.2 125.77 175.08 125.85L175.07 125.86Z" fill="#F78065" fill-opacity="1.000000" fill-rule="nonzero"/>
		<path id="Vector" d="M171.78 117.56C172.2 117.97 174.16 118.4 174.16 118.4C174.16 118.4 173.68 116.45 173.26 116.04C173.05 115.85 172.78 115.75 172.51 115.76C172.23 115.77 171.97 115.88 171.77 116.08C171.58 116.28 171.47 116.54 171.47 116.82C171.47 117.1 171.58 117.36 171.77 117.56L171.78 117.56Z" fill="#F78065" fill-opacity="1.000000" fill-rule="nonzero"/>
		<path id="Vector" d="M170.67 122.48C171.19 122.75 173.19 122.56 173.19 122.56C173.19 122.56 172.15 120.85 171.63 120.58C171.5 120.51 171.36 120.47 171.22 120.46C171.08 120.44 170.94 120.46 170.8 120.5C170.66 120.54 170.54 120.61 170.43 120.71C170.32 120.8 170.23 120.91 170.17 121.04C170.1 121.16 170.07 121.3 170.06 121.44C170.05 121.59 170.07 121.73 170.11 121.86C170.16 122 170.23 122.12 170.33 122.23C170.42 122.33 170.54 122.42 170.67 122.48Z" fill="#F78065" fill-opacity="1.000000" fill-rule="nonzero"/>
		<path id="Vector" d="M170.24 127.41C170.71 127.76 172.71 127.92 172.71 127.92C172.71 127.92 171.98 126.05 171.51 125.7C171.39 125.61 171.26 125.54 171.13 125.51C170.99 125.47 170.84 125.46 170.7 125.47C170.56 125.49 170.42 125.54 170.3 125.61C170.18 125.68 170.07 125.78 169.98 125.9C169.9 126.01 169.84 126.14 169.8 126.28C169.77 126.42 169.77 126.57 169.79 126.71C169.81 126.85 169.87 126.98 169.94 127.11C170.02 127.23 170.12 127.33 170.24 127.41Z" fill="#F78065" fill-opacity="1.000000" fill-rule="nonzero"/>
		<path id="Vector" d="M170.08 129.91C170.08 129.91 172.65 129.39 173.34 128.71C174.03 128.02 177.13 126.81 177.47 127.68C177.81 128.54 182.11 131.46 179.19 131.97C176.26 132.49 172.31 132.65 171.46 132.32C170.61 131.98 170.08 129.91 170.08 129.91Z" fill="#A8A8A8" fill-opacity="1.000000" fill-rule="nonzero"/>
		<g opacity="0.200000">
			<path id="Vector" d="M179.2 131.65C176.27 132.17 172.32 132.33 171.47 132C170.81 131.73 170.36 130.48 170.18 129.89L170.09 129.91C170.09 129.91 170.61 131.97 171.46 132.32C172.3 132.66 176.27 132.49 179.18 131.97C180.03 131.82 180.27 131.48 180.18 131.03C180.1 131.32 179.82 131.54 179.2 131.65Z" fill="#000000" fill-opacity="1.000000" fill-rule="nonzero"/>
		</g>
		<path id="Vector" d="M151.22 145.33C151.22 145.33 159.04 143.76 161.13 141.68C163.22 139.59 172.61 135.94 173.65 138.55C174.7 141.15 187.74 150.02 178.88 151.59C170.02 153.15 158.01 153.68 155.4 152.63C152.79 151.59 151.22 145.33 151.22 145.33Z" fill="#A8A8A8" fill-opacity="1.000000" fill-rule="nonzero"/>
		<g opacity="0.200000">
			<path id="Vector" d="M178.87 150.62C170.01 152.19 158 152.71 155.39 151.66C153.41 150.87 152.03 147.05 151.48 145.27L151.22 145.33C151.22 145.33 152.78 151.59 155.39 152.63C158 153.67 170 153.15 178.87 151.59C181.43 151.13 182.16 150.08 181.89 148.73C181.67 149.61 180.79 150.28 178.87 150.62Z" fill="#000000" fill-opacity="1.000000" fill-rule="nonzero"/>
		</g>
		<path id="Vector" d="M20.55 114.86C24.04 120.01 22.93 138.42 22.93 138.42C22.93 138.42 5.43 132.62 1.93 127.48C1.08 126.26 0.48 124.88 0.17 123.42C-0.15 121.97 -0.17 120.47 0.11 119C0.38 117.54 0.94 116.14 1.75 114.9C2.57 113.65 3.62 112.58 4.86 111.74C6.09 110.91 7.47 110.33 8.93 110.03C10.39 109.74 11.9 109.73 13.36 110.03C14.82 110.32 16.2 110.89 17.44 111.72C18.68 112.55 19.73 113.62 20.55 114.86Z" fill="#F78065" fill-opacity="1.000000" fill-rule="nonzero"/>
		<g opacity="0.100000">
			<path id="Vector" d="M20.55 114.86C24.04 120.01 22.93 138.42 22.93 138.42C22.93 138.42 5.43 132.62 1.93 127.48C1.08 126.26 0.48 124.88 0.17 123.42C-0.15 121.97 -0.17 120.47 0.11 119C0.38 117.54 0.94 116.14 1.75 114.9C2.57 113.65 3.62 112.58 4.86 111.74C6.09 110.91 7.47 110.33 8.93 110.03C10.39 109.74 11.9 109.73 13.36 110.03C14.82 110.32 16.2 110.89 17.44 111.72C18.68 112.55 19.73 113.62 20.55 114.86Z" fill="#000000" fill-opacity="1.000000" fill-rule="nonzero"/>
		</g>
		<path id="Vector" d="M5 111.87C5 111.87 18.12 122 22.99 138.43" stroke="#535461" stroke-opacity="1.000000" stroke-width="1.000000"/>
		<path id="Vector" d="M26.3 124.48C26.3 124.48 16.98 122.89 23.36 138.32C23.36 138.32 29.83 135.85 30.33 129.71C30.43 128.52 30.09 127.33 29.37 126.37C28.66 125.41 27.61 124.74 26.44 124.5L26.3 124.48Z" fill="#F78065" fill-opacity="1.000000" fill-rule="nonzero"/>
		<path id="Vector" d="M26.43 124.46C26.43 124.46 28.21 133 23.36 138.32" stroke="#535461" stroke-opacity="1.000000" stroke-width="1.000000"/>
		<path id="Vector" d="M219.6 124.15C219.6 124.15 220.85 125.79 219.02 128.24C217.2 130.7 215.69 132.79 216.3 134.33C216.3 134.33 219.05 129.75 221.3 129.68C223.54 129.62 222.06 126.91 219.6 124.15Z" fill="#F78065" fill-opacity="1.000000" fill-rule="nonzero"/>
		<g opacity="0.100000">
			<path id="Vector" d="M219.6 124.15C219.71 124.31 219.79 124.48 219.85 124.67C222.04 127.23 223.2 129.63 221.1 129.69C219.15 129.75 216.79 133.25 216.23 134.13C216.25 134.2 216.28 134.27 216.3 134.33C216.3 134.33 219.05 129.75 221.3 129.69C223.55 129.63 222.06 126.91 219.6 124.15Z" fill="#000000" fill-opacity="1.000000" fill-rule="nonzero"/>
		</g>
		<path id="Vector" d="M221.92 126.23C221.92 126.81 221.85 127.28 221.78 127.28C221.7 127.28 221.63 126.82 221.63 126.23C221.63 125.65 221.71 125.93 221.79 125.93C221.87 125.93 221.92 125.66 221.92 126.23Z" fill="#FFD037" fill-opacity="1.000000" fill-rule="nonzero"/>
		<path id="Vector" d="M222.72 126.92C222.21 127.2 221.77 127.36 221.73 127.29C221.7 127.22 222.08 126.94 222.58 126.67C223.08 126.39 222.88 126.59 222.92 126.67C222.96 126.74 223.22 126.65 222.72 126.92Z" fill="#FFD037" fill-opacity="1.000000" fill-rule="nonzero"/>
		<path id="Vector" d="M213.01 124.15C213.01 124.15 211.76 125.79 213.58 128.24C215.4 130.7 216.91 132.79 216.31 134.33C216.31 134.33 213.55 129.75 211.31 129.68C209.06 129.62 210.54 126.91 213.01 124.15Z" fill="#F78065" fill-opacity="1.000000" fill-rule="nonzero"/>
		<g opacity="0.100000">
			<path id="Vector" d="M213.01 124.15C212.9 124.31 212.81 124.48 212.75 124.67C210.56 127.23 209.4 129.63 211.5 129.69C213.46 129.75 215.82 133.25 216.37 134.13C216.35 134.2 216.33 134.27 216.3 134.33C216.3 134.33 213.55 129.75 211.3 129.69C209.06 129.63 210.54 126.91 213.01 124.15Z" fill="#000000" fill-opacity="1.000000" fill-rule="nonzero"/>
		</g>
		<path id="Vector" d="M210.68 126.23C210.68 126.81 210.75 127.28 210.83 127.28C210.91 127.28 210.97 126.82 210.97 126.23C210.97 125.65 210.89 125.93 210.81 125.93C210.73 125.93 210.68 125.66 210.68 126.23Z" fill="#FFD037" fill-opacity="1.000000" fill-rule="nonzero"/>
		<path id="Vector" d="M209.89 126.92C210.39 127.2 210.83 127.36 210.87 127.29C210.91 127.22 210.53 126.94 210.03 126.67C209.52 126.39 209.72 126.59 209.68 126.67C209.65 126.74 209.38 126.65 209.89 126.92Z" fill="#FFD037" fill-opacity="1.000000" fill-rule="nonzero"/>
		<path id="Vector" d="M211.08 134.12C211.08 134.12 214.57 134.01 215.63 133.26C216.68 132.52 221 131.62 221.26 132.82C221.52 134.02 226.5 138.8 222.56 138.83C218.62 138.86 213.41 138.21 212.36 137.57C211.31 136.94 211.08 134.12 211.08 134.12Z" fill="#A8A8A8" fill-opacity="1.000000" fill-rule="nonzero"/>
		<g opacity="0.200000">
			<path id="Vector" d="M222.63 138.4C218.69 138.43 213.47 137.79 212.42 137.15C211.62 136.66 211.31 134.92 211.2 134.11L211.08 134.11C211.08 134.11 211.31 136.92 212.35 137.56C213.4 138.2 218.62 138.85 222.56 138.82C223.7 138.82 224.09 138.4 224.07 137.8C223.91 138.17 223.48 138.4 222.63 138.4Z" fill="#000000" fill-opacity="1.000000" fill-rule="nonzero"/>
		</g>
		<path id="Vector" d="M229.06 157.67C229.48 157.33 229.78 156.88 229.93 156.36C230.05 155.84 229.82 155.22 229.32 155.02C228.77 154.81 228.17 155.19 227.72 155.59C227.26 155.98 226.75 156.42 226.15 156.34C226.46 156.06 226.68 155.71 226.81 155.32C226.94 154.93 226.97 154.51 226.89 154.11C226.86 153.94 226.79 153.79 226.68 153.66C226.37 153.33 225.81 153.47 225.44 153.73C224.26 154.56 223.93 156.16 223.92 157.61C223.8 157.09 223.9 156.55 223.9 156.02C223.9 155.49 223.75 154.88 223.3 154.6C223.02 154.45 222.71 154.37 222.39 154.38C221.86 154.36 221.25 154.41 220.9 154.8C220.45 155.28 220.57 156.09 220.96 156.62C221.35 157.14 221.95 157.48 222.5 157.85C222.94 158.11 223.31 158.47 223.6 158.9C223.63 158.96 223.66 159.02 223.68 159.08L227.01 159.08C227.75 158.71 228.45 158.23 229.06 157.67Z" fill="#F78065" fill-opacity="1.000000" fill-rule="nonzero"/>
		<path id="Vector" d="M71.76 162.39C72.18 162.05 72.48 161.59 72.63 161.08C72.74 160.56 72.52 159.94 72.02 159.74C71.46 159.53 70.87 159.91 70.41 160.31C69.96 160.7 69.44 161.14 68.85 161.06C69.15 160.78 69.38 160.43 69.51 160.04C69.64 159.65 69.67 159.23 69.58 158.83C69.56 158.66 69.49 158.51 69.38 158.38C69.07 158.04 68.51 158.19 68.13 158.45C66.95 159.28 66.62 160.89 66.62 162.33C66.5 161.81 66.6 161.26 66.6 160.74C66.59 160.21 66.45 159.6 66 159.32C65.72 159.17 65.4 159.1 65.09 159.11C64.56 159.09 63.96 159.14 63.6 159.53C63.15 160.01 63.27 160.82 63.66 161.35C64.05 161.88 64.65 162.21 65.2 162.58C65.64 162.84 66.01 163.2 66.3 163.63C66.33 163.69 66.36 163.75 66.38 163.82L69.7 163.82C70.45 163.44 71.14 162.96 71.76 162.39Z" fill="#F78065" fill-opacity="1.000000" fill-rule="nonzero"/>
		<path id="Vector" d="M49.26 141.23C49.26 141.23 46.07 130.39 49.86 122.41C51.47 119.07 51.96 115.3 51.24 111.66C50.89 109.94 50.38 108.25 49.72 106.62" stroke="#535461" stroke-opacity="1.000000" stroke-width="2.000000"/>
		<path id="Vector" d="M52.08 101.59C52.08 102.91 49.68 106.77 49.68 106.77C49.68 106.77 47.27 102.9 47.27 101.59C47.27 100.95 47.52 100.34 47.97 99.88C48.43 99.43 49.04 99.18 49.68 99.18C50.31 99.18 50.93 99.43 51.38 99.88C51.83 100.34 52.08 100.95 52.08 101.59Z" fill="#F78065" fill-opacity="1.000000" fill-rule="nonzero"/>
		<path id="Vector" d="M56.06 108.94C55.34 110.05 51.22 111.98 51.22 111.98C51.22 111.98 51.3 107.44 52.02 106.32C52.19 106.06 52.41 105.83 52.67 105.65C52.93 105.47 53.23 105.34 53.54 105.28C53.85 105.21 54.16 105.21 54.48 105.27C54.79 105.32 55.08 105.44 55.35 105.61C55.61 105.78 55.84 106.01 56.02 106.27C56.2 106.53 56.33 106.82 56.39 107.13C56.46 107.44 56.46 107.76 56.41 108.07C56.35 108.38 56.23 108.67 56.06 108.94Z" fill="#F78065" fill-opacity="1.000000" fill-rule="nonzero"/>
		<path id="Vector" d="M55.89 121.52C54.7 122.11 50.17 121.7 50.17 121.7C50.17 121.7 52.53 117.82 53.72 117.22C54 117.07 54.31 116.98 54.63 116.95C54.95 116.92 55.27 116.96 55.58 117.05C55.88 117.15 56.16 117.31 56.41 117.51C56.65 117.72 56.85 117.98 57 118.26C57.14 118.55 57.22 118.86 57.25 119.18C57.27 119.5 57.23 119.82 57.12 120.12C57.02 120.43 56.86 120.71 56.64 120.94C56.43 121.18 56.17 121.38 55.89 121.52Z" fill="#F78065" fill-opacity="1.000000" fill-rule="nonzero"/>
		<path id="Vector" d="M53.61 131C52.54 131.79 48.01 132.14 48.01 132.14C48.01 132.14 49.68 127.92 50.74 127.13C50.99 126.92 51.28 126.77 51.6 126.67C51.91 126.58 52.24 126.56 52.56 126.6C52.89 126.64 53.2 126.74 53.48 126.91C53.76 127.07 54.01 127.29 54.2 127.55C54.39 127.82 54.53 128.12 54.61 128.43C54.68 128.75 54.69 129.08 54.64 129.4C54.58 129.72 54.46 130.03 54.28 130.3C54.1 130.57 53.87 130.81 53.6 130.99L53.61 131Z" fill="#F78065" fill-opacity="1.000000" fill-rule="nonzero"/>
		<path id="Vector" d="M46.17 112.24C47.12 113.16 51.57 114.12 51.57 114.12C51.57 114.12 50.48 109.71 49.52 108.79C49.06 108.34 48.45 108.1 47.81 108.11C47.17 108.12 46.56 108.38 46.12 108.84C45.67 109.29 45.43 109.91 45.44 110.55C45.45 111.19 45.71 111.79 46.17 112.24L46.17 112.24Z" fill="#F78065" fill-opacity="1.000000" fill-rule="nonzero"/>
		<path id="Vector" d="M43.65 123.37C44.84 123.97 49.36 123.55 49.36 123.55C49.36 123.55 47 119.67 45.82 119.07C45.25 118.78 44.59 118.73 43.98 118.93C43.38 119.13 42.87 119.57 42.59 120.14C42.3 120.71 42.25 121.37 42.45 121.97C42.65 122.58 43.08 123.08 43.65 123.37Z" fill="#F78065" fill-opacity="1.000000" fill-rule="nonzero"/>
		<path id="Vector" d="M42.69 134.52C43.75 135.31 48.29 135.67 48.29 135.67C48.29 135.67 46.62 131.45 45.57 130.66C45.31 130.45 45.02 130.3 44.71 130.21C44.4 130.12 44.07 130.09 43.74 130.13C43.42 130.17 43.11 130.28 42.83 130.44C42.54 130.61 42.3 130.83 42.11 131.09C41.91 131.35 41.77 131.65 41.7 131.97C41.62 132.28 41.61 132.61 41.67 132.93C41.72 133.25 41.85 133.56 42.02 133.83C42.2 134.11 42.43 134.34 42.7 134.52L42.69 134.52Z" fill="#F78065" fill-opacity="1.000000" fill-rule="nonzero"/>
		<path id="Vector" d="M52.08 101.59C52.08 102.91 49.68 106.77 49.68 106.77C49.68 106.77 47.27 102.9 47.27 101.59C47.27 100.95 47.52 100.34 47.97 99.88C48.43 99.43 49.04 99.18 49.68 99.18C50.31 99.18 50.93 99.43 51.38 99.88C51.83 100.34 52.08 100.95 52.08 101.59Z" fill="#FC6681" fill-opacity="1.000000" fill-rule="nonzero"/>
		<path id="Vector" d="M56.06 108.94C55.34 110.05 51.22 111.98 51.22 111.98C51.22 111.98 51.3 107.44 52.02 106.32C52.19 106.06 52.41 105.83 52.67 105.65C52.93 105.47 53.23 105.34 53.54 105.28C53.85 105.21 54.16 105.21 54.48 105.27C54.79 105.32 55.08 105.44 55.35 105.61C55.61 105.78 55.84 106.01 56.02 106.27C56.2 106.53 56.33 106.82 56.39 107.13C56.46 107.44 56.46 107.76 56.41 108.07C56.35 108.38 56.23 108.67 56.06 108.94Z" fill="#FC6681" fill-opacity="1.000000" fill-rule="nonzero"/>
		<path id="Vector" d="M55.89 121.52C54.7 122.11 50.17 121.7 50.17 121.7C50.17 121.7 52.53 117.82 53.72 117.22C54 117.07 54.31 116.98 54.63 116.95C54.95 116.92 55.27 116.96 55.58 117.05C55.88 117.15 56.16 117.31 56.41 117.51C56.65 117.72 56.85 117.98 57 118.26C57.14 118.55 57.22 118.86 57.25 119.18C57.27 119.5 57.23 119.82 57.12 120.12C57.02 120.43 56.86 120.71 56.64 120.94C56.43 121.18 56.17 121.38 55.89 121.52Z" fill="#FC6681" fill-opacity="1.000000" fill-rule="nonzero"/>
		<path id="Vector" d="M53.61 131C52.54 131.79 48.01 132.14 48.01 132.14C48.01 132.14 49.68 127.92 50.74 127.13C50.99 126.92 51.28 126.77 51.6 126.67C51.91 126.58 52.24 126.56 52.56 126.6C52.89 126.64 53.2 126.74 53.48 126.91C53.76 127.07 54.01 127.29 54.2 127.55C54.39 127.82 54.53 128.12 54.61 128.43C54.68 128.75 54.69 129.08 54.64 129.4C54.58 129.72 54.46 130.03 54.28 130.3C54.1 130.57 53.87 130.81 53.6 130.99L53.61 131Z" fill="#FC6681" fill-opacity="1.000000" fill-rule="nonzero"/>
		<path id="Vector" d="M46.17 112.24C47.12 113.16 51.57 114.12 51.57 114.12C51.57 114.12 50.48 109.71 49.52 108.79C49.06 108.34 48.45 108.1 47.81 108.11C47.17 108.12 46.56 108.38 46.12 108.84C45.67 109.29 45.43 109.91 45.44 110.55C45.45 111.19 45.71 111.79 46.17 112.24L46.17 112.24Z" fill="#FC6681" fill-opacity="1.000000" fill-rule="nonzero"/>
		<path id="Vector" d="M43.65 123.37C44.84 123.97 49.36 123.55 49.36 123.55C49.36 123.55 47 119.67 45.82 119.07C45.25 118.78 44.59 118.73 43.98 118.93C43.38 119.13 42.87 119.57 42.59 120.14C42.3 120.71 42.25 121.37 42.45 121.97C42.65 122.58 43.08 123.08 43.65 123.37Z" fill="#FC6681" fill-opacity="1.000000" fill-rule="nonzero"/>
		<path id="Vector" d="M42.69 134.52C43.75 135.31 48.29 135.67 48.29 135.67C48.29 135.67 46.62 131.45 45.57 130.66C45.31 130.45 45.02 130.3 44.71 130.21C44.4 130.12 44.07 130.09 43.74 130.13C43.42 130.17 43.11 130.28 42.83 130.44C42.54 130.61 42.3 130.83 42.11 131.09C41.91 131.35 41.77 131.65 41.7 131.97C41.62 132.28 41.61 132.61 41.67 132.93C41.72 133.25 41.85 133.56 42.02 133.83C42.2 134.11 42.43 134.34 42.7 134.52L42.69 134.52Z" fill="#FC6681" fill-opacity="1.000000" fill-rule="nonzero"/>
		<path id="Vector" d="M41.71 140.55C41.71 140.55 45.6 139.77 46.64 138.75C47.67 137.72 52.34 135.91 52.86 137.2C53.38 138.49 59.86 142.86 55.45 143.64C51.05 144.41 45.08 144.67 43.79 144.15C42.49 143.64 41.71 140.55 41.71 140.55Z" fill="#A8A8A8" fill-opacity="1.000000" fill-rule="nonzero"/>
		<g opacity="0.200000">
			<path id="Vector" d="M55.45 143.16C51.04 143.93 45.08 144.19 43.79 143.67C42.8 143.28 42.11 141.4 41.84 140.52L41.71 140.55C41.71 140.55 42.49 143.64 43.79 144.15C45.08 144.67 51.04 144.41 55.45 143.64C56.72 143.41 57.09 142.89 56.95 142.23C56.84 142.66 56.4 142.99 55.45 143.16Z" fill="#000000" fill-opacity="1.000000" fill-rule="nonzero"/>
		</g>
		<g opacity="0.100000">
			<path id="Vector" d="M244.46 17.04L244.46 61.08C244.46 68.38 235.44 71.89 230.55 66.47L230.44 66.34C228.86 64.58 226.7 62.43 224.53 63.37C223.85 63.66 223.34 64.21 222.74 64.63C223.18 65.59 223.55 66.58 223.86 67.58C225.74 73.79 224.28 80.5 222.27 86.67C220.27 92.84 217.71 98.96 217.37 105.44C217.2 108.55 217.56 111.66 217.91 114.76C218.6 120.63 219.29 126.62 221.75 132C223.1 134.96 225 137.93 224.6 141.14C214.01 141.61 203.42 140.26 193.29 137.16C200.3 130.1 200.29 118.9 199.82 108.96C199.45 100.95 199.07 92.94 198.69 84.93C198.58 82.59 198.44 80.16 197.37 78.07C195.92 75.22 192.89 73.44 189.78 72.72C186.66 72.01 183.41 72.2 180.22 72.41C179.98 71.16 180.22 69.86 180.88 68.78C185.87 70.94 191.2 72.19 196.63 72.47C197.31 72.51 198.08 72.5 198.58 72.04C199.09 71.58 199.17 70.82 199.2 70.13C199.41 66.16 199.05 62.17 198.13 58.3C197.95 58.34 197.78 58.39 197.6 58.44C194.93 59.25 192.51 61.25 189.72 61.04C185.83 60.74 183.53 56.38 179.86 55.04C177.05 54.02 173.96 54.92 171.02 55.46C168.08 55.99 164.59 55.95 162.66 53.67C160.21 50.79 161.75 46.22 160.16 42.79C157.91 37.9 151.1 37.81 145.76 38.47C147.9 35.24 151.09 32.85 154.78 31.68C152.89 28.29 146.25 28.44 146.28 24.56C146.3 23.05 147.5 21.86 148.61 20.84L153.61 16.28L144.77 12.94C142.78 12.19 140.57 11.21 139.91 9.2C139.26 7.23 140.44 5.11 141.89 3.63L141.93 3.59C143.09 2.44 144.46 1.54 145.97 0.92C147.48 0.3 149.1 -0.01 150.73 0L227.41 0C231.93 0 236.27 1.8 239.46 4.99C242.66 8.19 244.46 12.52 244.46 17.04Z" fill="#F78065" fill-opacity="1.000000" fill-rule="nonzero"/>
		</g>
		<path id="Vector" d="M70.74 151.87C70.74 151.87 75.94 153.3 78.45 151.4C80.96 149.5 82.05 150.12 82.05 150.12C82.05 150.12 88.03 149.78 88.52 148.37C89.01 146.96 86.22 141.82 86.22 141.82C86.02 141.38 85.74 140.79 85.61 140.79L85.63 138.62L86.5 129.56C88.5 124.44 86.54 117.81 86.54 117.81L86.18 116.17C85.98 115.25 86.1 114.29 86.52 113.44L90.15 106.14C90.35 105.66 90.58 105.19 90.84 104.74C91.06 104.32 91.37 103.81 91.74 103.19C91.86 103.01 91.97 102.83 92.1 102.63C92.54 101.95 93.07 101.17 93.72 100.28C95.33 98.05 96.17 95.28 96.61 93.21L96.8 93.86L96.83 93.86L96.89 93.86L96.96 93.87L96.97 93.87L97.07 93.88L97.08 93.88L97.1 93.88L98.22 108.1C98.29 113.64 100.32 116.71 100.32 116.71L100.04 128.94C100.42 131.9 99.59 135.82 99.2 137.39L98.32 139.37C97.97 139.55 97.68 139.8 97.45 140.12C97.22 140.43 97.08 140.8 97.02 141.18C96.85 142.64 95.31 145.8 95.31 145.8C94.74 146.58 93.44 148.63 93.44 148.63C93.44 148.63 92.81 150.58 93.2 151.31C93.59 152.04 96.74 151.98 96.74 151.98C100.35 152.78 103.12 150.82 102.95 149.5C102.77 148.17 103.51 147.83 103.51 147.83C104.95 147.37 104.81 146.4 104.81 146.4C105.12 144.39 104.73 142.34 103.72 140.57L103.49 141.1C103.43 140.05 103.58 138.99 103.93 138C103.88 138.03 103.84 138.06 103.79 138.09L103.75 138.11L103.74 138.11C103.97 136.12 106.07 132.41 106.07 132.41C109.93 125.65 108.52 116.48 108.52 116.48L107.93 113.63L107.89 112.55C107.81 109.98 108 107.41 108.46 104.88C108.67 103.76 108.89 102.4 109.05 100.91C109.4 97.75 110.51 94.5 111.03 93.12L111.18 93.09L111.2 93.09L111.84 92.98L111.88 92.98C111.88 92.98 112 92.32 112.11 91.18C112.17 90.46 112.22 89.54 112.22 88.49C112.24 85.31 111.75 82.15 110.78 79.12L110.9 78.95C110.9 78.95 111.17 78.58 111.68 77.93C112.6 76.76 114.04 74.98 115.82 72.95C119 69.33 118.06 65.66 118.06 65.66C118.06 65.66 115.77 57.25 114.74 52.17C114.16 49.29 113.06 47.33 112.22 46.17C112.41 45.37 112.51 44.56 112.54 43.74C112.61 42.24 112.55 40.67 111.88 39.33C111.21 37.98 109.77 36.91 108.27 37.1C108.05 37.15 107.83 37.15 107.62 37.1C107.44 37.02 107.3 36.89 107.19 36.72C106.32 35.51 106.26 33.89 106.53 32.42C106.8 30.95 107.37 29.55 107.62 28.07C107.87 26.6 107.76 24.97 106.82 23.8C105.72 22.44 103.8 22.05 102.37 21.02C101.36 20.3 100.61 19.26 99.55 18.62C98.49 17.98 97.5 18.22 96.34 18.46C94.41 18.87 92.57 19.06 90.74 19.89C88.89 20.73 87.22 21.94 85.85 23.44C85.37 23.93 85 24.52 84.77 25.16C84.31 26.67 85.2 28.27 85.01 29.83C84.88 30.94 84.23 31.9 83.71 32.89C83.19 33.87 82.8 35.05 83.21 36.08C83.84 37.69 85.93 38.04 87.44 38.9C87.64 38.99 87.81 39.14 87.94 39.33C88.31 39.98 87.55 40.66 87.07 41.24C86.79 41.58 86.6 41.97 86.5 42.4C85.87 42.65 85.32 43.06 84.89 43.58C84.46 44.1 84.16 44.72 84.02 45.39C83.51 47.68 84.3 50.58 84.99 52.49C84.23 56.76 85.22 58.44 85.95 59.08C86.31 59.4 86.61 59.78 86.83 60.21C87.05 60.63 87.18 61.1 87.22 61.58L87.22 61.66C87.26 62.44 87.35 63.21 87.45 63.98C87.43 63.8 87.4 63.61 87.39 63.53C86.8 64.63 85.66 67.44 85.02 72.16C84.89 73.18 84.7 74.18 84.45 75.17C83.99 76.93 83.83 78.75 83.96 80.56L84.08 82.09C83.97 82.1 83.86 82.06 83.77 81.99L84.57 83.45L84.57 85.9C84.57 87.02 84.36 88.12 83.96 89.16C83.91 89.32 83.84 89.47 83.78 89.62C83.57 90.03 83.48 90.5 83.51 90.96C81.78 93.59 77.84 108.37 77.84 108.37C75.7 113.21 78.01 116.35 78.01 116.35C78.01 116.35 79.13 129.84 79.34 130.54C79.55 131.23 80.01 139.46 80.01 139.46C80.01 139.69 80.01 139.9 80.01 140.12C79.88 140.06 79.75 140.03 79.62 140C77.74 139.9 77.23 142.86 77.23 142.86L73.4 146.54C73.4 146.54 71.64 146.24 69.06 148.18C66.49 150.11 70.74 151.87 70.74 151.87ZM109.06 73.9L109.06 73.86L108.96 73.93L108.91 73.95L108.89 73.95L107.11 67.72C106.63 66.05 106.59 64.28 106.98 62.59L108.34 56.6L108.34 55.16L112.69 66.75C112.98 68.3 110.39 72.08 109.06 73.9Z" fill="url(#paint_linear_4_79_0)" fill-opacity="1.000000" fill-rule="nonzero"/>
		<path id="Vector" d="M110.96 92.74C110.96 92.74 109.21 97.01 108.76 101.11C108.6 102.59 108.39 103.92 108.19 105.03C107.73 107.53 107.54 110.07 107.63 112.61L107.66 113.68L108.24 116.5C108.24 116.5 109.62 125.56 105.84 132.23C105.84 132.23 103.6 136.23 103.53 138.12L102.01 138.71L98.95 137.85C98.95 137.85 100.43 132.54 99.95 128.83L100.22 116.74C100.22 116.74 98.23 113.71 98.16 108.24L96.99 93.24L110.96 92.74Z" fill="#FDC2CC" fill-opacity="1.000000" fill-rule="nonzero"/>
		<path id="Vector" d="M96.99 90.61C96.99 90.61 96.61 96.46 93.72 100.49C90.82 104.52 90.21 106.27 90.21 106.27L86.64 113.49C86.23 114.32 86.11 115.27 86.31 116.19L86.66 117.81C86.66 117.81 88.59 124.35 86.62 129.41L85.69 139.18L80.25 139.18C80.25 139.18 79.8 131.06 79.6 130.37C79.4 129.68 78.29 116.36 78.29 116.36C78.29 116.36 76.02 113.26 78.12 108.47C78.12 108.47 82.87 90.57 84.14 90.88C85.42 91.19 96.99 90.61 96.99 90.61Z" fill="#FDC2CC" fill-opacity="1.000000" fill-rule="nonzero"/>
		<g opacity="0.100000">
			<g opacity="0.100000">
				<path id="Vector" d="M86.11 117.81L85.76 116.19C85.56 115.27 85.68 114.32 86.09 113.49L89.65 106.27C89.65 106.27 90.27 104.52 93.17 100.49C95.94 96.63 96.4 91.06 96.43 90.64L96.99 90.61C96.99 90.61 96.61 96.46 93.72 100.49C90.82 104.52 90.21 106.27 90.21 106.27L86.64 113.49C86.23 114.32 86.11 115.27 86.31 116.19L86.66 117.81C86.66 117.81 88.59 124.35 86.62 129.41L85.69 139.18L85.14 139.18L86.07 129.41C88.03 124.35 86.11 117.81 86.11 117.81Z" fill="#000000" fill-opacity="1.000000" fill-rule="nonzero"/>
			</g>
		</g>
		<g opacity="0.100000">
			<path id="Vector" d="M102.98 138.12C103.04 136.23 105.28 132.23 105.28 132.23C109.07 125.56 107.69 116.5 107.69 116.5L107.11 113.68L107.07 112.61C106.99 110.07 107.18 107.53 107.64 105.03C107.84 103.92 108.05 102.59 108.21 101.11C108.64 97.17 110.28 93.06 110.41 92.76L110.96 92.74C110.96 92.74 109.21 97.01 108.76 101.11C108.6 102.59 108.39 103.92 108.19 105.03C107.73 107.53 107.54 110.07 107.63 112.61L107.66 113.68L108.24 116.5C108.24 116.5 109.62 125.56 105.84 132.23C105.84 132.23 103.6 136.23 103.53 138.12L102.01 138.71L101.7 138.63L102.98 138.12Z" fill="#000000" fill-opacity="1.000000" fill-rule="nonzero"/>
		</g>
		<path id="Vector" d="M101.22 138.05C101.63 138.22 102.08 138.28 102.52 138.22C102.96 138.17 103.38 138 103.74 137.74C103.24 139.21 103.17 140.78 103.54 142.29C104.16 144.77 97.75 140.29 97.75 140.29L99.13 137.17C99.13 137.17 99.64 138.16 101.22 138.05Z" fill="#D39999" fill-opacity="1.000000" fill-rule="nonzero"/>
		<g opacity="0.100000">
			<path id="Vector" d="M101.7 138.19C102.05 138.26 102.41 138.26 102.76 138.18C103.12 138.1 103.45 137.95 103.73 137.74C103.23 139.2 103.16 140.78 103.53 142.28C104.15 144.76 97.74 140.28 97.74 140.28L99.12 137.16C99.12 137.16 99.52 137.92 100.69 138.04C101.02 138.08 101.36 138.13 101.7 138.19Z" fill="#000000" fill-opacity="1.000000" fill-rule="nonzero"/>
		</g>
		<path id="Vector" d="M86.69 80.13L89.37 80.13L89.37 64.95L87.36 64.59L86.69 80.13Z" fill="#FDC2CC" fill-opacity="1.000000" fill-rule="nonzero"/>
		<g opacity="0.050000">
			<path id="Vector" d="M86.69 80.13L89.37 80.13L89.37 64.95L87.36 64.59L86.69 80.13Z" fill="#000000" fill-opacity="1.000000" fill-rule="nonzero"/>
		</g>
		<path id="Vector" d="M99.71 139.22C99.71 139.22 101.39 139.12 102.15 140.63L103.08 141.36L103.54 140.29C104.53 142.03 104.91 144.06 104.6 146.04C104.6 146.04 104.74 147 103.33 147.45C103.33 147.45 102.61 147.8 102.78 149.1C102.95 150.41 100.23 152.34 96.68 151.55C96.68 151.55 93.58 151.62 93.21 150.89C92.83 150.17 93.45 148.24 93.45 148.24C93.45 148.24 94.72 146.22 95.31 145.48C95.31 145.48 96.82 142.36 96.99 140.91C97.16 139.47 98.81 138.43 99.71 139.22Z" fill="#7E5659" fill-opacity="1.000000" fill-rule="nonzero"/>
		<path id="Vector" d="M85.75 140.5L85.77 138.36C85.77 138.36 82.69 139.24 80.2 138.24C80.2 138.24 80.41 140.39 80.06 140.69C79.72 140.98 81.22 143.75 81.22 143.75L82.89 145.51L85.77 144.46L86.55 142C86.55 142 85.95 140.5 85.75 140.5Z" fill="#D39999" fill-opacity="1.000000" fill-rule="nonzero"/>
		<g opacity="0.100000">
			<path id="Vector" d="M85.75 140.5L85.77 138.36C85.77 138.36 82.69 139.24 80.2 138.24C80.2 138.24 80.41 140.39 80.06 140.69C79.72 140.98 81.22 143.75 81.22 143.75L82.89 145.51L85.77 144.46L86.55 142C86.55 142 85.95 140.5 85.75 140.5Z" fill="#000000" fill-opacity="1.000000" fill-rule="nonzero"/>
		</g>
		<path id="Vector" d="M79.88 139.72C79.88 139.72 81.52 139.91 81.31 142C81.1 144.08 81.4 142 81.4 142C81.4 142 83.14 142.7 83.75 143.68C84.37 144.66 85.49 142.8 85.57 142.27C85.65 141.74 86.35 141.52 86.35 141.52C86.35 141.52 89.08 146.59 88.6 147.99C88.12 149.38 82.25 149.71 82.25 149.71C82.25 149.71 81.18 149.1 78.72 150.98C76.26 152.86 71.15 151.44 71.15 151.44C71.15 151.44 66.98 149.7 69.51 147.8C72.04 145.9 73.76 146.18 73.76 146.18L77.53 142.54C77.53 142.54 78.03 139.62 79.88 139.72Z" fill="#7E5659" fill-opacity="1.000000" fill-rule="nonzero"/>
		<path id="Vector" d="M99.43 19.83C100.47 20.46 101.21 21.49 102.19 22.2C103.6 23.22 105.48 23.59 106.57 24.95C107.47 26.1 107.59 27.71 107.35 29.17C107.1 30.62 106.55 32.01 106.28 33.46C106.02 34.91 106.07 36.52 106.94 37.71C107.03 37.87 107.18 38 107.35 38.08C107.56 38.13 107.78 38.13 107.99 38.08C109.46 37.9 110.87 38.95 111.53 40.28C112.19 41.61 112.25 43.15 112.18 44.64C112.12 45.85 111.99 47.09 111.45 48.19C110.54 50.04 108.64 51.19 106.77 52.07C105.56 52.65 104.31 53.15 103.04 53.58C102.16 53.88 101.24 54.15 100.33 53.99C98.77 53.72 97.67 52.31 96.19 51.75C94.98 51.3 93.64 51.46 92.35 51.57C91.25 51.67 90 51.67 89.24 50.87C88.27 49.84 88.71 48.17 89.2 46.85C88.68 46.81 88.17 46.64 87.74 46.33C87.31 46.03 86.97 45.61 86.76 45.13C86.55 44.65 86.48 44.11 86.55 43.59C86.63 43.07 86.84 42.58 87.18 42.17C87.65 41.6 88.4 40.93 88.03 40.29C87.91 40.1 87.74 39.95 87.54 39.86C86.05 39.01 84.01 38.67 83.39 37.08C82.98 36.05 83.37 34.9 83.88 33.92C84.39 32.95 85.03 32 85.16 30.91C85.34 29.37 84.48 27.78 84.92 26.3C85.14 25.66 85.51 25.08 85.98 24.6C87.33 23.11 88.96 21.92 90.78 21.09C92.58 20.27 94.38 20.08 96.28 19.68C97.41 19.44 98.35 19.18 99.43 19.83Z" fill="#865A61" fill-opacity="1.000000" fill-rule="nonzero"/>
		<path id="Vector" d="M89.37 42.78C89.37 42.78 85 42.55 84.18 46.27C83.35 49.98 85.97 55.31 85.97 55.31L89.37 42.78Z" fill="#FDC2CC" fill-opacity="1.000000" fill-rule="nonzero"/>
		<g opacity="0.050000">
			<path id="Vector" d="M89.37 42.78C89.37 42.78 85 42.55 84.18 46.27C83.35 49.98 85.97 55.31 85.97 55.31L89.37 42.78Z" fill="#000000" fill-opacity="1.000000" fill-rule="nonzero"/>
		</g>
		<path id="Vector" d="M86.59 53.84L88.24 55.15L95.95 55.49L100.77 52.19L105.66 43.78C102.67 43.02 101.46 40.95 101.01 39.01C100.72 37.7 100.69 36.35 100.91 35.03C100.91 35.03 93.06 30.96 94.02 37.3C94.16 38.08 94.18 38.87 94.1 39.66C93.64 43.37 90.04 42.67 90.04 42.67L88.65 44.81L87.06 50.03L86.59 53.84Z" fill="#FDC2CC" fill-opacity="1.000000" fill-rule="nonzero"/>
		<g opacity="0.100000">
			<path id="Vector" d="M94.02 37.31C94.16 38.09 94.18 38.89 94.1 39.67C95.21 40.18 96.43 40.39 97.64 40.27C98.86 40.16 100.02 39.73 101.02 39.02C100.73 37.71 100.7 36.36 100.92 35.04C100.92 35.04 93.06 30.98 94.02 37.31Z" fill="#000000" fill-opacity="1.000000" fill-rule="nonzero"/>
		</g>
		<path id="Vector" d="M103.95 33.07C103.95 36.91 100.83 40.02 96.99 40.02C93.15 40.02 90.04 36.91 90.04 33.07C90.04 29.23 93.15 26.11 96.99 26.11C100.83 26.11 103.95 29.23 103.95 33.07Z" fill="#FDC2CC" fill-opacity="1.000000" fill-rule="evenodd"/>
		<path id="Vector" d="M92.07 52.51C92.24 52.52 92.41 52.54 92.57 52.56C93.48 52.65 97.29 52.85 99.47 50.26C101.89 47.36 105.12 43.78 105.26 43.63L108.54 44.63C108.54 44.63 105.94 43.7 104.21 48.54C103.83 49.56 103.79 50.67 104.1 51.71C104.41 52.75 105.04 53.67 105.91 54.32C106.55 54.78 107.29 55.09 108.06 55.22C108.06 55.23 108.06 55.23 108.06 55.23C108.06 55.23 108.06 55.23 108.06 55.24L108.06 57.36L106.72 63.27C106.34 64.94 106.38 66.69 106.84 68.34L108.89 75.59C108.89 75.59 108.89 75.59 108.89 75.6C108.58 75.82 95.85 84.47 87.35 78.5C87.38 78.24 88.43 69.73 87.7 65.56C87.52 64.5 87.39 63.43 87.32 62.35C87.32 62.32 87.32 62.29 87.32 62.27C87.25 61.31 86.8 60.43 86.08 59.81C85.31 59.12 84.27 57.31 85.3 52.48C85.56 51.29 85.94 50.12 86.43 49.01L89.28 42.57C89.29 42.56 89.29 42.56 89.29 42.56C89.29 42.56 89.29 42.56 89.3 42.57L91.92 42.62L91.92 42.63C91.69 42.92 88.65 46.72 88.32 49.18C87.99 51.51 87.6 52.23 92.07 52.51Z" fill="#D39999" fill-opacity="1.000000" fill-rule="nonzero"/>
		<path id="Vector" d="M110.76 45.76C110.76 45.76 113.33 47.97 114.34 52.97C115.35 57.97 117.61 66.28 117.61 66.28C117.61 66.28 118.52 69.92 115.4 73.49C112.29 77.06 110.22 79.87 110.22 79.87L108.17 82.89C107.82 83.4 107.3 83.77 106.69 83.93C105.76 84.18 104.32 84.36 103.08 83.67C102.62 83.42 102.28 83.01 102.11 82.52C101.94 82.03 101.96 81.49 102.16 81.02L102.6 79.96C102.6 79.96 98.38 82.62 98.01 81.15C97.65 79.68 102.92 78.22 102.92 78.22C102.92 78.22 107.29 77.48 108.15 75.42C108.15 75.42 112.83 69.4 112.47 67.34L107.94 55.22C107.94 55.22 102.31 54.48 104.24 48.13C106.17 41.77 110.76 45.76 110.76 45.76Z" fill="#FDC2CC" fill-opacity="1.000000" fill-rule="nonzero"/>
		<path id="Vector" d="M83.72 91.48C83.72 91.48 94.05 93.55 96.48 93.27L96.74 94.14C96.74 94.14 100.67 95.02 109.53 93.62C110.11 93.52 110.71 93.42 111.33 93.31L111.54 93.27C111.54 93.27 111.66 92.62 111.76 91.5C111.98 88.95 112.05 84.03 110.26 79L108.77 74.4C108.77 74.4 99.56 79.93 93.46 79.42C92.92 79.37 92.37 79.33 91.83 79.31C90.58 79.26 88.65 79.31 87.38 78.3L84.74 78.75L84.74 86.29C84.73 87.39 84.53 88.48 84.14 89.51C84.08 89.66 84.02 89.81 83.96 89.96C83.73 90.45 83.59 91 83.72 91.48Z" fill="#7E5659" fill-opacity="1.000000" fill-rule="nonzero"/>
		<g opacity="0.100000">
			<path id="Vector" d="M96.74 91.81L96.74 94.15C96.74 94.15 101.26 95.16 111.54 93.28C111.54 93.28 111.66 92.62 111.77 91.5C108.6 92 99.9 93.22 96.74 91.81Z" fill="#000000" fill-opacity="1.000000" fill-rule="nonzero"/>
		</g>
		<g opacity="0.100000">
			<path id="Vector" d="M83.72 91.48C83.72 91.48 94.05 93.55 96.48 93.27L96.74 94.14L96.74 91.81C95.57 92.3 87.17 90.28 84.13 89.52C84.07 89.67 84.01 89.82 83.95 89.97C83.73 90.45 83.59 90.99 83.72 91.48Z" fill="#000000" fill-opacity="1.000000" fill-rule="nonzero"/>
		</g>
		<path id="Vector" d="M108.76 88.86L109.53 93.61C110.11 93.52 110.71 93.42 111.33 93.3C111.1 91.91 110.57 88.76 110.71 88.22L109.75 87.39L108.76 88.86Z" fill="#7E5659" fill-opacity="1.000000" fill-rule="nonzero"/>
		<g opacity="0.100000">
			<path id="Vector" d="M108.76 88.86L109.53 93.61C110.11 93.52 110.71 93.42 111.33 93.3C111.1 91.91 110.57 88.76 110.71 88.22L109.75 87.39L108.76 88.86Z" fill="#000000" fill-opacity="1.000000" fill-rule="nonzero"/>
		</g>
		<g opacity="0.050000">
			<g opacity="0.050000">
				<path id="Vector" d="M92.9 79.42C92.35 79.37 91.81 79.33 91.27 79.31C90.05 79.27 88.19 79.31 86.93 78.38L87.37 78.3C88.64 79.31 90.57 79.26 91.82 79.31C92.36 79.33 92.91 79.37 93.45 79.42C93.63 79.43 93.81 79.44 93.99 79.45C93.63 79.46 93.26 79.45 92.9 79.42Z" fill="#000000" fill-opacity="1.000000" fill-rule="nonzero"/>
			</g>
			<g opacity="0.050000">
				<path id="Vector" d="M108.97 93.62C109.55 93.52 110.15 93.42 110.78 93.31L110.98 93.27C110.98 93.27 111.1 92.62 111.21 91.49C111.42 88.95 111.5 84.03 109.71 79L108.3 74.68C108.6 74.51 108.76 74.41 108.76 74.41L110.25 79C112.04 84.04 111.96 88.96 111.75 91.5C111.66 92.62 111.52 93.28 111.52 93.28L111.32 93.31C110.69 93.43 110.09 93.53 109.51 93.62C105.37 94.28 102.31 94.44 100.22 94.42C103.16 94.37 106.08 94.1 108.97 93.62Z" fill="#000000" fill-opacity="1.000000" fill-rule="nonzero"/>
			</g>
			<g opacity="0.050000">
				<path id="Vector" d="M95.93 93.27L95.93 93.3L95.63 93.3C95.75 93.29 95.84 93.28 95.93 93.27Z" fill="#000000" fill-opacity="1.000000" fill-rule="nonzero"/>
			</g>
		</g>
		<path id="Vector" d="M110.44 88.96C110.44 89.4 110.26 89.76 110.05 89.76C109.83 89.76 109.66 89.4 109.66 88.96C109.66 88.51 109.83 88.15 110.05 88.15C110.26 88.15 110.44 88.51 110.44 88.96Z" fill="#D39999" fill-opacity="1.000000" fill-rule="evenodd"/>
		<path id="Vector" d="M85.17 72.71C85.8 68.04 86.91 65.26 87.49 64.17C87.52 64.32 87.58 64.8 87.6 64.95C87.72 65.63 87.62 66.5 87.65 67.36L87.07 77.95L87.85 81.25C88.59 83.87 85.87 81.8 85.87 81.8C85.3 83.05 84.28 82.91 84.28 82.91L84.13 81.01C84 79.22 84.16 77.43 84.61 75.69C84.85 74.71 85.04 73.71 85.17 72.71Z" fill="#FDC2CC" fill-opacity="1.000000" fill-rule="nonzero"/>
		<g opacity="0.050000">
			<path id="Vector" d="M85.17 72.71C85.8 68.04 86.91 65.26 87.49 64.17C87.52 64.32 87.58 64.8 87.6 64.95C87.72 65.63 87.62 66.5 87.65 67.36L87.07 77.95L87.85 81.25C88.59 83.87 85.87 81.8 85.87 81.8C85.3 83.05 84.28 82.91 84.28 82.91L84.13 81.01C84 79.22 84.16 77.43 84.61 75.69C84.85 74.71 85.04 73.71 85.17 72.71Z" fill="#000000" fill-opacity="1.000000" fill-rule="nonzero"/>
		</g>
		<path id="Vector" d="M111.33 78.4C110.84 79.04 110.56 79.41 110.56 79.41L108.52 82.43C108.17 82.95 107.65 83.32 107.04 83.47C106.11 83.72 104.67 83.9 103.43 83.22C102.97 82.97 102.63 82.56 102.46 82.07C102.29 81.57 102.31 81.04 102.51 80.56L102.96 79.5C102.96 79.5 98.74 82.17 98.37 80.7C98 79.23 103.28 77.76 103.28 77.76C103.28 77.76 107.64 77.03 108.51 74.96C108.51 74.96 108.89 74.47 109.42 73.72L111.33 78.4Z" fill="#FDC2CC" fill-opacity="1.000000" fill-rule="nonzero"/>
		<path id="Vector" d="M108.76 83.47C108.76 83.47 103.76 82.99 102.19 80.13L101.47 82.48C101.47 82.48 106.7 86.1 107.91 85.63L108.76 83.47Z" fill="#7E5659" fill-opacity="1.000000" fill-rule="nonzero"/>
		<g opacity="0.100000">
			<path id="Vector" d="M108.76 83.47C108.76 83.47 103.76 82.99 102.19 80.13L101.47 82.48C101.47 82.48 106.7 86.1 107.91 85.63L108.76 83.47Z" fill="#000000" fill-opacity="1.000000" fill-rule="nonzero"/>
		</g>
		<path id="Vector" d="M86.03 82.14C86.03 82.14 84.28 82.76 83.94 82.42L84.73 83.86L86.21 82.72L86.03 82.14Z" fill="#7E5659" fill-opacity="1.000000" fill-rule="nonzero"/>
		<g opacity="0.100000">
			<path id="Vector" d="M86.03 82.14C86.03 82.14 84.28 82.76 83.94 82.42L84.73 83.86L86.21 82.72L86.03 82.14Z" fill="#000000" fill-opacity="1.000000" fill-rule="nonzero"/>
		</g>
		<g opacity="0.100000">
			<path id="Vector" d="M96.74 91.8L96.74 88.78L96.02 91.88L96.74 91.8Z" fill="#000000" fill-opacity="1.000000" fill-rule="nonzero"/>
		</g>
		<g opacity="0.100000">
			<path id="Vector" d="M103.82 29.4C103.4 29.99 102.67 30.29 101.95 30.38C101.23 30.48 100.5 30.4 99.77 30.38C98.64 30.36 97.42 30.54 96.49 31.21C95.89 31.64 95.45 32.23 94.98 32.8C93.57 34.52 91.62 36.13 89.4 35.95C89.21 35.95 89.02 35.91 88.84 35.84C88.66 35.76 88.5 35.65 88.36 35.51C88.18 35.23 88.09 34.91 88.1 34.57C88 33.15 88.05 31.73 88.23 30.32C88.32 29.45 88.54 28.59 88.88 27.78C89.27 26.97 89.79 26.23 90.42 25.58C91.18 24.7 92.09 23.96 93.12 23.41C94.16 22.9 95.37 22.68 96.49 22.98C97.82 23.34 98.85 24.38 100.13 24.92C101.57 25.53 105.41 27.16 103.82 29.4Z" fill="#000000" fill-opacity="1.000000" fill-rule="nonzero"/>
		</g>
		<path id="Vector" d="M103.82 29.12C103.4 29.71 102.67 30.01 101.95 30.11C101.23 30.2 100.5 30.12 99.77 30.11C98.64 30.09 97.42 30.27 96.49 30.93C95.89 31.36 95.45 31.96 94.98 32.53C93.57 34.25 91.62 35.86 89.4 35.68C89.21 35.68 89.02 35.64 88.84 35.56C88.66 35.49 88.5 35.38 88.36 35.24C88.18 34.96 88.09 34.63 88.1 34.3C88 32.88 88.05 31.45 88.23 30.04C88.32 29.17 88.54 28.32 88.88 27.51C89.27 26.7 89.79 25.95 90.42 25.3C91.18 24.42 92.09 23.69 93.12 23.14C94.16 22.62 95.37 22.4 96.49 22.71C97.82 23.07 98.85 24.11 100.13 24.64C101.57 25.26 105.41 26.88 103.82 29.12Z" fill="#865A61" fill-opacity="1.000000" fill-rule="nonzero"/>
		<path id="Vector" d="M87.37 78.3L87.35 79.13L87.17 78.34L87.37 78.3Z" fill="#FDC2CC" fill-opacity="1.000000" fill-rule="nonzero"/>
		<g opacity="0.050000">
			<path id="Vector" d="M87.37 78.3L87.35 79.13L87.17 78.34L87.37 78.3Z" fill="#000000" fill-opacity="1.000000" fill-rule="nonzero"/>
		</g>
		<g opacity="0.050000">
			<g opacity="0.050000">
				<path id="Vector" d="M104.95 47.68C103.02 54.04 108.64 54.78 108.64 54.78L113.17 66.9C113.53 68.97 108.85 74.98 108.85 74.98C108.52 75.75 107.71 76.34 106.82 76.77C107.34 76.45 107.76 76 108.02 75.45C108.02 75.45 112.71 69.43 112.34 67.37L107.82 55.25C107.82 55.25 102.19 54.5 104.12 48.15C104.77 46.03 105.71 45.06 106.68 44.72C106.02 45.25 105.41 46.17 104.95 47.68Z" fill="#000000" fill-opacity="1.000000" fill-rule="nonzero"/>
			</g>
		</g>
		<g opacity="0.100000">
			<g opacity="0.100000">
				<path id="Vector" d="M105.04 53.46C105.3 53.78 105.61 54.07 105.95 54.32C106.59 54.78 107.32 55.09 108.1 55.23L108.1 55.46C107.4 55.31 106.73 55.01 106.15 54.59C105.72 54.28 105.34 53.89 105.04 53.46Z" fill="#000000" fill-opacity="1.000000" fill-rule="nonzero"/>
			</g>
			<g opacity="0.100000">
				<path id="Vector" d="M87.56 62.54C87.56 62.57 87.56 62.59 87.56 62.62C87.62 63.7 87.75 64.77 87.94 65.84C88.62 69.77 87.73 77.57 87.6 78.65C87.53 78.6 87.45 78.55 87.37 78.5C87.4 78.25 88.45 69.74 87.73 65.57C87.54 64.51 87.41 63.43 87.35 62.36C87.35 62.33 87.35 62.3 87.35 62.28C87.3 61.65 87.09 61.05 86.73 60.53C87.21 61.1 87.5 61.8 87.56 62.54Z" fill="#000000" fill-opacity="1.000000" fill-rule="nonzero"/>
			</g>
			<g opacity="0.100000">
				<path id="Vector" d="M91.75 42.88L89.52 42.83C89.52 42.83 89.52 42.83 89.52 42.83C89.52 42.83 89.52 42.83 89.51 42.83L86.66 49.28C86.17 50.39 85.79 51.55 85.53 52.75C84.7 56.64 85.22 58.59 85.85 59.54C85.14 58.7 84.4 56.79 85.32 52.47C85.58 51.28 85.96 50.11 86.46 49L89.31 42.56L91.93 42.61L91.93 42.63C91.93 42.66 91.85 42.75 91.75 42.88Z" fill="#000000" fill-opacity="1.000000" fill-rule="nonzero"/>
			</g>
			<g opacity="0.100000">
				<path id="Vector" d="M108.55 44.62L108.59 44.62L108.55 44.62Z" fill="#000000" fill-opacity="1.000000" fill-rule="nonzero"/>
			</g>
			<g opacity="0.100000">
				<path id="Vector" d="M107.73 44.59L105.51 43.91C105.38 44.06 102.14 47.64 99.72 50.54C97.55 53.13 93.74 52.92 92.83 52.83C92.66 52.82 92.49 52.8 92.33 52.79C89.83 52.63 88.85 52.34 88.53 51.71C89 52.16 90.02 52.39 92.12 52.52C92.29 52.53 92.45 52.54 92.62 52.56C93.53 52.65 97.34 52.85 99.51 50.26C101.94 47.36 105.17 43.78 105.3 43.63L108.55 44.62C108.28 44.55 108.01 44.54 107.73 44.59Z" fill="#000000" fill-opacity="1.000000" fill-rule="nonzero"/>
			</g>
		</g>
		<g opacity="0.100000">
			<path id="Vector" d="M81.29 143.03C81.29 143.03 78.14 143.89 77.53 142.55L81.29 143.03Z" fill="#000000" fill-opacity="1.000000" fill-rule="nonzero"/>
		</g>
		<g opacity="0.100000">
			<path id="Vector" d="M101.26 142.39C101.26 142.39 97.6 143.33 96.77 141.87L101.26 142.39Z" fill="#000000" fill-opacity="1.000000" fill-rule="nonzero"/>
		</g>
		<path id="Vector" d="M147.65 126.33C147.65 126.33 147.2 124.52 146.8 122.72C146.71 121.6 146.51 120.14 146.43 119.54L146.43 119.47C146.43 119.22 146.34 118.99 146.17 118.81C146.4 118.16 147.22 115.66 147.07 114.95C146.89 114.12 146.26 112.1 145.5 111.44C145.26 111.07 144.92 110.8 144.51 110.65C144.15 110.52 143.77 110.46 143.38 110.49C143 110.53 142.63 110.64 142.3 110.83L138.46 112.98C136.92 112.75 135.68 112.58 135.68 112.58C135.68 112.58 134.73 112.46 133.53 112.35C133.16 111.47 131.94 108.8 130.68 108.38C129.31 107.93 127.72 108.54 127.38 108.69L127.36 108.69L127.31 108.7C124.81 109.86 125.1 114.76 125.2 115.83C124.73 116.42 124.23 116.98 123.69 117.5C122.84 118.26 122.57 120.23 123.37 120.64C123.75 120.83 124.28 121.06 124.75 121.25C122.59 125.85 118.93 134.9 122.21 137.47C126.66 140.96 135.02 142.12 137.89 140.96C137.96 140.98 138.04 140.97 138.11 140.95C138.11 140.95 142.76 139.84 143.85 138.6C144.67 137.58 145.22 136.38 145.47 135.1C146.6 134.1 147.37 132.76 147.65 131.28C148.22 128.42 147.65 126.33 147.65 126.33ZM144.75 116.41L144.86 115.86L145.04 115.96C145.01 116.12 144.98 116.27 144.94 116.44L144.77 117.49L144.75 116.41ZM143.87 111.84C144.07 111.97 145.38 112.94 145.12 115.43C145.11 115.33 145.08 115.24 145.05 115.15C144.99 114.79 144.73 114.31 143.85 114.01C143.08 113.79 142.31 113.62 141.53 113.5C142.2 112.8 142.99 112.24 143.87 111.84ZM130.84 112.09C129.83 112.02 129.04 111.99 128.93 112.06L128.92 112.06C128.79 112.05 128.66 112.07 128.53 112.11C128.14 112.2 127.78 112.37 127.45 112.61C127.91 110.07 129.24 109.86 129.53 109.84C130.1 110.5 130.54 111.27 130.84 112.09ZM145.28 132.27C145.14 130.19 145.01 126.94 144.94 125.05L145.06 125.03C145.19 125.02 145.32 124.99 145.45 124.96C145.57 126.18 145.8 127.63 146.19 128.58C146.7 129.79 145.91 131.33 145.28 132.27Z" fill="url(#paint_linear_4_133_0)" fill-opacity="1.000000" fill-rule="nonzero"/>
		<path id="Vector" d="M144.42 115.28L141.83 114.48L139.04 115.48L138.84 117.24L140.22 118.13L142.41 118.06L144.34 117.15L144.67 115.48L144.42 115.28Z" fill="#CD939C" fill-opacity="1.000000" fill-rule="nonzero"/>
		<g opacity="0.200000">
			<path id="Vector" d="M144.42 115.28L141.83 114.48L139.04 115.48L138.84 117.24L140.22 118.13L142.41 118.06L144.34 117.15L144.67 115.48L144.42 115.28Z" fill="#000000" fill-opacity="1.000000" fill-rule="nonzero"/>
		</g>
		<path id="Vector" d="M125.47 116.14C125.47 116.14 124.76 110.08 127.56 108.85C127.56 108.85 129.06 108.92 129.71 110C129.71 110 127.67 109.89 127.5 114.14L125.47 116.14Z" fill="#F6C6CD" fill-opacity="1.000000" fill-rule="nonzero"/>
		<g opacity="0.100000">
			<path id="Vector" d="M125.47 116.14C125.47 116.14 124.76 110.08 127.56 108.85C127.56 108.85 129.06 108.92 129.71 110C129.71 110 127.67 109.89 127.5 114.14L125.47 116.14Z" fill="#000000" fill-opacity="1.000000" fill-rule="nonzero"/>
		</g>
		<path id="Vector" d="M126.98 113.97C126.98 113.97 124.82 116.85 123.98 117.61C123.15 118.36 122.89 120.31 123.67 120.72C124.45 121.12 125.94 121.7 125.94 121.7L126.98 113.97Z" fill="#CD939C" fill-opacity="1.000000" fill-rule="nonzero"/>
		<g opacity="0.050000">
			<path id="Vector" d="M126.98 113.97C126.98 113.97 124.82 116.85 123.98 117.61C123.15 118.36 122.89 120.31 123.67 120.72C124.45 121.12 125.94 121.7 125.94 121.7L126.98 113.97Z" fill="#000000" fill-opacity="1.000000" fill-rule="nonzero"/>
		</g>
		<path id="Vector" d="M133.67 112.76C133.67 112.76 132.26 109.05 130.78 108.55C129.3 108.04 127.5 108.88 127.5 108.88C127.5 108.88 129.68 108.65 131.02 112.47L133.67 112.76Z" fill="#F6C6CD" fill-opacity="1.000000" fill-rule="nonzero"/>
		<path id="Vector" d="M145.8 119.05C145.8 119.05 146.9 115.89 146.72 115.06C146.55 114.24 145.93 112.24 145.2 111.58C144.47 110.92 143.59 111.96 143.59 111.96C143.59 111.96 145.47 113.09 144.65 116.53L144.41 118.06L145.8 119.05Z" fill="#F6C6CD" fill-opacity="1.000000" fill-rule="nonzero"/>
		<g opacity="0.100000">
			<path id="Vector" d="M145.8 119.05C145.8 119.05 146.9 115.89 146.72 115.06C146.55 114.24 145.93 112.24 145.2 111.58C144.47 110.92 143.59 111.96 143.59 111.96C143.59 111.96 145.47 113.09 144.65 116.53L144.41 118.06L145.8 119.05Z" fill="#000000" fill-opacity="1.000000" fill-rule="nonzero"/>
		</g>
		<path id="Vector" d="M137.79 113.44L142.08 110.98C142.41 110.8 142.77 110.68 143.14 110.65C143.51 110.62 143.88 110.67 144.23 110.81C144.63 110.96 144.97 111.23 145.2 111.58C145.2 111.58 143.13 111.47 140.82 114.17L137.79 113.44Z" fill="#F6C6CD" fill-opacity="1.000000" fill-rule="nonzero"/>
		<path id="Vector" d="M144.99 122.78C144.99 122.78 145.1 126.69 145.87 128.58C146.64 130.46 144.34 133.1 144.34 133.1L144.76 135.38C144.76 135.38 146.74 134.11 147.29 131.27C147.85 128.43 147.29 126.36 147.29 126.36C147.29 126.36 145.7 119.98 145.93 119.3C146.16 118.61 144.99 122.78 144.99 122.78Z" fill="#F6C6CD" fill-opacity="1.000000" fill-rule="nonzero"/>
		<g opacity="0.100000">
			<path id="Vector" d="M144.99 122.78C144.99 122.78 145.1 126.69 145.87 128.58C146.64 130.46 144.34 133.1 144.34 133.1L144.76 135.38C144.76 135.38 146.74 134.11 147.29 131.27C147.85 128.43 147.29 126.36 147.29 126.36C147.29 126.36 145.7 119.98 145.93 119.3C146.16 118.61 144.99 122.78 144.99 122.78Z" fill="#000000" fill-opacity="1.000000" fill-rule="nonzero"/>
		</g>
		<path id="Vector" d="M144.45 115.9C144.45 115.9 144.8 117.9 140.73 117.02L138 140.83C138 140.83 142.52 139.74 143.58 138.51C144.64 137.28 145.42 134.94 145.17 134.1C144.92 133.25 144.6 123.58 144.6 123.58L144.45 115.9Z" fill="#CD939C" fill-opacity="1.000000" fill-rule="nonzero"/>
		<path id="Vector" d="M126.34 118.61C126.34 118.61 118.2 133.93 122.54 137.39C126.88 140.86 135 142.01 137.79 140.86C137.79 140.86 139.08 141.2 138.89 137.17C138.69 133.14 140.38 121.9 140.38 121.9L126.34 118.61Z" fill="#CD939C" fill-opacity="1.000000" fill-rule="nonzero"/>
		<path id="Vector" d="M126.61 119.29C126.61 119.29 118.97 133.69 123.03 136.95C127.1 140.2 134.75 141.28 137.37 140.2C137.37 140.2 138.58 140.52 138.4 136.74C138.22 132.95 139.81 122.38 139.81 122.38L126.61 119.29Z" fill="#F6C6CD" fill-opacity="1.000000" fill-rule="nonzero"/>
		<g opacity="0.100000">
			<path id="Vector" d="M144.28 125.22C143.97 125.45 142.18 124.9 142.18 124.9C140.24 124.77 140.93 121.44 141.28 120.11C141.37 119.78 141.44 119.58 141.44 119.58C142.35 120.73 143.96 120.24 143.96 120.24C143.96 120.24 144.01 120.61 144.07 121.15C144.24 122.55 144.5 125.06 144.28 125.22Z" fill="#000000" fill-opacity="1.000000" fill-rule="nonzero"/>
		</g>
		<path id="Vector" d="M144.34 125.11C144.02 125.34 142.24 124.8 142.24 124.8C140.3 124.66 140.99 121.33 141.34 120.01C141.43 119.68 141.49 119.47 141.49 119.47C142.4 120.62 144.02 120.13 144.02 120.13C144.02 120.13 144.07 120.5 144.13 121.04C144.3 122.43 144.56 124.95 144.34 125.11Z" fill="#F6C6CD" fill-opacity="1.000000" fill-rule="nonzero"/>
		<g opacity="0.050000">
			<path id="Vector" d="M144.34 125.19C144.02 125.42 142.24 124.88 142.24 124.88C140.3 124.74 140.99 121.41 141.34 120.09C141.43 119.76 141.49 119.55 141.49 119.55C142.4 120.71 144.02 120.21 144.02 120.21C144.02 120.21 144.07 120.58 144.13 121.12C144.3 122.52 144.56 125.03 144.34 125.19Z" fill="#000000" fill-opacity="1.000000" fill-rule="nonzero"/>
		</g>
		<g opacity="0.100000">
			<path id="Vector" d="M144.13 121.04C143.25 120.93 141.9 120.29 141.34 120.01C141.43 119.68 141.49 119.47 141.49 119.47C142.4 120.62 144.02 120.13 144.02 120.13C144.02 120.13 144.07 120.5 144.13 121.04Z" fill="#000000" fill-opacity="1.000000" fill-rule="nonzero"/>
		</g>
		<path id="Vector" d="M143.27 119.99C143.27 119.99 141.07 125.72 144.77 125.06C144.77 125.06 146.5 124.88 146.5 123.56C146.49 122.25 146.06 119.35 146.06 119.35L143.27 119.99Z" fill="#F6C6CD" fill-opacity="1.000000" fill-rule="nonzero"/>
		<g opacity="0.100000">
			<path id="Vector" d="M141.63 118.56C141.63 118.56 140.51 123.2 144.09 121.48C147.67 119.76 145.38 118.56 145.38 118.56L143.67 117.45L141.63 118.56Z" fill="#000000" fill-opacity="1.000000" fill-rule="nonzero"/>
		</g>
		<path id="Vector" d="M141.63 118.51C141.63 118.51 140.51 123.14 144.09 121.42C147.67 119.7 145.38 118.51 145.38 118.51L143.67 117.39L141.63 118.51Z" fill="#CD939C" fill-opacity="1.000000" fill-rule="nonzero"/>
		<g opacity="0.100000">
			<path id="Vector" d="M142.32 117.86C142.32 117.86 141.29 118.13 141.82 119.15C142.06 119.6 142.17 120.12 142.14 120.63C142.13 120.8 142.18 120.97 142.29 121.1C142.39 121.24 142.54 121.33 142.71 121.36C143.07 121.42 143.6 121.33 144.26 120.75C144.26 120.75 145.59 120.26 145.48 119.62C145.38 118.97 143.21 117.53 143.21 117.53L142.32 117.86Z" fill="#000000" fill-opacity="1.000000" fill-rule="nonzero"/>
		</g>
		<path id="Vector" d="M142.32 117.8C142.32 117.8 141.29 118.08 141.82 119.09C142.06 119.55 142.17 120.06 142.14 120.58C142.13 120.75 142.18 120.91 142.29 121.05C142.39 121.18 142.54 121.27 142.71 121.3C143.07 121.36 143.6 121.27 144.26 120.7C144.26 120.7 145.59 120.2 145.48 119.56C145.38 118.92 143.21 117.47 143.21 117.47L142.32 117.8Z" fill="#F6C6CD" fill-opacity="1.000000" fill-rule="nonzero"/>
		<g opacity="0.100000">
			<path id="Vector" d="M144.37 119.45C144.37 119.82 144.07 120.13 143.7 120.13C143.32 120.13 143.02 119.82 143.02 119.45C143.02 119.08 143.32 118.78 143.7 118.78C144.07 118.78 144.37 119.08 144.37 119.45Z" fill="#000000" fill-opacity="1.000000" fill-rule="evenodd"/>
		</g>
		<path id="Vector" d="M144.37 119.39C144.37 119.77 144.07 120.07 143.7 120.07C143.32 120.07 143.02 119.77 143.02 119.39C143.02 119.02 143.32 118.72 143.7 118.72C144.07 118.72 144.37 119.02 144.37 119.39Z" fill="#CD939C" fill-opacity="1.000000" fill-rule="evenodd"/>
		<g opacity="0.100000">
			<path id="Vector" d="M135.45 112.91C135.45 112.91 129.02 112.12 128.69 112.36C128.69 112.36 125.28 112.94 125.28 119.31C125.28 119.31 125.21 122.96 132.24 124.72C132.24 124.72 137.88 125.21 139.72 122.98C141.57 120.74 140.65 116.98 140.65 116.98C140.65 116.98 141.39 114.11 144.8 116.09C144.8 116.09 145.15 114.96 143.61 114.41C142.07 113.87 135.45 112.91 135.45 112.91Z" fill="#000000" fill-opacity="1.000000" fill-rule="nonzero"/>
		</g>
		<path id="Vector" d="M135.45 112.8C135.45 112.8 129.02 112 128.69 112.25C128.69 112.25 125.28 112.83 125.28 119.19C125.28 119.19 125.21 122.85 132.24 124.61C132.24 124.61 137.88 125.1 139.72 122.86C141.57 120.63 140.65 116.87 140.65 116.87C140.65 116.87 141.39 113.99 144.8 115.98C144.8 115.98 145.15 114.84 143.61 114.3C142.07 113.75 135.45 112.8 135.45 112.8Z" fill="#CD939C" fill-opacity="1.000000" fill-rule="nonzero"/>
		<g opacity="0.100000">
			<path id="Vector" d="M135.64 112.82C135.64 112.82 129.4 112.07 129.08 112.3C129.08 112.3 125.77 112.85 125.77 118.84C125.77 118.84 125.7 122.28 132.53 123.93C132.53 123.93 138.02 124.39 139.81 122.29C141.6 120.2 140.72 116.65 140.72 116.65C140.72 116.65 141.43 113.94 144.74 115.81C144.74 115.81 145.09 114.75 143.61 114.22C142.12 113.7 135.64 112.82 135.64 112.82Z" fill="#000000" fill-opacity="1.000000" fill-rule="nonzero"/>
		</g>
		<path id="Vector" d="M135.64 112.76C135.64 112.76 129.4 112.01 129.08 112.24C129.08 112.24 125.77 112.79 125.77 118.78C125.77 118.78 125.7 122.22 132.53 123.87C132.53 123.87 138.02 124.33 139.81 122.23C141.6 120.14 140.72 116.59 140.72 116.59C140.72 116.59 141.43 113.89 144.74 115.76C144.74 115.76 145.09 114.69 143.61 114.16C142.12 113.64 135.64 112.76 135.64 112.76Z" fill="#F6C6CD" fill-opacity="1.000000" fill-rule="nonzero"/>
		<path id="Vector" d="M132.5 122.61C132.5 122.61 130.81 121.83 130.72 123.29C130.72 123.29 130.14 124.76 130.12 124.93C130.09 125.1 130.2 126.6 131.53 126.54C131.89 126.53 132.25 126.43 132.57 126.24C132.88 126.05 133.14 125.77 133.31 125.45C133.31 125.45 133.6 123.84 133.99 123.49C134.39 123.15 133.7 122.81 133.45 122.81C133.13 122.77 132.81 122.7 132.5 122.61Z" fill="#CD939C" fill-opacity="1.000000" fill-rule="nonzero"/>
		<g opacity="0.100000">
			<path id="Vector" d="M132.28 122.38C132.28 122.38 130.58 121.6 130.49 123.06C130.49 123.06 129.92 124.53 129.89 124.7C129.86 124.87 129.97 126.37 131.3 126.31C131.67 126.3 132.03 126.2 132.34 126.01C132.65 125.81 132.91 125.54 133.08 125.21C133.08 125.21 133.37 123.6 133.76 123.26C134.16 122.91 133.48 122.58 133.22 122.58C132.9 122.54 132.58 122.47 132.28 122.38Z" fill="#000000" fill-opacity="1.000000" fill-rule="nonzero"/>
		</g>
		<path id="Vector" d="M132.33 122.32C132.33 122.32 130.63 121.54 130.55 123C130.55 123 129.97 124.47 129.94 124.64C129.91 124.81 130.03 126.31 131.35 126.26C131.72 126.25 132.08 126.15 132.4 125.95C132.71 125.76 132.97 125.48 133.14 125.16C133.14 125.16 133.43 123.55 133.82 123.2C134.21 122.86 133.53 122.52 133.27 122.52C132.95 122.48 132.64 122.41 132.33 122.32Z" fill="#F6C6CD" fill-opacity="1.000000" fill-rule="nonzero"/>
		<g opacity="0.100000">
			<path id="Vector" d="M132.1 125.17C132.1 125.51 131.82 125.79 131.48 125.79C131.14 125.79 130.87 125.51 130.87 125.17C130.87 124.83 131.14 124.56 131.48 124.56C131.82 124.56 132.1 124.83 132.1 125.17Z" fill="#000000" fill-opacity="1.000000" fill-rule="evenodd"/>
		</g>
		<path id="Vector" d="M132.1 125.12C132.1 125.46 131.82 125.73 131.48 125.73C131.14 125.73 130.87 125.46 130.87 125.12C130.87 124.78 131.14 124.5 131.48 124.5C131.82 124.5 132.1 124.78 132.1 125.12Z" fill="#CD939C" fill-opacity="1.000000" fill-rule="evenodd"/>
		<path id="Vector" d="M137.24 128.48C137.24 128.48 130.55 127.7 125.88 125.3C125.88 125.3 122.19 134.58 125.13 135.88C128.07 137.18 134.17 139.26 135.88 138.55C135.88 138.55 136.9 138.71 136.56 135.33C136.22 131.95 137.24 128.48 137.24 128.48Z" fill="#CD939C" fill-opacity="1.000000" fill-rule="nonzero"/>
		<g opacity="0.100000">
			<path id="Vector" d="M136.84 129.14C136.84 129.14 130.14 128.41 125.48 126.15C125.48 126.15 121.79 134.88 124.73 136.11C127.66 137.33 133.76 139.29 135.48 138.61C135.48 138.61 136.5 138.77 136.16 135.58C135.82 132.4 136.84 129.14 136.84 129.14Z" fill="#000000" fill-opacity="1.000000" fill-rule="nonzero"/>
		</g>
		<path id="Vector" d="M136.95 129.08C136.95 129.08 130.26 128.35 125.59 126.09C125.59 126.09 121.91 134.83 124.84 136.05C127.78 137.27 133.88 139.23 135.59 138.55C135.59 138.55 136.61 138.71 136.28 135.53C135.94 132.35 136.95 129.08 136.95 129.08Z" fill="#F6C6CD" fill-opacity="1.000000" fill-rule="nonzero"/>
		<g opacity="0.100000">
			<g opacity="0.100000">
				<path id="Vector" d="M143.59 114.13C142.09 113.61 135.63 112.72 135.63 112.72C135.63 112.72 129.39 111.97 129.07 112.2C129.07 112.2 127.46 112.46 126.48 114.66C127.46 112.69 128.96 112.44 128.96 112.44C129.27 112.21 135.52 112.96 135.52 112.96C135.52 112.96 141.97 113.85 143.47 114.37C144.48 114.72 144.65 115.31 144.66 115.67L144.74 115.71C144.74 115.71 145.09 114.64 143.59 114.13Z" fill="#000000" fill-opacity="1.000000" fill-rule="nonzero"/>
			</g>
			<g opacity="0.100000">
				<path id="Vector" d="M140.77 116.38C140.69 116.51 140.64 116.65 140.6 116.79C140.6 116.79 141.23 119.31 140.33 121.38C141.39 119.28 140.7 116.54 140.7 116.54C140.7 116.54 140.73 116.48 140.77 116.38Z" fill="#000000" fill-opacity="1.000000" fill-rule="nonzero"/>
			</g>
		</g>
	</g>
</svg>
