<svg width="222.819580" height="180.000000" viewBox="0 0 222.82 180" fill="none" xmlns="http://www.w3.org/2000/svg" xmlns:xlink="http://www.w3.org/1999/xlink">
	<desc>
			Created with Pixso.
	</desc>
	<defs>
		<clipPath id="clip4_217">
			<rect id="undraw_tourist_map_re_293e 1" width="222.819626" height="180.000000" fill="white" fill-opacity="0"/>
		</clipPath>
	</defs>
	<rect id="undraw_tourist_map_re_293e 1" width="222.819626" height="180.000000" fill="#FFFFFF" fill-opacity="0"/>
	<g clip-path="url(#clip4_217)">
		<path id="Vector" d="M38.72 122.27L38.01 122.27C37.92 122.27 37.83 122.23 37.76 122.17C37.69 122.1 37.65 122.01 37.65 121.92L37.65 121.21C37.65 121.11 37.69 121.02 37.76 120.96C37.83 120.89 37.92 120.85 38.01 120.85L38.72 120.85C38.81 120.85 38.9 120.89 38.97 120.96C39.03 121.02 39.07 121.11 39.07 121.21L39.07 121.92C39.07 122.01 39.03 122.1 38.97 122.17C38.9 122.23 38.81 122.27 38.72 122.27Z" fill="#CCCCCC" fill-opacity="1.000000" fill-rule="nonzero"/>
		<path id="Vector" d="M38.38 121.49C38.36 121.49 38.35 121.49 38.34 121.49C38.31 121.48 38.28 121.47 38.25 121.45C38.22 121.44 38.2 121.41 38.18 121.39C38.17 121.36 38.15 121.33 38.15 121.3C38.14 121.27 38.14 121.24 38.14 121.21L40.48 107.62C40.49 107.56 40.53 107.5 40.58 107.47C40.63 107.43 40.69 107.42 40.75 107.43C40.81 107.44 40.87 107.47 40.9 107.52C40.94 107.57 40.96 107.64 40.95 107.7L38.61 121.29C38.6 121.35 38.57 121.4 38.53 121.43C38.49 121.47 38.43 121.49 38.38 121.49Z" fill="#CCCCCC" fill-opacity="1.000000" fill-rule="nonzero"/>
		<path id="Vector" d="M38.38 121.49C38.32 121.49 38.27 121.47 38.22 121.43C38.18 121.4 38.15 121.35 38.14 121.29L35.81 107.7C35.8 107.64 35.81 107.57 35.85 107.52C35.88 107.47 35.94 107.44 36 107.43C36.06 107.42 36.12 107.43 36.18 107.47C36.23 107.5 36.26 107.56 36.27 107.62L38.61 121.21C38.61 121.24 38.61 121.27 38.61 121.3C38.6 121.33 38.59 121.36 38.57 121.39C38.55 121.41 38.53 121.44 38.5 121.45C38.48 121.47 38.45 121.48 38.42 121.49C38.4 121.49 38.39 121.49 38.38 121.49Z" fill="#CCCCCC" fill-opacity="1.000000" fill-rule="nonzero"/>
		<path id="Vector" d="M43.41 105.29C43.63 103.68 42.77 102.22 41.48 102.04C40.19 101.86 38.96 103.02 38.73 104.63C38.54 105.99 39.12 107.24 40.09 107.7L40.03 108.09L41.2 108.26L41.25 107.87C42.31 107.69 43.21 106.65 43.41 105.29Z" fill="#FF6584" fill-opacity="1.000000" fill-rule="nonzero"/>
		<path id="Vector" d="M37.98 104.56C37.7 102.95 36.43 101.83 35.15 102.06C33.86 102.28 33.05 103.76 33.33 105.37C33.57 106.72 34.5 107.73 35.56 107.87L35.63 108.26L36.79 108.06L36.73 107.67C37.67 107.17 38.22 105.91 37.98 104.56Z" fill="#CCCCCC" fill-opacity="1.000000" fill-rule="nonzero"/>
		<path id="Vector" d="M38.36 121.21C38.3 121.21 38.24 121.18 38.2 121.14C38.15 121.09 38.13 121.03 38.13 120.97L38.13 107C38.13 106.96 38.13 106.93 38.14 106.9C38.16 106.88 38.17 106.85 38.2 106.83C38.22 106.8 38.24 106.79 38.27 106.77C38.3 106.76 38.33 106.76 38.36 106.76C38.39 106.76 38.43 106.76 38.45 106.77C38.48 106.79 38.51 106.8 38.53 106.83C38.55 106.85 38.57 106.88 38.58 106.9C38.59 106.93 38.6 106.96 38.6 107L38.6 120.97C38.6 121.03 38.57 121.09 38.53 121.14C38.49 121.18 38.43 121.21 38.36 121.21Z" fill="#CCCCCC" fill-opacity="1.000000" fill-rule="nonzero"/>
		<path id="Vector" d="M40.58 104.31C40.58 102.68 39.52 101.36 38.22 101.36C36.91 101.36 35.86 102.68 35.86 104.31C35.86 105.68 36.61 106.84 37.63 107.16L37.63 107.56L38.81 107.56L38.81 107.16C39.82 106.84 40.58 105.68 40.58 104.31Z" fill="#F78065" fill-opacity="1.000000" fill-rule="nonzero"/>
		<path id="Vector" d="M148.37 180L148.32 179.99L74.44 173.13L7.25 179.37C6.33 179.45 5.4 179.35 4.53 179.05C3.65 178.76 2.85 178.29 2.16 177.66C1.48 177.04 0.93 176.28 0.56 175.44C0.19 174.59 -0.01 173.68 -0.01 172.75L-0.01 12.96C-0.01 11.31 0.6 9.71 1.72 8.48C2.84 7.26 4.37 6.5 6.02 6.35L74.44 0L74.49 0L148.37 6.86L215.56 0.62C216.48 0.54 217.41 0.64 218.28 0.94C219.16 1.23 219.96 1.7 220.65 2.33C221.33 2.95 221.88 3.71 222.25 4.55C222.62 5.4 222.81 6.31 222.81 7.24L222.81 167.03C222.82 168.68 222.21 170.28 221.09 171.51C219.97 172.73 218.44 173.49 216.79 173.64L148.37 180ZM74.44 172.1L74.49 172.11L148.37 178.97L216.69 172.62C218.09 172.5 219.39 171.85 220.33 170.82C221.28 169.78 221.8 168.43 221.79 167.03L221.79 7.24C221.79 6.45 221.63 5.68 221.31 4.97C221 4.25 220.54 3.61 219.96 3.08C219.38 2.55 218.7 2.15 217.96 1.91C217.22 1.66 216.43 1.57 215.65 1.64L148.37 7.89L148.32 7.88L74.44 1.02L6.12 7.37L6.07 6.86L6.12 7.37C4.72 7.49 3.42 8.14 2.48 9.17C1.53 10.21 1.01 11.56 1.02 12.96L1.02 172.75C1.02 173.54 1.18 174.31 1.5 175.03C1.81 175.74 2.27 176.38 2.85 176.91C3.43 177.44 4.11 177.84 4.85 178.08C5.59 178.33 6.38 178.42 7.16 178.35L74.44 172.1Z" fill="#E6E6E6" fill-opacity="1.000000" fill-rule="nonzero"/>
		<path id="Vector" d="M212.88 40.89C212.88 36.35 209.2 25.56 204.65 25.56C200.1 25.56 196.42 36.35 196.42 40.89C196.42 43.07 197.29 45.17 198.83 46.71C200.37 48.25 202.47 49.12 204.65 49.12C206.83 49.12 208.93 48.25 210.47 46.71C212.01 45.17 212.88 43.07 212.88 40.89Z" fill="#3F3D56" fill-opacity="1.000000" fill-rule="nonzero"/>
		<path id="Vector" d="M204.65 59.12C204.63 59.12 204.6 59.11 204.58 59.09C204.57 59.08 204.56 59.05 204.56 59.03L204.56 39.81C204.56 39.78 204.57 39.76 204.58 39.74C204.6 39.72 204.63 39.71 204.65 39.71C204.68 39.71 204.7 39.72 204.72 39.74C204.73 39.76 204.74 39.78 204.74 39.81L204.74 59.03C204.74 59.04 204.74 59.05 204.74 59.06C204.73 59.07 204.73 59.09 204.72 59.09C204.71 59.1 204.7 59.11 204.69 59.11C204.67 59.12 204.66 59.12 204.65 59.12Z" fill="#CCCCCC" fill-opacity="1.000000" fill-rule="nonzero"/>
		<path id="Vector" d="M204.65 43.4C204.64 43.4 204.62 43.4 204.61 43.39C204.6 43.39 204.59 43.38 204.58 43.37L199.84 37.91C199.83 37.89 199.82 37.86 199.82 37.84C199.82 37.81 199.84 37.79 199.85 37.77C199.87 37.76 199.9 37.75 199.92 37.75C199.95 37.75 199.97 37.76 199.99 37.78L204.72 43.24C204.73 43.26 204.74 43.27 204.74 43.29C204.75 43.31 204.74 43.33 204.74 43.34C204.73 43.36 204.72 43.37 204.7 43.38C204.69 43.39 204.67 43.4 204.65 43.4L204.65 43.4Z" fill="#CCCCCC" fill-opacity="1.000000" fill-rule="nonzero"/>
		<path id="Vector" d="M204.65 46.55C204.63 46.55 204.61 46.54 204.6 46.53C204.58 46.52 204.57 46.51 204.56 46.49C204.56 46.48 204.55 46.46 204.56 46.44C204.56 46.42 204.57 46.4 204.58 46.39L207.27 43.7C207.28 43.69 207.29 43.68 207.3 43.68C207.32 43.67 207.33 43.67 207.34 43.67C207.35 43.67 207.37 43.67 207.38 43.68C207.39 43.68 207.4 43.69 207.41 43.7C207.42 43.71 207.42 43.72 207.43 43.73C207.43 43.74 207.43 43.75 207.43 43.77C207.43 43.78 207.43 43.79 207.43 43.8C207.42 43.81 207.42 43.82 207.41 43.83L204.72 46.52C204.71 46.53 204.7 46.54 204.69 46.54C204.67 46.55 204.66 46.55 204.65 46.55Z" fill="#CCCCCC" fill-opacity="1.000000" fill-rule="nonzero"/>
		<path id="Vector" d="M195.73 59C195.73 58.09 196.1 57.21 196.74 56.57C197.38 55.92 198.26 55.56 199.17 55.56C200.08 55.56 200.96 55.92 201.6 56.57C202.25 57.21 202.61 58.09 202.61 59L195.73 59Z" fill="#F2F2F2" fill-opacity="1.000000" fill-rule="nonzero"/>
		<path id="Vector" d="M199.17 59C199.15 59 199.12 58.99 199.1 58.97C199.09 58.95 199.08 58.93 199.08 58.9L199.08 57.09C199.08 57.07 199.09 57.04 199.1 57.03C199.12 57.01 199.15 57 199.17 57C199.19 57 199.22 57.01 199.24 57.03C199.25 57.04 199.26 57.07 199.26 57.09L199.26 58.9C199.26 58.93 199.25 58.95 199.24 58.97C199.22 58.99 199.19 59 199.17 59Z" fill="#CCCCCC" fill-opacity="1.000000" fill-rule="nonzero"/>
		<path id="Vector" d="M199.17 58.37C199.15 58.37 199.13 58.37 199.11 58.35L198 57.4C197.99 57.39 197.98 57.38 197.97 57.37C197.97 57.36 197.96 57.34 197.96 57.33C197.96 57.32 197.96 57.31 197.97 57.3C197.97 57.28 197.98 57.27 197.99 57.26C197.99 57.25 198 57.25 198.01 57.24C198.02 57.24 198.04 57.23 198.05 57.23C198.06 57.23 198.07 57.23 198.08 57.24C198.1 57.24 198.11 57.25 198.12 57.25L199.23 58.21C199.25 58.22 199.26 58.24 199.26 58.26C199.27 58.28 199.26 58.3 199.26 58.31C199.25 58.33 199.24 58.35 199.22 58.36C199.21 58.37 199.19 58.37 199.17 58.37L199.17 58.37Z" fill="#CCCCCC" fill-opacity="1.000000" fill-rule="nonzero"/>
		<path id="Vector" d="M206.32 59C206.32 58.09 206.69 57.21 207.33 56.57C207.97 55.92 208.85 55.56 209.76 55.56C210.67 55.56 211.55 55.92 212.19 56.57C212.84 57.21 213.2 58.09 213.2 59L206.32 59Z" fill="#F2F2F2" fill-opacity="1.000000" fill-rule="nonzero"/>
		<path id="Vector" d="M209.76 59C209.74 59 209.71 58.99 209.69 58.97C209.68 58.95 209.67 58.93 209.67 58.9L209.67 57.09C209.67 57.07 209.68 57.04 209.69 57.03C209.71 57.01 209.74 57 209.76 57C209.78 57 209.81 57.01 209.83 57.03C209.84 57.04 209.85 57.07 209.85 57.09L209.85 58.9C209.85 58.93 209.84 58.95 209.83 58.97C209.81 58.99 209.78 59 209.76 59Z" fill="#CCCCCC" fill-opacity="1.000000" fill-rule="nonzero"/>
		<path id="Vector" d="M209.76 58.37C209.74 58.37 209.72 58.37 209.7 58.35L208.58 57.4C208.57 57.38 208.55 57.36 208.55 57.33C208.55 57.31 208.56 57.28 208.58 57.26C208.59 57.25 208.61 57.23 208.64 57.23C208.66 57.23 208.69 57.24 208.71 57.25L209.82 58.21C209.84 58.22 209.85 58.24 209.85 58.26C209.85 58.28 209.85 58.3 209.85 58.31C209.84 58.33 209.83 58.35 209.81 58.36C209.8 58.37 209.78 58.37 209.76 58.37L209.76 58.37Z" fill="#CCCCCC" fill-opacity="1.000000" fill-rule="nonzero"/>
		<path id="Vector" d="M104.59 27.88C106.85 24.64 109.59 15.14 106.35 12.88C103.12 10.62 95.14 16.46 92.88 19.69C91.8 21.25 91.37 23.17 91.7 25.03C92.04 26.9 93.09 28.55 94.65 29.64C96.2 30.72 98.12 31.15 99.99 30.82C101.85 30.49 103.51 29.43 104.59 27.88Z" fill="#F2F2F2" fill-opacity="1.000000" fill-rule="nonzero"/>
		<path id="Vector" d="M89.68 36.75C89.66 36.74 89.65 36.72 89.64 36.7C89.64 36.68 89.64 36.66 89.66 36.64L99.21 22.97C99.22 22.95 99.24 22.94 99.26 22.93C99.28 22.93 99.3 22.94 99.32 22.95C99.34 22.96 99.35 22.98 99.36 23C99.36 23.02 99.35 23.04 99.34 23.06L89.79 36.73C89.78 36.75 89.76 36.76 89.74 36.77C89.72 36.77 89.7 36.77 89.68 36.75Z" fill="#CCCCCC" fill-opacity="1.000000" fill-rule="nonzero"/>
		<path id="Vector" d="M97.49 25.57C97.48 25.56 97.47 25.55 97.47 25.54C97.46 25.53 97.46 25.52 97.46 25.51L96.8 19.27C96.8 19.25 96.81 19.23 96.82 19.21C96.83 19.2 96.85 19.19 96.87 19.18C96.9 19.18 96.92 19.19 96.93 19.2C96.95 19.22 96.96 19.24 96.96 19.26L97.62 25.49C97.62 25.51 97.62 25.53 97.61 25.54C97.6 25.55 97.59 25.56 97.58 25.57C97.57 25.58 97.55 25.58 97.53 25.58C97.52 25.58 97.5 25.58 97.49 25.57L97.49 25.57Z" fill="#CCCCCC" fill-opacity="1.000000" fill-rule="nonzero"/>
		<path id="Vector" d="M95.92 27.81C95.91 27.8 95.9 27.79 95.9 27.77C95.89 27.76 95.89 27.74 95.89 27.73C95.89 27.71 95.9 27.7 95.91 27.69C95.93 27.67 95.94 27.67 95.96 27.66L99.21 27.09C99.22 27.09 99.23 27.09 99.24 27.09C99.25 27.09 99.26 27.09 99.27 27.1C99.28 27.11 99.29 27.11 99.29 27.12C99.3 27.13 99.3 27.14 99.3 27.15C99.3 27.16 99.3 27.17 99.3 27.19C99.3 27.2 99.3 27.21 99.29 27.21C99.28 27.22 99.28 27.23 99.27 27.24C99.26 27.24 99.25 27.25 99.24 27.25L95.99 27.82C95.98 27.83 95.96 27.83 95.95 27.82C95.94 27.82 95.93 27.82 95.92 27.81Z" fill="#CCCCCC" fill-opacity="1.000000" fill-rule="nonzero"/>
		<path id="Vector" d="M83.4 32.23C83.85 31.59 84.54 31.15 85.32 31.01C86.1 30.87 86.9 31.05 87.55 31.5C88.19 31.95 88.63 32.65 88.77 33.42C88.91 34.2 88.74 35 88.29 35.65L83.4 32.23Z" fill="#F2F2F2" fill-opacity="1.000000" fill-rule="nonzero"/>
		<path id="Vector" d="M85.84 33.94C85.82 33.93 85.81 33.91 85.81 33.89C85.8 33.87 85.81 33.85 85.82 33.83L86.72 32.54C86.73 32.52 86.75 32.51 86.77 32.51C86.79 32.5 86.82 32.51 86.83 32.52C86.85 32.53 86.86 32.55 86.87 32.57C86.87 32.59 86.87 32.62 86.85 32.63L85.95 33.92C85.94 33.94 85.92 33.95 85.9 33.95C85.88 33.96 85.86 33.95 85.84 33.94Z" fill="#CCCCCC" fill-opacity="1.000000" fill-rule="nonzero"/>
		<path id="Vector" d="M86.15 33.5C86.13 33.49 86.12 33.47 86.12 33.45L85.8 32.22C85.8 32.21 85.8 32.2 85.8 32.19C85.8 32.18 85.8 32.17 85.81 32.16C85.82 32.15 85.82 32.14 85.83 32.13C85.84 32.13 85.85 32.12 85.86 32.12C85.87 32.12 85.88 32.12 85.89 32.12C85.9 32.12 85.91 32.12 85.92 32.13C85.93 32.13 85.94 32.14 85.94 32.15C85.95 32.16 85.96 32.17 85.96 32.18L86.28 33.41C86.28 33.43 86.28 33.45 86.27 33.46C86.27 33.48 86.26 33.49 86.24 33.5C86.23 33.51 86.21 33.51 86.2 33.51C86.18 33.51 86.16 33.51 86.15 33.5Z" fill="#CCCCCC" fill-opacity="1.000000" fill-rule="nonzero"/>
		<path id="Vector" d="M90.93 37.5C91.15 37.17 91.44 36.9 91.77 36.69C92.1 36.48 92.47 36.33 92.85 36.26C93.24 36.19 93.64 36.2 94.02 36.29C94.4 36.37 94.76 36.53 95.09 36.75C95.41 36.98 95.68 37.26 95.89 37.59C96.1 37.93 96.25 38.29 96.32 38.68C96.38 39.07 96.37 39.46 96.29 39.85C96.2 40.23 96.04 40.59 95.82 40.91L90.93 37.5Z" fill="#F2F2F2" fill-opacity="1.000000" fill-rule="nonzero"/>
		<path id="Vector" d="M93.37 39.2C93.36 39.19 93.34 39.17 93.34 39.15C93.34 39.13 93.34 39.11 93.35 39.09L94.25 37.8C94.27 37.79 94.29 37.77 94.31 37.77C94.33 37.77 94.35 37.77 94.37 37.78C94.38 37.8 94.4 37.81 94.4 37.84C94.4 37.86 94.4 37.88 94.39 37.9L93.49 39.18C93.47 39.2 93.46 39.21 93.43 39.22C93.41 39.22 93.39 39.22 93.37 39.2Z" fill="#CCCCCC" fill-opacity="1.000000" fill-rule="nonzero"/>
		<path id="Vector" d="M93.68 38.76C93.67 38.75 93.66 38.73 93.65 38.72L93.33 37.48C93.33 37.46 93.33 37.44 93.34 37.42C93.35 37.4 93.37 37.39 93.39 37.38C93.41 37.38 93.43 37.38 93.45 37.39C93.47 37.4 93.48 37.42 93.49 37.44L93.81 38.68C93.81 38.69 93.81 38.71 93.81 38.72C93.8 38.74 93.79 38.75 93.78 38.76C93.76 38.77 93.75 38.78 93.73 38.78C93.71 38.78 93.7 38.77 93.68 38.76Z" fill="#CCCCCC" fill-opacity="1.000000" fill-rule="nonzero"/>
		<path id="Vector" d="M150.92 98.38C152.74 100.05 154.54 101.73 156.34 103.42C155.88 103.45 155.4 103.47 154.91 103.48C154.22 103.51 153.49 103.52 152.74 103.52C144.44 103.52 140.23 102.15 136.16 100.84C132.3 99.59 128.65 98.41 121.16 98.41C113.67 98.41 110.02 99.59 106.16 100.84C102.09 102.15 97.88 103.52 89.58 103.52C81.29 103.52 77.08 102.15 73.01 100.84C69.23 99.61 65.66 98.46 58.52 98.41C58.35 98.41 58.18 98.41 58.01 98.41L58.01 93.3C58.18 93.3 58.35 93.3 58.52 93.3C66.48 93.35 70.6 94.69 74.58 95.97C78.44 97.23 82.09 98.41 89.58 98.41C97.07 98.41 100.72 97.23 104.59 95.97C108.66 94.66 112.86 93.3 121.16 93.3C129.46 93.3 133.67 94.66 137.74 95.97C140.96 97.02 144.04 98.02 149.34 98.31C149.84 98.34 150.37 98.37 150.92 98.38Z" fill="#F78065" fill-opacity="1.000000" fill-rule="nonzero"/>
		<path id="Vector" d="M215.9 98.41L215.9 103.52C207.6 103.52 203.39 102.15 199.32 100.84C195.46 99.59 191.81 98.41 184.32 98.41C176.83 98.41 173.18 99.59 169.31 100.84C169.11 100.91 168.89 100.97 168.68 101.04C168.32 101.16 167.95 101.28 167.58 101.39C166.17 100.01 164.75 98.64 163.33 97.28C163.73 97.18 164.11 97.08 164.49 96.98C165.61 96.66 166.67 96.32 167.74 95.97C171.81 94.66 176.02 93.3 184.32 93.3C192.62 93.3 196.83 94.66 200.9 95.97C204.76 97.23 208.41 98.41 215.9 98.41Z" fill="#F78065" fill-opacity="1.000000" fill-rule="nonzero"/>
		<path id="Vector" d="M102.99 59.11C88.69 48.69 73.64 38.82 58.27 29.75L57.49 29.3L57.49 60.03L104.26 60.03L102.99 59.11ZM58.52 59.01L58.52 31.09C73.14 39.74 87.46 49.13 101.12 59.01L58.52 59.01ZM175.37 122.27C169.19 115.84 162.84 109.56 156.34 103.42C154.54 101.73 152.74 100.05 150.92 98.38C139.84 88.2 128.4 78.52 116.59 69.34L116.45 69.23L57.49 69.23L57.49 123.14L176.21 123.14L175.37 122.27ZM58.52 122.12L58.52 70.25L116.1 70.25C127.49 79.11 138.56 88.46 149.34 98.31C151.21 100.02 153.06 101.75 154.91 103.48C161.36 109.54 167.65 115.76 173.8 122.12L58.52 122.12ZM6.91 132.34L6.91 133.36L47.27 133.36L47.27 148.18L6.91 148.18L6.91 149.2L48.3 149.2L48.3 132.34L6.91 132.34ZM57.49 158.4L57.49 168.75L58.52 168.66L58.52 159.42L215.9 159.42L215.9 158.4L57.49 158.4ZM215.9 133.36L215.9 132.34L57.49 132.34L57.49 149.2L215.9 149.2L215.9 148.18L58.52 148.18L58.52 133.36L215.9 133.36ZM120.46 59.01C100.85 43.89 80.15 30.25 58.52 18.2L58.52 7.85L57.49 7.95L57.49 18.37L58.28 19.24C79.83 31.25 100.45 44.85 119.97 59.93L120.11 60.03L215.9 60.03L215.9 59.01L120.46 59.01ZM47.27 59.01L6.91 59.01L6.91 60.03L48.3 60.03L48.3 8.8L47.27 8.89L47.27 59.01ZM215.9 69.23L131.69 69.23L132.79 70.14C143.16 78.67 153.34 87.71 163.33 97.28C164.75 98.64 166.17 100.01 167.58 101.39C174.6 108.25 181.48 115.33 188.23 122.64L189.07 123.14L215.9 123.14L215.9 122.12L189.14 122.12C182.46 114.88 175.64 107.86 168.68 101.04C167.29 99.68 165.89 98.32 164.49 96.98C154.71 87.6 144.73 78.69 134.54 70.25L215.9 70.25L215.9 69.23ZM6.91 158.4L6.91 159.42L47.27 159.42L47.27 169.7L48.3 169.61L48.3 158.4L6.91 158.4ZM6.91 69.23L6.91 70.25L47.27 70.25L47.27 122.12L6.91 122.12L6.91 123.14L48.3 123.14L48.3 69.23L6.91 69.23Z" fill="#3F3D56" fill-opacity="1.000000" fill-rule="nonzero"/>
		<path id="Vector" d="M129.72 93.86C129.72 89.36 133.37 78.68 137.87 78.68C142.37 78.68 146.01 89.36 146.01 93.86C146.01 96.02 145.15 98.09 143.63 99.62C142.1 101.15 140.03 102.01 137.87 102.01C135.7 102.01 133.63 101.15 132.1 99.62C130.58 98.09 129.72 96.02 129.72 93.86Z" fill="#F2F2F2" fill-opacity="1.000000" fill-rule="nonzero"/>
		<path id="Vector" d="M137.87 113.68C137.86 113.68 137.85 113.68 137.84 113.68C137.83 113.67 137.82 113.67 137.82 113.66C137.81 113.66 137.81 113.65 137.8 113.64C137.8 113.63 137.8 113.63 137.8 113.62L137.8 85.53C137.8 85.51 137.81 85.49 137.82 85.48C137.83 85.47 137.85 85.46 137.87 85.46C137.88 85.46 137.9 85.47 137.91 85.48C137.92 85.49 137.93 85.51 137.93 85.53L137.93 113.62C137.93 113.63 137.93 113.63 137.93 113.64C137.92 113.65 137.92 113.66 137.91 113.66C137.91 113.67 137.9 113.67 137.89 113.68C137.88 113.68 137.87 113.68 137.87 113.68Z" fill="#3F3D56" fill-opacity="1.000000" fill-rule="nonzero"/>
		<path id="Vector" d="M137.87 90.95C137.86 90.95 137.85 90.95 137.84 90.94C137.83 90.94 137.82 90.94 137.82 90.93L134.59 87.71C134.59 87.7 134.58 87.69 134.58 87.68C134.58 87.68 134.57 87.67 134.57 87.66C134.57 87.65 134.58 87.64 134.58 87.63C134.58 87.62 134.59 87.62 134.59 87.61C134.6 87.6 134.61 87.6 134.62 87.6C134.62 87.59 134.63 87.59 134.64 87.59C134.65 87.59 134.66 87.59 134.67 87.6C134.67 87.6 134.68 87.6 134.69 87.61L137.91 90.84C137.92 90.84 137.93 90.86 137.93 90.87C137.93 90.88 137.93 90.9 137.93 90.91C137.92 90.92 137.91 90.93 137.9 90.94C137.89 90.95 137.88 90.95 137.87 90.95Z" fill="#3F3D56" fill-opacity="1.000000" fill-rule="nonzero"/>
		<path id="Vector" d="M137.87 96.53C137.85 96.53 137.84 96.53 137.83 96.52C137.82 96.51 137.81 96.5 137.8 96.49C137.8 96.48 137.8 96.47 137.8 96.45C137.8 96.44 137.81 96.43 137.82 96.42L143.22 91.02C143.22 91.01 143.23 91.01 143.24 91C143.25 91 143.26 91 143.27 91C143.27 91 143.28 91 143.29 91C143.3 91.01 143.31 91.01 143.31 91.02C143.32 91.02 143.32 91.03 143.33 91.04C143.33 91.05 143.33 91.06 143.33 91.06C143.33 91.07 143.33 91.08 143.33 91.09C143.32 91.1 143.32 91.11 143.31 91.11L137.91 96.51C137.91 96.52 137.9 96.52 137.89 96.53C137.88 96.53 137.87 96.53 137.87 96.53Z" fill="#3F3D56" fill-opacity="1.000000" fill-rule="nonzero"/>
		<path id="Vector" d="M175.4 70.87C175.4 66.37 179.05 55.69 183.55 55.69C188.05 55.69 191.69 66.37 191.69 70.87C191.69 73.03 190.83 75.1 189.31 76.63C187.78 78.15 185.71 79.01 183.55 79.01C181.39 79.01 179.32 78.15 177.79 76.63C176.26 75.1 175.4 73.03 175.4 70.87Z" fill="#F78065" fill-opacity="1.000000" fill-rule="nonzero"/>
		<path id="Vector" d="M183.55 90.69C183.54 90.69 183.53 90.69 183.52 90.68C183.51 90.68 183.51 90.68 183.5 90.67C183.49 90.66 183.49 90.66 183.49 90.65C183.48 90.64 183.48 90.63 183.48 90.62L183.48 62.53C183.48 62.52 183.49 62.5 183.5 62.49C183.51 62.47 183.53 62.47 183.55 62.47C183.57 62.47 183.58 62.47 183.59 62.49C183.61 62.5 183.61 62.52 183.61 62.53L183.61 90.62C183.61 90.63 183.61 90.64 183.61 90.65C183.61 90.66 183.6 90.66 183.59 90.67C183.59 90.68 183.58 90.68 183.57 90.68C183.56 90.69 183.56 90.69 183.55 90.69Z" fill="#3F3D56" fill-opacity="1.000000" fill-rule="nonzero"/>
		<path id="Vector" d="M183.55 67.96C183.54 67.96 183.53 67.95 183.52 67.95C183.51 67.95 183.51 67.94 183.5 67.94L180.28 64.71C180.26 64.7 180.26 64.68 180.26 64.66C180.26 64.65 180.26 64.63 180.28 64.62C180.29 64.6 180.31 64.6 180.32 64.6C180.34 64.6 180.36 64.6 180.37 64.62L183.59 67.84C183.6 67.85 183.61 67.86 183.61 67.88C183.62 67.89 183.61 67.9 183.61 67.91C183.6 67.93 183.6 67.94 183.58 67.94C183.57 67.95 183.56 67.96 183.55 67.96L183.55 67.96Z" fill="#3F3D56" fill-opacity="1.000000" fill-rule="nonzero"/>
		<path id="Vector" d="M183.55 73.54C183.53 73.54 183.52 73.53 183.51 73.53C183.5 73.52 183.49 73.51 183.49 73.5C183.48 73.48 183.48 73.47 183.48 73.46C183.48 73.45 183.49 73.43 183.5 73.42L188.9 68.02C188.91 68.01 188.93 68 188.95 68C188.97 68 188.98 68.01 188.99 68.02C189.01 68.04 189.01 68.05 189.01 68.07C189.01 68.09 189.01 68.11 189 68.12L183.59 73.52C183.59 73.52 183.58 73.53 183.57 73.53C183.56 73.54 183.56 73.54 183.55 73.54Z" fill="#3F3D56" fill-opacity="1.000000" fill-rule="nonzero"/>
		<path id="Vector" d="M75.37 73.17C75.37 68.67 79.02 57.99 83.52 57.99C88.02 57.99 91.67 68.67 91.67 73.17C91.67 75.33 90.81 77.4 89.28 78.93C87.75 80.46 85.68 81.31 83.52 81.31C81.36 81.31 79.29 80.46 77.76 78.93C76.23 77.4 75.37 75.33 75.37 73.17Z" fill="#F78065" fill-opacity="1.000000" fill-rule="nonzero"/>
		<path id="Vector" d="M83.52 92.99C83.51 92.99 83.5 92.99 83.5 92.98C83.49 92.98 83.48 92.97 83.47 92.97C83.47 92.96 83.46 92.96 83.46 92.95C83.46 92.94 83.45 92.93 83.45 92.92L83.45 64.83C83.45 64.81 83.46 64.8 83.47 64.79C83.49 64.77 83.5 64.77 83.52 64.77C83.54 64.77 83.56 64.77 83.57 64.79C83.58 64.8 83.59 64.81 83.59 64.83L83.59 92.92C83.59 92.93 83.59 92.94 83.58 92.95C83.58 92.96 83.57 92.96 83.57 92.97C83.56 92.97 83.55 92.98 83.55 92.98C83.54 92.99 83.53 92.99 83.52 92.99Z" fill="#3F3D56" fill-opacity="1.000000" fill-rule="nonzero"/>
		<path id="Vector" d="M83.52 70.26C83.51 70.26 83.5 70.25 83.5 70.25C83.49 70.25 83.48 70.24 83.47 70.24L80.25 67.01C80.24 67 80.24 67 80.23 66.99C80.23 66.98 80.23 66.97 80.23 66.96C80.23 66.95 80.23 66.95 80.23 66.94C80.24 66.93 80.24 66.92 80.25 66.92C80.26 66.91 80.26 66.91 80.27 66.9C80.28 66.9 80.29 66.9 80.3 66.9C80.31 66.9 80.31 66.9 80.32 66.9C80.33 66.91 80.34 66.91 80.34 66.92L83.57 70.14C83.58 70.15 83.58 70.16 83.59 70.18C83.59 70.19 83.59 70.2 83.58 70.21C83.58 70.23 83.57 70.24 83.56 70.24C83.55 70.25 83.53 70.26 83.52 70.26Z" fill="#3F3D56" fill-opacity="1.000000" fill-rule="nonzero"/>
		<path id="Vector" d="M83.52 75.84C83.51 75.84 83.49 75.83 83.48 75.83C83.47 75.82 83.46 75.81 83.46 75.8C83.45 75.78 83.45 75.77 83.46 75.76C83.46 75.74 83.46 75.73 83.47 75.72L88.87 70.32C88.89 70.31 88.9 70.3 88.92 70.3C88.94 70.3 88.96 70.31 88.97 70.32C88.98 70.34 88.99 70.35 88.99 70.37C88.99 70.39 88.98 70.41 88.97 70.42L83.57 75.82C83.56 75.82 83.55 75.83 83.55 75.83C83.54 75.84 83.53 75.84 83.52 75.84Z" fill="#3F3D56" fill-opacity="1.000000" fill-rule="nonzero"/>
		<path id="Vector" d="M150.54 50.72C145.91 50.72 141.39 49.35 137.54 46.78C133.7 44.21 130.7 40.55 128.92 36.28C127.16 32 126.69 27.3 127.59 22.76C128.5 18.22 130.73 14.05 134 10.78C137.27 7.51 141.44 5.28 145.98 4.38C150.52 3.47 155.22 3.94 159.49 5.71C163.77 7.48 167.42 10.48 169.99 14.33C172.57 18.17 173.94 22.7 173.94 27.32C173.93 33.53 171.46 39.47 167.08 43.86C162.69 48.25 156.74 50.71 150.54 50.72ZM150.54 4.24C145.98 4.24 141.51 5.6 137.72 8.13C133.92 10.67 130.96 14.27 129.22 18.49C127.47 22.71 127.01 27.35 127.9 31.83C128.79 36.3 130.99 40.42 134.22 43.65C137.45 46.87 141.56 49.07 146.04 49.96C150.52 50.85 155.16 50.4 159.37 48.65C163.59 46.9 167.2 43.94 169.73 40.15C172.27 36.35 173.62 31.89 173.62 27.32C173.62 21.2 171.18 15.34 166.86 11.01C162.53 6.68 156.66 4.25 150.54 4.24L150.54 4.24Z" fill="#CCCCCC" fill-opacity="1.000000" fill-rule="nonzero"/>
		<path id="Vector" d="M150.54 25.6C150.5 25.6 150.46 25.58 150.43 25.55C150.4 25.52 150.38 25.48 150.38 25.44L150.38 4.08C150.38 4.04 150.4 4 150.43 3.97C150.46 3.94 150.5 3.93 150.54 3.93C150.58 3.93 150.62 3.94 150.65 3.97C150.68 4 150.7 4.04 150.7 4.08L150.7 25.44C150.7 25.48 150.68 25.52 150.65 25.55C150.62 25.58 150.58 25.6 150.54 25.6Z" fill="#CCCCCC" fill-opacity="1.000000" fill-rule="nonzero"/>
		<path id="Vector" d="M173.78 27.48L152.42 27.48C152.38 27.48 152.34 27.46 152.31 27.43C152.28 27.41 152.27 27.37 152.27 27.32C152.27 27.28 152.28 27.24 152.31 27.21C152.34 27.18 152.38 27.17 152.42 27.17L173.78 27.17C173.82 27.17 173.86 27.18 173.89 27.21C173.92 27.24 173.94 27.28 173.94 27.32C173.94 27.37 173.92 27.41 173.89 27.43C173.86 27.46 173.82 27.48 173.78 27.48Z" fill="#CCCCCC" fill-opacity="1.000000" fill-rule="nonzero"/>
		<path id="Vector" d="M148.66 27.48L127.31 27.48C127.27 27.48 127.23 27.46 127.2 27.43C127.17 27.41 127.15 27.37 127.15 27.32C127.15 27.28 127.17 27.24 127.2 27.21C127.23 27.18 127.27 27.17 127.31 27.17L148.66 27.17C148.7 27.17 148.74 27.18 148.77 27.21C148.8 27.24 148.81 27.28 148.81 27.32C148.81 27.37 148.8 27.41 148.77 27.43C148.74 27.46 148.7 27.48 148.66 27.48Z" fill="#CCCCCC" fill-opacity="1.000000" fill-rule="nonzero"/>
		<path id="Vector" d="M150.54 50.72C150.5 50.72 150.46 50.7 150.43 50.67C150.4 50.64 150.38 50.6 150.38 50.56L150.38 29.21C150.38 29.17 150.4 29.13 150.43 29.1C150.46 29.07 150.5 29.05 150.54 29.05C150.58 29.05 150.62 29.07 150.65 29.1C150.68 29.13 150.7 29.17 150.7 29.21L150.7 50.56C150.7 50.6 150.68 50.64 150.65 50.67C150.62 50.7 150.58 50.72 150.54 50.72Z" fill="#CCCCCC" fill-opacity="1.000000" fill-rule="nonzero"/>
		<path id="Vector" d="M151.92 26.2C151.89 26.2 151.86 26.2 151.84 26.18C151.81 26.16 151.79 26.14 151.78 26.11C151.77 26.08 151.77 26.05 151.77 26.02C151.78 25.99 151.79 25.96 151.81 25.94L166.85 10.9C166.88 10.87 166.92 10.86 166.96 10.86C167 10.86 167.04 10.87 167.07 10.9C167.1 10.93 167.12 10.97 167.12 11.01C167.12 11.06 167.1 11.1 167.07 11.12L152.04 26.16C152.02 26.17 152 26.18 151.99 26.19C151.97 26.2 151.95 26.2 151.92 26.2Z" fill="#CCCCCC" fill-opacity="1.000000" fill-rule="nonzero"/>
		<path id="Vector" d="M149.16 26.2C149.14 26.2 149.12 26.2 149.1 26.19C149.08 26.18 149.06 26.17 149.05 26.16L134.01 11.12C133.98 11.1 133.97 11.06 133.97 11.01C133.97 10.97 133.98 10.93 134.01 10.9C134.04 10.87 134.08 10.86 134.12 10.86C134.16 10.86 134.2 10.87 134.23 10.9L149.27 25.94C149.29 25.96 149.3 25.99 149.31 26.02C149.32 26.05 149.31 26.08 149.3 26.11C149.29 26.14 149.27 26.16 149.24 26.18C149.22 26.2 149.19 26.2 149.16 26.2Z" fill="#CCCCCC" fill-opacity="1.000000" fill-rule="nonzero"/>
		<path id="Vector" d="M166.96 43.79C166.94 43.79 166.92 43.79 166.9 43.78C166.88 43.77 166.86 43.76 166.85 43.74L151.81 28.71C151.78 28.68 151.77 28.64 151.77 28.6C151.77 28.56 151.78 28.52 151.81 28.49C151.84 28.46 151.88 28.44 151.92 28.44C151.97 28.44 152.01 28.46 152.04 28.49L167.07 43.52C167.09 43.54 167.11 43.57 167.11 43.6C167.12 43.63 167.12 43.66 167.1 43.69C167.09 43.72 167.07 43.75 167.05 43.76C167.02 43.78 166.99 43.79 166.96 43.79L166.96 43.79Z" fill="#CCCCCC" fill-opacity="1.000000" fill-rule="nonzero"/>
		<path id="Vector" d="M134.12 43.79C134.09 43.79 134.06 43.78 134.03 43.76C134.01 43.75 133.99 43.72 133.98 43.69C133.97 43.66 133.96 43.63 133.97 43.6C133.97 43.57 133.99 43.54 134.01 43.52L149.05 28.49C149.08 28.46 149.11 28.44 149.16 28.44C149.2 28.44 149.24 28.46 149.27 28.49C149.3 28.52 149.31 28.56 149.31 28.6C149.31 28.64 149.3 28.68 149.27 28.71L134.23 43.74C134.22 43.76 134.2 43.77 134.18 43.78C134.16 43.79 134.14 43.79 134.12 43.79Z" fill="#CCCCCC" fill-opacity="1.000000" fill-rule="nonzero"/>
		<path id="Vector" d="M150.54 43.42C147.36 43.42 144.25 42.47 141.6 40.71C138.95 38.94 136.89 36.42 135.67 33.48C134.45 30.54 134.13 27.31 134.75 24.18C135.38 21.06 136.91 18.19 139.16 15.94C141.41 13.69 144.28 12.16 147.4 11.54C150.52 10.92 153.76 11.24 156.7 12.45C159.64 13.67 162.15 15.74 163.92 18.38C165.69 21.03 166.64 24.14 166.64 27.32C166.63 31.59 164.93 35.68 161.92 38.7C158.9 41.72 154.81 43.41 150.54 43.42ZM150.54 11.54C147.42 11.54 144.37 12.47 141.77 14.2C139.18 15.94 137.16 18.4 135.96 21.28C134.77 24.17 134.45 27.34 135.06 30.4C135.67 33.46 137.17 36.28 139.38 38.48C141.59 40.69 144.4 42.19 147.46 42.8C150.52 43.41 153.7 43.1 156.58 41.9C159.46 40.71 161.93 38.69 163.66 36.09C165.4 33.5 166.32 30.44 166.32 27.32C166.32 23.14 164.65 19.13 161.69 16.17C158.74 13.21 154.72 11.55 150.54 11.54Z" fill="#CCCCCC" fill-opacity="1.000000" fill-rule="nonzero"/>
		<path id="Vector" d="M152.42 27.32C152.42 28.36 151.58 29.21 150.54 29.21C149.5 29.21 148.66 28.36 148.66 27.32C148.66 26.28 149.5 25.44 150.54 25.44C151.58 25.44 152.42 26.28 152.42 27.32Z" fill="#3F3D56" fill-opacity="1.000000" fill-rule="evenodd"/>
		<path id="Vector" d="M143.25 59.15L141.59 59.2L149.67 26.59L151.17 27.04L143.25 59.15Z" fill="#3F3D56" fill-opacity="1.000000" fill-rule="nonzero"/>
		<path id="Vector" d="M157.84 59.15L159.49 59.2L151.41 26.59L149.91 27.04L157.84 59.15Z" fill="#3F3D56" fill-opacity="1.000000" fill-rule="nonzero"/>
		<path id="Vector" d="M147.87 8.79L153.05 8.79L153.05 11.62L147.87 11.62L147.87 8.79Z" fill="#CCCCCC" fill-opacity="1.000000" fill-rule="evenodd"/>
		<path id="Vector" d="M148.19 9.42L150.23 9.42L150.23 11.62L148.19 11.62L148.19 9.42Z" fill="#FFFFFF" fill-opacity="1.000000" fill-rule="evenodd"/>
		<path id="Vector" d="M150.7 9.42L152.74 9.42L152.74 11.62L150.7 11.62L150.7 9.42Z" fill="#FFFFFF" fill-opacity="1.000000" fill-rule="evenodd"/>
		<path id="Vector" d="M150.46 14.68C149.67 14.68 148.91 14.37 148.35 13.81C147.79 13.25 147.48 12.49 147.48 11.7L147.48 11.62C147.48 11.43 147.55 11.25 147.69 11.12C147.82 10.99 148 10.92 148.19 10.91L152.74 10.91C152.93 10.92 153.11 10.99 153.24 11.12C153.37 11.25 153.45 11.43 153.45 11.62L153.45 11.7C153.45 12.49 153.13 13.25 152.57 13.81C152.01 14.37 151.25 14.68 150.46 14.68Z" fill="#CCCCCC" fill-opacity="1.000000" fill-rule="nonzero"/>
		<path id="Vector" d="M152.86 9.5L148.07 9.5C148 9.5 147.93 9.48 147.87 9.45C147.82 9.42 147.77 9.37 147.73 9.32C147.7 9.26 147.68 9.19 147.67 9.13C147.67 9.06 147.68 8.99 147.71 8.93L148.66 7.05C148.69 6.98 148.74 6.93 148.8 6.89C148.86 6.85 148.93 6.83 149.01 6.83L151.92 6.83C151.99 6.83 152.06 6.85 152.12 6.89C152.19 6.93 152.24 6.98 152.27 7.05L153.21 8.93C153.24 8.99 153.25 9.06 153.25 9.13C153.25 9.19 153.23 9.26 153.19 9.32C153.16 9.37 153.11 9.42 153.05 9.45C152.99 9.48 152.93 9.5 152.86 9.5L152.86 9.5Z" fill="#F78065" fill-opacity="1.000000" fill-rule="nonzero"/>
		<path id="Vector" d="M161.85 15.08L167.03 15.08L167.03 17.9L161.85 17.9L161.85 15.08Z" fill="#CCCCCC" fill-opacity="1.000000" fill-rule="evenodd"/>
		<path id="Vector" d="M162.16 15.7L164.2 15.7L164.2 17.9L162.16 17.9L162.16 15.7Z" fill="#FFFFFF" fill-opacity="1.000000" fill-rule="evenodd"/>
		<path id="Vector" d="M164.67 15.7L166.71 15.7L166.71 17.9L164.67 17.9L164.67 15.7Z" fill="#FFFFFF" fill-opacity="1.000000" fill-rule="evenodd"/>
		<path id="Vector" d="M164.44 20.96C163.65 20.96 162.89 20.65 162.33 20.09C161.77 19.53 161.46 18.77 161.45 17.98L161.45 17.9C161.45 17.71 161.53 17.54 161.66 17.4C161.79 17.27 161.97 17.2 162.16 17.2L166.71 17.2C166.9 17.2 167.08 17.27 167.21 17.4C167.35 17.54 167.42 17.71 167.42 17.9L167.42 17.98C167.42 18.77 167.11 19.53 166.55 20.09C165.99 20.65 165.23 20.96 164.44 20.96Z" fill="#CCCCCC" fill-opacity="1.000000" fill-rule="nonzero"/>
		<path id="Vector" d="M162.98 13.27C162.94 13.27 162.9 13.28 162.86 13.31C162.82 13.33 162.79 13.36 162.77 13.4L161.83 15.28C161.81 15.32 161.8 15.36 161.81 15.4C161.81 15.44 161.82 15.48 161.84 15.51C161.86 15.55 161.89 15.58 161.93 15.6C161.96 15.62 162 15.63 162.04 15.63L166.83 15.63C166.87 15.63 166.91 15.62 166.95 15.6C166.98 15.58 167.01 15.55 167.03 15.51C167.06 15.48 167.07 15.44 167.07 15.4C167.07 15.36 167.06 15.32 167.05 15.28L166.1 13.4C166.08 13.36 166.05 13.33 166.02 13.31C165.98 13.28 165.94 13.27 165.89 13.27L162.98 13.27Z" fill="#F78065" fill-opacity="1.000000" fill-rule="nonzero"/>
		<path id="Vector" d="M167.34 29.21L172.52 29.21L172.52 32.03L167.34 32.03L167.34 29.21Z" fill="#CCCCCC" fill-opacity="1.000000" fill-rule="evenodd"/>
		<path id="Vector" d="M167.66 29.84L169.7 29.84L169.7 32.03L167.66 32.03L167.66 29.84Z" fill="#FFFFFF" fill-opacity="1.000000" fill-rule="evenodd"/>
		<path id="Vector" d="M170.17 29.84L172.21 29.84L172.21 32.03L170.17 32.03L170.17 29.84Z" fill="#FFFFFF" fill-opacity="1.000000" fill-rule="evenodd"/>
		<path id="Vector" d="M169.93 35.1C169.14 35.1 168.38 34.78 167.82 34.22C167.27 33.66 166.95 32.9 166.95 32.11L166.95 32.03C166.95 31.85 167.02 31.67 167.16 31.53C167.29 31.4 167.47 31.33 167.66 31.33L172.21 31.33C172.4 31.33 172.58 31.4 172.71 31.53C172.84 31.67 172.92 31.85 172.92 32.03L172.92 32.11C172.92 32.9 172.6 33.66 172.04 34.22C171.48 34.78 170.72 35.1 169.93 35.1Z" fill="#CCCCCC" fill-opacity="1.000000" fill-rule="nonzero"/>
		<path id="Vector" d="M172.33 29.91L167.54 29.91C167.47 29.91 167.4 29.9 167.35 29.86C167.29 29.83 167.24 29.79 167.2 29.73C167.17 29.67 167.15 29.61 167.14 29.54C167.14 29.47 167.16 29.41 167.19 29.35L168.13 27.46C168.16 27.4 168.21 27.34 168.27 27.3C168.33 27.27 168.41 27.24 168.48 27.25L171.39 27.25C171.46 27.24 171.53 27.27 171.59 27.3C171.66 27.34 171.71 27.4 171.74 27.46L172.68 29.35C172.71 29.41 172.73 29.47 172.72 29.54C172.72 29.61 172.7 29.67 172.66 29.73C172.63 29.79 172.58 29.83 172.52 29.86C172.46 29.9 172.4 29.91 172.33 29.91L172.33 29.91Z" fill="#F78065" fill-opacity="1.000000" fill-rule="nonzero"/>
		<path id="Vector" d="M161.53 42.4L166.71 42.4L166.71 45.22L161.53 45.22L161.53 42.4Z" fill="#CCCCCC" fill-opacity="1.000000" fill-rule="evenodd"/>
		<path id="Vector" d="M161.85 43.03L163.89 43.03L163.89 45.22L161.85 45.22L161.85 43.03Z" fill="#FFFFFF" fill-opacity="1.000000" fill-rule="evenodd"/>
		<path id="Vector" d="M164.36 43.03L166.4 43.03L166.4 45.22L164.36 45.22L164.36 43.03Z" fill="#FFFFFF" fill-opacity="1.000000" fill-rule="evenodd"/>
		<path id="Vector" d="M164.12 48.29C163.33 48.29 162.57 47.97 162.02 47.41C161.46 46.85 161.14 46.09 161.14 45.3L161.14 45.22C161.14 45.04 161.21 44.86 161.35 44.72C161.48 44.59 161.66 44.52 161.85 44.52L166.4 44.52C166.59 44.52 166.77 44.59 166.9 44.72C167.03 44.86 167.11 45.04 167.11 45.22L167.11 45.3C167.11 46.09 166.79 46.85 166.23 47.41C165.67 47.97 164.91 48.29 164.12 48.29Z" fill="#CCCCCC" fill-opacity="1.000000" fill-rule="nonzero"/>
		<path id="Vector" d="M166.52 43.1L161.73 43.1C161.66 43.1 161.59 43.09 161.53 43.05C161.48 43.02 161.43 42.98 161.39 42.92C161.36 42.86 161.34 42.8 161.33 42.73C161.33 42.66 161.35 42.6 161.38 42.54L162.32 40.65C162.35 40.59 162.4 40.53 162.46 40.49C162.52 40.45 162.6 40.43 162.67 40.43L165.58 40.43C165.65 40.43 165.72 40.45 165.79 40.49C165.85 40.53 165.9 40.59 165.93 40.65L166.87 42.54C166.9 42.6 166.92 42.66 166.91 42.73C166.91 42.8 166.89 42.86 166.85 42.92C166.82 42.98 166.77 43.02 166.71 43.05C166.65 43.09 166.59 43.1 166.52 43.1L166.52 43.1Z" fill="#F78065" fill-opacity="1.000000" fill-rule="nonzero"/>
		<path id="Vector" d="M139.24 17.9L134.05 17.9L134.05 15.08L139.24 15.08L139.24 17.9Z" fill="#CCCCCC" fill-opacity="1.000000" fill-rule="evenodd"/>
		<path id="Vector" d="M138.92 17.9L136.88 17.9L136.88 15.7L138.92 15.7L138.92 17.9Z" fill="#FFFFFF" fill-opacity="1.000000" fill-rule="evenodd"/>
		<path id="Vector" d="M136.41 17.9L134.37 17.9L134.37 15.7L136.41 15.7L136.41 17.9Z" fill="#FFFFFF" fill-opacity="1.000000" fill-rule="evenodd"/>
		<path id="Vector" d="M136.64 20.96C135.85 20.96 135.1 20.65 134.54 20.09C133.98 19.53 133.66 18.77 133.66 17.98L133.66 17.9C133.66 17.71 133.74 17.54 133.87 17.4C134 17.27 134.18 17.2 134.37 17.2L138.92 17.2C139.11 17.2 139.29 17.27 139.42 17.4C139.55 17.54 139.63 17.71 139.63 17.9L139.63 17.98C139.63 18.77 139.31 19.53 138.75 20.09C138.19 20.65 137.44 20.96 136.64 20.96Z" fill="#CCCCCC" fill-opacity="1.000000" fill-rule="nonzero"/>
		<path id="Vector" d="M139.04 15.78L134.25 15.78C134.18 15.78 134.12 15.77 134.06 15.73C134 15.7 133.95 15.65 133.91 15.6C133.88 15.54 133.86 15.47 133.86 15.41C133.85 15.34 133.87 15.27 133.9 15.21L134.84 13.33C134.87 13.26 134.92 13.21 134.98 13.17C135.05 13.13 135.12 13.11 135.19 13.11L138.1 13.11C138.17 13.11 138.24 13.13 138.31 13.17C138.37 13.21 138.42 13.26 138.45 13.33L139.39 15.21C139.42 15.27 139.44 15.34 139.43 15.41C139.43 15.47 139.41 15.54 139.38 15.6C139.34 15.65 139.29 15.7 139.23 15.73C139.17 15.77 139.11 15.78 139.04 15.78L139.04 15.78Z" fill="#F78065" fill-opacity="1.000000" fill-rule="nonzero"/>
		<path id="Vector" d="M133.74 32.03L128.56 32.03L128.56 29.21L133.74 29.21L133.74 32.03Z" fill="#CCCCCC" fill-opacity="1.000000" fill-rule="evenodd"/>
		<path id="Vector" d="M133.42 32.03L131.38 32.03L131.38 29.84L133.42 29.84L133.42 32.03Z" fill="#FFFFFF" fill-opacity="1.000000" fill-rule="evenodd"/>
		<path id="Vector" d="M130.91 32.03L128.87 32.03L128.87 29.84L130.91 29.84L130.91 32.03Z" fill="#FFFFFF" fill-opacity="1.000000" fill-rule="evenodd"/>
		<path id="Vector" d="M131.15 35.1C130.36 35.1 129.6 34.78 129.04 34.22C128.48 33.66 128.17 32.9 128.17 32.11L128.17 32.03C128.17 31.85 128.24 31.67 128.37 31.53C128.5 31.4 128.68 31.33 128.87 31.33L133.42 31.33C133.61 31.33 133.79 31.4 133.92 31.53C134.06 31.67 134.13 31.85 134.13 32.03L134.13 32.11C134.13 32.9 133.82 33.66 133.26 34.22C132.7 34.78 131.94 35.1 131.15 35.1Z" fill="#CCCCCC" fill-opacity="1.000000" fill-rule="nonzero"/>
		<path id="Vector" d="M133.55 29.91L128.75 29.91C128.69 29.91 128.62 29.9 128.56 29.86C128.5 29.83 128.45 29.79 128.42 29.73C128.38 29.67 128.36 29.61 128.36 29.54C128.36 29.47 128.37 29.41 128.4 29.35L129.34 27.46C129.38 27.4 129.42 27.34 129.49 27.3C129.55 27.27 129.62 27.24 129.69 27.25L132.6 27.25C132.68 27.24 132.75 27.27 132.81 27.3C132.87 27.34 132.92 27.4 132.95 27.46L133.9 29.35C133.93 29.41 133.94 29.47 133.94 29.54C133.93 29.61 133.91 29.67 133.88 29.73C133.84 29.79 133.8 29.83 133.74 29.86C133.68 29.9 133.61 29.91 133.55 29.91L133.55 29.91Z" fill="#F78065" fill-opacity="1.000000" fill-rule="nonzero"/>
		<path id="Vector" d="M139.55 45.22L134.37 45.22L134.37 42.4L139.55 42.4L139.55 45.22Z" fill="#CCCCCC" fill-opacity="1.000000" fill-rule="evenodd"/>
		<path id="Vector" d="M139.24 45.22L137.19 45.22L137.19 43.03L139.24 43.03L139.24 45.22Z" fill="#FFFFFF" fill-opacity="1.000000" fill-rule="evenodd"/>
		<path id="Vector" d="M136.72 45.22L134.68 45.22L134.68 43.03L136.72 43.03L136.72 45.22Z" fill="#FFFFFF" fill-opacity="1.000000" fill-rule="evenodd"/>
		<path id="Vector" d="M136.96 48.29C136.17 48.29 135.41 47.97 134.85 47.41C134.29 46.85 133.98 46.09 133.98 45.3L133.98 45.22C133.98 45.04 134.05 44.86 134.18 44.72C134.31 44.59 134.49 44.52 134.68 44.52L139.24 44.52C139.42 44.52 139.6 44.59 139.73 44.72C139.87 44.86 139.94 45.04 139.94 45.22L139.94 45.3C139.94 46.09 139.63 46.85 139.07 47.41C138.51 47.97 137.75 48.29 136.96 48.29Z" fill="#CCCCCC" fill-opacity="1.000000" fill-rule="nonzero"/>
		<path id="Vector" d="M139.36 43.1L134.56 43.1C134.5 43.1 134.43 43.09 134.37 43.05C134.31 43.02 134.26 42.98 134.23 42.92C134.19 42.86 134.17 42.8 134.17 42.73C134.17 42.66 134.18 42.6 134.21 42.54L135.15 40.65C135.19 40.59 135.24 40.53 135.3 40.49C135.36 40.45 135.43 40.43 135.5 40.43L138.41 40.43C138.49 40.43 138.56 40.45 138.62 40.49C138.68 40.53 138.73 40.59 138.76 40.65L139.71 42.54C139.74 42.6 139.75 42.66 139.75 42.73C139.74 42.8 139.72 42.86 139.69 42.92C139.65 42.98 139.61 43.02 139.55 43.05C139.49 43.09 139.42 43.1 139.36 43.1L139.36 43.1Z" fill="#F78065" fill-opacity="1.000000" fill-rule="nonzero"/>
		<path id="Vector" d="M147.87 48.36L153.05 48.36L153.05 51.19L147.87 51.19L147.87 48.36Z" fill="#CCCCCC" fill-opacity="1.000000" fill-rule="evenodd"/>
		<path id="Vector" d="M148.19 48.99L150.23 48.99L150.23 51.19L148.19 51.19L148.19 48.99Z" fill="#FFFFFF" fill-opacity="1.000000" fill-rule="evenodd"/>
		<path id="Vector" d="M150.7 48.99L152.74 48.99L152.74 51.19L150.7 51.19L150.7 48.99Z" fill="#FFFFFF" fill-opacity="1.000000" fill-rule="evenodd"/>
		<path id="Vector" d="M148.19 50.64C148.04 50.64 147.9 50.7 147.8 50.8C147.69 50.91 147.64 51.05 147.64 51.19L147.64 51.27C147.64 51.64 147.71 52.01 147.85 52.35C147.99 52.7 148.2 53.01 148.46 53.27C148.73 53.53 149.04 53.74 149.38 53.88C149.72 54.03 150.09 54.1 150.46 54.1C150.83 54.1 151.2 54.03 151.54 53.88C151.89 53.74 152.2 53.53 152.46 53.27C152.72 53.01 152.93 52.7 153.07 52.35C153.22 52.01 153.29 51.64 153.29 51.27L153.29 51.19C153.29 51.05 153.23 50.91 153.13 50.8C153.02 50.7 152.89 50.64 152.74 50.64L148.19 50.64Z" fill="#CCCCCC" fill-opacity="1.000000" fill-rule="nonzero"/>
		<path id="Vector" d="M149.01 46.56C148.96 46.56 148.92 46.57 148.88 46.59C148.85 46.62 148.82 46.65 148.8 46.69L147.86 48.57C147.84 48.61 147.83 48.65 147.83 48.69C147.83 48.73 147.84 48.77 147.87 48.8C147.89 48.84 147.92 48.86 147.95 48.88C147.99 48.9 148.03 48.91 148.07 48.91L152.86 48.91C152.9 48.91 152.94 48.9 152.97 48.88C153.01 48.86 153.04 48.84 153.06 48.8C153.08 48.77 153.09 48.73 153.09 48.69C153.1 48.65 153.09 48.61 153.07 48.57L152.13 46.69C152.11 46.65 152.08 46.62 152.04 46.59C152 46.57 151.96 46.56 151.92 46.56L149.01 46.56Z" fill="#F78065" fill-opacity="1.000000" fill-rule="nonzero"/>
		<path id="Vector" d="M81.33 87.55C81.38 87.55 81.43 87.53 81.46 87.5C81.49 87.47 81.51 87.42 81.51 87.37C81.51 87.33 81.49 87.28 81.46 87.25C81.43 87.22 81.38 87.2 81.33 87.2L79.65 87.2L79.65 86.49L81.33 86.49C81.38 86.49 81.43 86.47 81.46 86.44C81.49 86.4 81.51 86.36 81.51 86.31C81.51 86.26 81.49 86.22 81.46 86.19C81.43 86.15 81.38 86.13 81.33 86.13L66.98 86.13C66.93 86.13 66.89 86.15 66.86 86.19C66.82 86.22 66.8 86.26 66.8 86.31C66.8 86.36 66.82 86.4 66.86 86.44C66.89 86.47 66.93 86.49 66.98 86.49L68.66 86.49L68.66 87.2L66.98 87.2C66.93 87.2 66.89 87.22 66.86 87.25C66.82 87.28 66.8 87.33 66.8 87.37C66.8 87.42 66.82 87.47 66.86 87.5C66.89 87.53 66.93 87.55 66.98 87.55L68.66 87.55L68.66 88.26L66.98 88.26C66.93 88.26 66.89 88.28 66.86 88.31C66.82 88.34 66.8 88.39 66.8 88.44C66.8 88.48 66.82 88.53 66.86 88.56C66.89 88.6 66.93 88.61 66.98 88.61L68.66 88.61L68.66 89.32L67.16 89.32C67.06 89.32 66.97 89.36 66.91 89.43C66.84 89.49 66.8 89.58 66.8 89.68C66.8 89.77 66.84 89.86 66.91 89.93C66.97 89.99 67.06 90.03 67.16 90.03L68.59 90.03C68.58 90.06 68.58 90.09 68.58 90.12L68.58 92.6C68.58 92.67 68.6 92.74 68.65 92.79C68.7 92.84 68.77 92.87 68.84 92.87C68.91 92.87 68.98 92.84 69.03 92.79C69.08 92.74 69.11 92.67 69.11 92.6L69.11 90.12C69.11 90.09 69.1 90.06 69.09 90.03L79.22 90.03C79.21 90.06 79.21 90.09 79.21 90.12L79.21 92.6C79.21 92.67 79.24 92.74 79.28 92.79C79.33 92.84 79.4 92.87 79.47 92.87C79.54 92.87 79.61 92.84 79.66 92.79C79.71 92.74 79.74 92.67 79.74 92.6L79.74 90.12C79.74 90.09 79.73 90.06 79.72 90.03L81.16 90.03C81.25 90.03 81.34 89.99 81.41 89.93C81.47 89.86 81.51 89.77 81.51 89.68C81.51 89.58 81.47 89.49 81.41 89.43C81.34 89.36 81.25 89.32 81.16 89.32L79.65 89.32L79.65 88.61L81.33 88.61C81.38 88.61 81.43 88.6 81.46 88.56C81.49 88.53 81.51 88.48 81.51 88.44C81.51 88.39 81.49 88.34 81.46 88.31C81.43 88.28 81.38 88.26 81.33 88.26L79.65 88.26L79.65 87.55L81.33 87.55ZM69.02 86.49L79.3 86.49L79.3 87.2L69.02 87.2L69.02 86.49ZM79.3 89.32L69.02 89.32L69.02 88.61L79.3 88.61L79.3 89.32ZM79.3 88.26L69.02 88.26L69.02 87.55L79.3 87.55L79.3 88.26Z" fill="#3F3D56" fill-opacity="1.000000" fill-rule="nonzero"/>
		<path id="Vector" d="M136.7 108.76C136.75 108.76 136.79 108.74 136.83 108.71C136.86 108.67 136.88 108.63 136.88 108.58C136.88 108.53 136.86 108.49 136.83 108.45C136.79 108.42 136.75 108.4 136.7 108.4L135.02 108.4L135.02 107.69L136.7 107.69C136.75 107.69 136.79 107.68 136.83 107.64C136.86 107.61 136.88 107.56 136.88 107.52C136.88 107.47 136.86 107.42 136.83 107.39C136.79 107.36 136.75 107.34 136.7 107.34L122.35 107.34C122.3 107.34 122.26 107.36 122.22 107.39C122.19 107.42 122.17 107.47 122.17 107.52C122.17 107.56 122.19 107.61 122.22 107.64C122.26 107.68 122.3 107.69 122.35 107.69L124.03 107.69L124.03 108.4L122.35 108.4C122.3 108.4 122.26 108.42 122.22 108.45C122.19 108.49 122.17 108.53 122.17 108.58C122.17 108.63 122.19 108.67 122.22 108.71C122.26 108.74 122.3 108.76 122.35 108.76L124.03 108.76L124.03 109.47L122.35 109.47C122.3 109.47 122.26 109.48 122.22 109.52C122.19 109.55 122.17 109.6 122.17 109.64C122.17 109.69 122.19 109.73 122.22 109.77C122.26 109.8 122.3 109.82 122.35 109.82L124.03 109.82L124.03 110.53L122.53 110.53C122.43 110.53 122.34 110.57 122.28 110.63C122.21 110.7 122.17 110.79 122.17 110.88C122.17 110.98 122.21 111.07 122.28 111.13C122.34 111.2 122.43 111.24 122.53 111.24L123.96 111.24C123.95 111.27 123.94 111.3 123.94 111.33L123.94 113.81C123.94 113.84 123.95 113.88 123.96 113.91C123.98 113.94 124 113.97 124.02 113.99C124.05 114.02 124.07 114.04 124.11 114.05C124.14 114.07 124.17 114.07 124.21 114.07C124.24 114.07 124.28 114.07 124.31 114.05C124.34 114.04 124.37 114.02 124.4 113.99C124.42 113.97 124.44 113.94 124.45 113.91C124.47 113.88 124.47 113.84 124.47 113.81L124.47 111.33C124.47 111.3 124.47 111.27 124.46 111.24L134.59 111.24C134.58 111.27 134.57 111.3 134.57 111.33L134.57 113.81C134.57 113.88 134.6 113.94 134.65 113.99C134.7 114.04 134.77 114.07 134.84 114.07C134.91 114.07 134.98 114.04 135.03 113.99C135.08 113.94 135.11 113.88 135.11 113.81L135.11 111.33C135.1 111.3 135.1 111.27 135.09 111.24L136.52 111.24C136.62 111.24 136.71 111.2 136.77 111.13C136.84 111.07 136.88 110.98 136.88 110.88C136.88 110.79 136.84 110.7 136.77 110.63C136.71 110.57 136.62 110.53 136.52 110.53L135.02 110.53L135.02 109.82L136.7 109.82C136.75 109.82 136.79 109.8 136.83 109.77C136.86 109.73 136.88 109.69 136.88 109.64C136.88 109.6 136.86 109.55 136.83 109.52C136.79 109.48 136.75 109.47 136.7 109.47L135.02 109.47L135.02 108.76L136.7 108.76ZM124.39 107.69L134.66 107.69L134.66 108.4L124.39 108.4L124.39 107.69ZM134.66 110.53L124.39 110.53L124.39 109.82L134.66 109.82L134.66 110.53ZM134.66 109.47L124.39 109.47L124.39 108.76L134.66 108.76L134.66 109.47Z" fill="#3F3D56" fill-opacity="1.000000" fill-rule="nonzero"/>
		<path id="Vector" d="M181.36 85.51C181.41 85.51 181.45 85.49 181.48 85.46C181.52 85.42 181.54 85.38 181.54 85.33C181.54 85.28 181.52 85.24 181.48 85.2C181.45 85.17 181.41 85.15 181.36 85.15L179.68 85.15L179.68 84.44L181.36 84.44C181.41 84.44 181.45 84.43 181.48 84.39C181.52 84.36 181.54 84.31 181.54 84.27C181.54 84.22 181.52 84.17 181.48 84.14C181.45 84.11 181.41 84.09 181.36 84.09L167.01 84.09C166.96 84.09 166.92 84.11 166.88 84.14C166.85 84.17 166.83 84.22 166.83 84.27C166.83 84.31 166.85 84.36 166.88 84.39C166.92 84.43 166.96 84.44 167.01 84.44L168.69 84.44L168.69 85.15L167.01 85.15C166.96 85.15 166.92 85.17 166.88 85.2C166.85 85.24 166.83 85.28 166.83 85.33C166.83 85.38 166.85 85.42 166.88 85.46C166.92 85.49 166.96 85.51 167.01 85.51L168.69 85.51L168.69 86.22L167.01 86.22C166.96 86.22 166.92 86.23 166.88 86.27C166.85 86.3 166.83 86.35 166.83 86.39C166.83 86.44 166.85 86.48 166.88 86.52C166.92 86.55 166.96 86.57 167.01 86.57L168.69 86.57L168.69 87.28L167.19 87.28C167.09 87.28 167 87.32 166.94 87.38C166.87 87.45 166.83 87.54 166.83 87.63C166.83 87.73 166.87 87.82 166.94 87.88C167 87.95 167.09 87.99 167.19 87.99L168.62 87.99C168.61 88.02 168.6 88.05 168.6 88.08L168.6 90.56C168.6 90.63 168.63 90.69 168.68 90.74C168.73 90.79 168.8 90.82 168.87 90.82C168.94 90.82 169.01 90.79 169.06 90.74C169.11 90.69 169.13 90.63 169.13 90.56L169.13 88.08C169.13 88.05 169.13 88.02 169.12 87.99L179.25 87.99C179.24 88.02 179.23 88.05 179.23 88.08L179.23 90.56C179.23 90.63 179.26 90.69 179.31 90.74C179.36 90.79 179.43 90.82 179.5 90.82C179.57 90.82 179.64 90.79 179.69 90.74C179.74 90.69 179.76 90.63 179.76 90.56L179.76 88.08C179.76 88.05 179.76 88.02 179.75 87.99L181.18 87.99C181.23 87.99 181.28 87.98 181.32 87.96C181.36 87.94 181.4 87.92 181.43 87.88C181.47 87.85 181.49 87.81 181.51 87.77C181.53 87.73 181.54 87.68 181.54 87.63C181.54 87.59 181.53 87.54 181.51 87.5C181.49 87.45 181.47 87.42 181.43 87.38C181.4 87.35 181.36 87.32 181.32 87.31C181.28 87.29 181.23 87.28 181.18 87.28L179.68 87.28L179.68 86.57L181.36 86.57C181.41 86.57 181.45 86.55 181.48 86.52C181.52 86.48 181.54 86.44 181.54 86.39C181.54 86.35 181.52 86.3 181.48 86.27C181.45 86.23 181.41 86.22 181.36 86.22L179.68 86.22L179.68 85.51L181.36 85.51ZM169.05 84.44L179.32 84.44L179.32 85.15L169.05 85.15L169.05 84.44ZM179.32 87.28L169.05 87.28L169.05 86.57L179.32 86.57L179.32 87.28ZM179.32 86.22L169.05 86.22L169.05 85.51L179.32 85.51L179.32 86.22Z" fill="#3F3D56" fill-opacity="1.000000" fill-rule="nonzero"/>
		<path id="Vector" d="M114.1 130.06C114.1 125.51 110.41 114.73 105.87 114.73C101.32 114.73 97.63 125.51 97.63 130.06C97.63 132.24 98.5 134.33 100.05 135.88C101.59 137.42 103.68 138.28 105.87 138.28C108.05 138.28 110.14 137.42 111.69 135.88C113.23 134.33 114.1 132.24 114.1 130.06Z" fill="#F2F2F2" fill-opacity="1.000000" fill-rule="nonzero"/>
		<path id="Vector" d="M105.87 148.29C105.84 148.29 105.82 148.28 105.8 148.26C105.78 148.24 105.77 148.22 105.77 148.19L105.77 128.97C105.77 128.96 105.77 128.95 105.78 128.94C105.78 128.93 105.79 128.92 105.8 128.91C105.81 128.9 105.82 128.89 105.83 128.89C105.84 128.88 105.85 128.88 105.87 128.88C105.88 128.88 105.89 128.88 105.9 128.89C105.91 128.89 105.92 128.9 105.93 128.91C105.94 128.92 105.95 128.93 105.95 128.94C105.96 128.95 105.96 128.96 105.96 128.97L105.96 148.19C105.96 148.22 105.95 148.24 105.93 148.26C105.91 148.28 105.89 148.29 105.87 148.29Z" fill="#CCCCCC" fill-opacity="1.000000" fill-rule="nonzero"/>
		<path id="Vector" d="M105.87 132.57C105.85 132.57 105.84 132.56 105.83 132.56C105.81 132.55 105.8 132.54 105.79 132.53L101.06 127.07C101.04 127.05 101.04 127.03 101.04 127C101.04 126.98 101.05 126.96 101.07 126.94C101.09 126.92 101.11 126.92 101.14 126.92C101.16 126.92 101.19 126.93 101.2 126.95L105.94 132.41C105.95 132.42 105.96 132.44 105.96 132.46C105.96 132.48 105.96 132.49 105.95 132.51C105.94 132.53 105.93 132.54 105.92 132.55C105.9 132.56 105.88 132.57 105.87 132.57Z" fill="#CCCCCC" fill-opacity="1.000000" fill-rule="nonzero"/>
		<path id="Vector" d="M105.87 135.72C105.85 135.72 105.83 135.71 105.81 135.7C105.8 135.69 105.79 135.67 105.78 135.66C105.77 135.64 105.77 135.62 105.77 135.6C105.78 135.59 105.79 135.57 105.8 135.56L108.49 132.87C108.51 132.85 108.53 132.84 108.56 132.84C108.58 132.84 108.61 132.85 108.62 132.87C108.64 132.88 108.65 132.91 108.65 132.93C108.65 132.96 108.64 132.98 108.62 133L105.93 135.69C105.92 135.7 105.91 135.7 105.9 135.71C105.89 135.71 105.88 135.72 105.87 135.72Z" fill="#CCCCCC" fill-opacity="1.000000" fill-rule="nonzero"/>
		<path id="Vector" d="M35.57 40.89C35.57 36.35 31.89 25.56 27.34 25.56C22.79 25.56 19.11 36.35 19.11 40.89C19.11 43.07 19.98 45.17 21.52 46.71C23.06 48.25 25.16 49.12 27.34 49.12C29.52 49.12 31.62 48.25 33.16 46.71C34.7 45.17 35.57 43.07 35.57 40.89Z" fill="#3F3D56" fill-opacity="1.000000" fill-rule="nonzero"/>
		<path id="Vector" d="M27.34 59.12C27.32 59.12 27.29 59.11 27.27 59.09C27.26 59.08 27.25 59.05 27.25 59.03L27.25 39.81C27.25 39.78 27.26 39.76 27.27 39.74C27.29 39.72 27.32 39.71 27.34 39.71C27.37 39.71 27.39 39.72 27.41 39.74C27.42 39.76 27.43 39.78 27.43 39.81L27.43 59.03C27.43 59.04 27.43 59.05 27.43 59.06C27.42 59.07 27.42 59.09 27.41 59.09C27.4 59.1 27.39 59.11 27.38 59.11C27.37 59.12 27.35 59.12 27.34 59.12Z" fill="#CCCCCC" fill-opacity="1.000000" fill-rule="nonzero"/>
		<path id="Vector" d="M27.34 43.4C27.33 43.4 27.31 43.4 27.3 43.39C27.29 43.39 27.28 43.38 27.27 43.37L22.53 37.91C22.52 37.89 22.51 37.86 22.51 37.84C22.51 37.81 22.53 37.79 22.54 37.77C22.56 37.76 22.59 37.75 22.61 37.75C22.64 37.75 22.66 37.76 22.68 37.78L27.41 43.24C27.42 43.26 27.43 43.27 27.43 43.29C27.44 43.31 27.43 43.33 27.43 43.34C27.42 43.36 27.41 43.37 27.39 43.38C27.38 43.39 27.36 43.4 27.34 43.4L27.34 43.4Z" fill="#CCCCCC" fill-opacity="1.000000" fill-rule="nonzero"/>
		<path id="Vector" d="M27.34 46.55C27.32 46.55 27.3 46.54 27.29 46.53C27.27 46.52 27.26 46.51 27.25 46.49C27.25 46.48 27.24 46.46 27.25 46.44C27.25 46.42 27.26 46.4 27.27 46.39L29.96 43.7C29.97 43.69 29.98 43.68 30 43.68C30.01 43.67 30.02 43.67 30.03 43.67C30.04 43.67 30.06 43.67 30.07 43.68C30.08 43.68 30.09 43.69 30.1 43.7C30.11 43.71 30.11 43.72 30.12 43.73C30.12 43.74 30.13 43.75 30.13 43.77C30.13 43.78 30.12 43.79 30.12 43.8C30.11 43.81 30.11 43.82 30.1 43.83L27.41 46.52C27.4 46.53 27.39 46.54 27.38 46.54C27.37 46.55 27.35 46.55 27.34 46.55Z" fill="#CCCCCC" fill-opacity="1.000000" fill-rule="nonzero"/>
		<path id="Vector" d="M18.42 59C18.42 58.09 18.79 57.21 19.43 56.57C20.07 55.92 20.95 55.56 21.86 55.56C22.77 55.56 23.65 55.92 24.29 56.57C24.94 57.21 25.3 58.09 25.3 59L18.42 59Z" fill="#F2F2F2" fill-opacity="1.000000" fill-rule="nonzero"/>
		<path id="Vector" d="M21.86 59C21.84 59 21.81 58.99 21.79 58.97C21.78 58.95 21.77 58.93 21.77 58.9L21.77 57.09C21.77 57.07 21.78 57.04 21.79 57.03C21.81 57.01 21.84 57 21.86 57C21.89 57 21.91 57.01 21.93 57.03C21.94 57.04 21.95 57.07 21.95 57.09L21.95 58.9C21.95 58.93 21.94 58.95 21.93 58.97C21.91 58.99 21.89 59 21.86 59Z" fill="#CCCCCC" fill-opacity="1.000000" fill-rule="nonzero"/>
		<path id="Vector" d="M21.86 58.37C21.84 58.37 21.82 58.37 21.8 58.35L20.69 57.4C20.68 57.39 20.67 57.38 20.66 57.37C20.66 57.36 20.65 57.34 20.65 57.33C20.65 57.32 20.65 57.31 20.66 57.3C20.66 57.28 20.67 57.27 20.68 57.26C20.68 57.25 20.69 57.25 20.7 57.24C20.71 57.24 20.73 57.23 20.74 57.23C20.75 57.23 20.76 57.23 20.77 57.24C20.79 57.24 20.8 57.25 20.81 57.25L21.92 58.21C21.94 58.22 21.95 58.24 21.95 58.26C21.96 58.28 21.95 58.3 21.95 58.31C21.94 58.33 21.93 58.35 21.91 58.36C21.9 58.37 21.88 58.37 21.86 58.37L21.86 58.37Z" fill="#CCCCCC" fill-opacity="1.000000" fill-rule="nonzero"/>
		<path id="Vector" d="M29.01 59C29.01 58.09 29.38 57.21 30.02 56.57C30.66 55.92 31.54 55.56 32.45 55.56C33.36 55.56 34.24 55.92 34.88 56.57C35.53 57.21 35.89 58.09 35.89 59L29.01 59Z" fill="#F2F2F2" fill-opacity="1.000000" fill-rule="nonzero"/>
		<path id="Vector" d="M32.45 59C32.43 59 32.4 58.99 32.38 58.97C32.37 58.95 32.36 58.93 32.36 58.9L32.36 57.09C32.36 57.07 32.37 57.04 32.38 57.03C32.4 57.01 32.43 57 32.45 57C32.47 57 32.5 57.01 32.52 57.03C32.53 57.04 32.54 57.07 32.54 57.09L32.54 58.9C32.54 58.93 32.53 58.95 32.52 58.97C32.5 58.99 32.47 59 32.45 59Z" fill="#CCCCCC" fill-opacity="1.000000" fill-rule="nonzero"/>
		<path id="Vector" d="M32.45 58.37C32.43 58.37 32.41 58.37 32.39 58.35L31.28 57.4C31.26 57.38 31.25 57.36 31.24 57.33C31.24 57.31 31.25 57.28 31.27 57.26C31.28 57.25 31.3 57.23 31.33 57.23C31.35 57.23 31.38 57.24 31.4 57.25L32.51 58.21C32.53 58.22 32.54 58.24 32.54 58.26C32.55 58.28 32.54 58.3 32.54 58.31C32.53 58.33 32.52 58.35 32.5 58.36C32.49 58.37 32.47 58.37 32.45 58.37L32.45 58.37Z" fill="#CCCCCC" fill-opacity="1.000000" fill-rule="nonzero"/>
		<path id="Vector" d="M208.54 129.8C208.54 125.26 204.85 114.48 200.31 114.48C195.76 114.48 192.07 125.26 192.07 129.8C192.08 131.98 192.94 134.08 194.49 135.62C196.03 137.16 198.12 138.03 200.31 138.03C202.49 138.03 204.58 137.16 206.13 135.62C207.67 134.08 208.54 131.98 208.54 129.8Z" fill="#F78065" fill-opacity="1.000000" fill-rule="nonzero"/>
		<path id="Vector" d="M200.31 148.03C200.28 148.03 200.26 148.02 200.24 148C200.22 147.99 200.21 147.96 200.21 147.94L200.21 128.72C200.21 128.71 200.22 128.69 200.22 128.68C200.22 128.67 200.23 128.66 200.24 128.65C200.25 128.64 200.26 128.64 200.27 128.63C200.28 128.63 200.29 128.62 200.31 128.62C200.32 128.62 200.33 128.63 200.34 128.63C200.35 128.64 200.37 128.64 200.37 128.65C200.38 128.66 200.39 128.67 200.39 128.68C200.4 128.69 200.4 128.71 200.4 128.72L200.4 147.94C200.4 147.96 200.39 147.99 200.37 148C200.36 148.02 200.33 148.03 200.31 148.03Z" fill="#CCCCCC" fill-opacity="1.000000" fill-rule="nonzero"/>
		<path id="Vector" d="M200.31 132.31C200.29 132.31 200.28 132.31 200.27 132.3C200.26 132.3 200.25 132.29 200.24 132.28L195.5 126.82C195.49 126.8 195.48 126.77 195.48 126.75C195.48 126.72 195.49 126.7 195.51 126.68C195.53 126.67 195.55 126.66 195.58 126.66C195.6 126.66 195.63 126.67 195.64 126.69L200.38 132.15C200.39 132.17 200.4 132.18 200.4 132.2C200.4 132.22 200.4 132.24 200.39 132.25C200.39 132.27 200.37 132.28 200.36 132.29C200.34 132.3 200.33 132.31 200.31 132.31L200.31 132.31Z" fill="#CCCCCC" fill-opacity="1.000000" fill-rule="nonzero"/>
		<path id="Vector" d="M200.31 135.46C200.29 135.46 200.27 135.46 200.25 135.45C200.24 135.43 200.23 135.42 200.22 135.4C200.21 135.39 200.21 135.37 200.21 135.35C200.22 135.33 200.23 135.31 200.24 135.3L202.93 132.61C202.94 132.6 202.95 132.59 202.96 132.59C202.97 132.58 202.99 132.58 203 132.58C203.01 132.58 203.02 132.58 203.03 132.59C203.05 132.59 203.06 132.6 203.06 132.61C203.07 132.62 203.08 132.63 203.08 132.64C203.09 132.65 203.09 132.66 203.09 132.68C203.09 132.69 203.09 132.7 203.08 132.71C203.08 132.72 203.07 132.73 203.06 132.74L200.37 135.43C200.36 135.44 200.35 135.45 200.34 135.45C200.33 135.46 200.32 135.46 200.31 135.46Z" fill="#CCCCCC" fill-opacity="1.000000" fill-rule="nonzero"/>
		<path id="Vector" d="M79.3 131.24L77.71 131.24C77.59 131.24 77.48 131.19 77.39 131.11C77.31 131.03 77.26 130.91 77.26 130.79L77.26 128.7C77.26 128.58 77.31 128.47 77.39 128.38C77.48 128.3 77.59 128.25 77.71 128.25L79.3 128.25C79.42 128.25 79.54 128.3 79.62 128.38C79.71 128.47 79.75 128.58 79.75 128.7L79.75 130.79C79.75 130.91 79.71 131.03 79.62 131.11C79.54 131.19 79.42 131.24 79.3 131.24Z" fill="#3F3D56" fill-opacity="1.000000" fill-rule="nonzero"/>
		<path id="Vector" d="M92.77 148.29L84.59 148.29C84.37 148.29 84.15 148.2 83.99 148.05C83.83 147.89 83.74 147.67 83.74 147.45L83.74 131.59C83.74 131.37 83.83 131.15 83.99 130.99C84.15 130.83 84.37 130.74 84.59 130.74L92.77 130.74C92.99 130.74 93.21 130.83 93.37 130.99C93.53 131.15 93.61 131.37 93.61 131.59L93.61 147.45C93.61 147.67 93.53 147.89 93.37 148.05C93.21 148.2 92.99 148.29 92.77 148.29Z" fill="#3F3D56" fill-opacity="1.000000" fill-rule="nonzero"/>
		<path id="Vector" d="M87.88 148.29L73.72 148.29C73.5 148.29 73.28 148.2 73.12 148.05C72.96 147.89 72.87 147.67 72.87 147.45L72.87 131.59C72.87 131.37 72.96 131.15 73.12 130.99C73.28 130.83 73.5 130.74 73.72 130.74L87.88 130.74C88.11 130.74 88.32 130.83 88.48 130.99C88.64 131.15 88.73 131.37 88.73 131.59L88.73 147.45C88.73 147.67 88.64 147.89 88.48 148.05C88.32 148.2 88.11 148.29 87.88 148.29Z" fill="#F78065" fill-opacity="1.000000" fill-rule="nonzero"/>
		<path id="Vector" d="M77.81 131.24L76.21 131.24C76.09 131.24 75.98 131.19 75.9 131.11C75.81 131.03 75.76 130.91 75.76 130.79L75.76 128.7C75.76 128.58 75.81 128.47 75.9 128.38C75.98 128.3 76.09 128.25 76.21 128.25L77.81 128.25C77.93 128.25 78.04 128.3 78.13 128.38C78.21 128.47 78.26 128.58 78.26 128.7L78.26 130.79C78.26 130.91 78.21 131.03 78.13 131.11C78.04 131.19 77.93 131.24 77.81 131.24Z" fill="#F78065" fill-opacity="1.000000" fill-rule="nonzero"/>
		<path id="Vector" d="M79.9 138.57L78.01 138.57C77.94 138.57 77.88 138.54 77.83 138.5C77.79 138.45 77.76 138.39 77.76 138.32L77.76 135.43C77.76 135.36 77.79 135.3 77.83 135.25C77.88 135.21 77.94 135.18 78.01 135.18L79.9 135.18C79.97 135.18 80.03 135.21 80.08 135.25C80.13 135.3 80.15 135.36 80.15 135.43L80.15 138.32C80.15 138.39 80.13 138.45 80.08 138.5C80.03 138.54 79.97 138.57 79.9 138.57Z" fill="#FFFFFF" fill-opacity="1.000000" fill-rule="nonzero"/>
		<path id="Vector" d="M83.59 138.57L81.7 138.57C81.63 138.57 81.57 138.54 81.52 138.5C81.48 138.45 81.45 138.39 81.45 138.32L81.45 135.43C81.45 135.36 81.48 135.3 81.52 135.25C81.57 135.21 81.63 135.18 81.7 135.18L83.59 135.18C83.66 135.18 83.72 135.21 83.77 135.25C83.82 135.3 83.84 135.36 83.84 135.43L83.84 138.32C83.84 138.39 83.82 138.45 83.77 138.5C83.72 138.54 83.66 138.57 83.59 138.57Z" fill="#FFFFFF" fill-opacity="1.000000" fill-rule="nonzero"/>
		<path id="Vector" d="M79.9 143.86L78.01 143.86C77.94 143.86 77.88 143.83 77.83 143.78C77.79 143.74 77.76 143.67 77.76 143.61L77.76 140.72C77.76 140.65 77.79 140.59 77.83 140.54C77.88 140.49 77.94 140.47 78.01 140.47L79.9 140.47C79.97 140.47 80.03 140.49 80.08 140.54C80.13 140.59 80.15 140.65 80.15 140.72L80.15 143.61C80.15 143.67 80.13 143.74 80.08 143.78C80.03 143.83 79.97 143.86 79.9 143.86Z" fill="#FFFFFF" fill-opacity="1.000000" fill-rule="nonzero"/>
		<path id="Vector" d="M83.59 143.86L81.7 143.86C81.63 143.86 81.57 143.83 81.52 143.78C81.48 143.74 81.45 143.67 81.45 143.61L81.45 140.72C81.45 140.65 81.48 140.59 81.52 140.54C81.57 140.49 81.63 140.47 81.7 140.47L83.59 140.47C83.66 140.47 83.72 140.49 83.77 140.54C83.82 140.59 83.84 140.65 83.84 140.72L83.84 143.61C83.84 143.67 83.82 143.74 83.77 143.78C83.72 143.83 83.66 143.86 83.59 143.86Z" fill="#FFFFFF" fill-opacity="1.000000" fill-rule="nonzero"/>
		<path id="Vector" d="M22.55 81.54L20.67 81.54C20.53 81.54 20.39 81.48 20.29 81.39C20.19 81.29 20.14 81.15 20.14 81.01L20.14 76.66C20.14 76.52 20.19 76.38 20.29 76.29C20.39 76.19 20.53 76.13 20.67 76.13L22.55 76.13C22.69 76.13 22.82 76.19 22.92 76.29C23.02 76.38 23.08 76.52 23.08 76.66L23.08 81.01C23.08 81.15 23.02 81.29 22.92 81.39C22.82 81.48 22.69 81.54 22.55 81.54Z" fill="#3F3D56" fill-opacity="1.000000" fill-rule="nonzero"/>
		<path id="Vector" d="M29.96 122.12L20.31 122.12C20.05 122.12 19.79 122.01 19.61 121.83C19.42 121.64 19.31 121.38 19.31 121.12L19.31 82.19C19.31 81.92 19.42 81.67 19.61 81.48C19.79 81.29 20.05 81.19 20.31 81.19L29.96 81.19C30.22 81.19 30.48 81.29 30.66 81.48C30.85 81.67 30.96 81.92 30.96 82.19L30.96 121.12C30.96 121.38 30.85 121.64 30.66 121.83C30.48 122.01 30.22 122.12 29.96 122.12Z" fill="#3F3D56" fill-opacity="1.000000" fill-rule="nonzero"/>
		<path id="Vector" d="M24.19 122.12L14.55 122.12C14.28 122.12 14.03 122.01 13.84 121.83C13.66 121.64 13.55 121.38 13.55 121.12L13.55 82.19C13.55 81.92 13.66 81.67 13.84 81.48C14.03 81.29 14.28 81.19 14.55 81.19L24.19 81.19C24.46 81.19 24.71 81.29 24.9 81.48C25.09 81.67 25.19 81.92 25.19 82.19L25.19 121.12C25.19 121.38 25.09 121.64 24.9 121.83C24.71 122.01 24.46 122.12 24.19 122.12Z" fill="#F78065" fill-opacity="1.000000" fill-rule="nonzero"/>
		<path id="Vector" d="M20.78 81.54L18.9 81.54C18.76 81.54 18.63 81.48 18.53 81.39C18.43 81.29 18.37 81.15 18.37 81.01L18.37 76.66C18.37 76.52 18.43 76.38 18.53 76.29C18.63 76.19 18.76 76.13 18.9 76.13L20.78 76.13C20.92 76.13 21.06 76.19 21.16 76.29C21.26 76.38 21.31 76.52 21.31 76.66L21.31 81.01C21.31 81.15 21.26 81.29 21.16 81.39C21.06 81.48 20.92 81.54 20.78 81.54Z" fill="#F78065" fill-opacity="1.000000" fill-rule="nonzero"/>
		<path id="Vector" d="M18.31 90.01L16.08 90.01C16 90.01 15.93 89.98 15.87 89.92C15.82 89.87 15.78 89.79 15.78 89.71L15.78 86.3C15.78 86.23 15.82 86.15 15.87 86.1C15.93 86.04 16 86.01 16.08 86.01L18.31 86.01C18.39 86.01 18.47 86.04 18.52 86.1C18.58 86.15 18.61 86.23 18.61 86.3L18.61 89.71C18.61 89.79 18.58 89.87 18.52 89.92C18.47 89.98 18.39 90.01 18.31 90.01Z" fill="#FFFFFF" fill-opacity="1.000000" fill-rule="nonzero"/>
		<path id="Vector" d="M22.67 90.01L20.43 90.01C20.35 90.01 20.28 89.98 20.22 89.92C20.17 89.87 20.14 89.79 20.14 89.71L20.14 86.3C20.14 86.23 20.17 86.15 20.22 86.1C20.28 86.04 20.35 86.01 20.43 86.01L22.67 86.01C22.74 86.01 22.82 86.04 22.87 86.1C22.93 86.15 22.96 86.23 22.96 86.3L22.96 89.71C22.96 89.79 22.93 89.87 22.87 89.92C22.82 89.98 22.74 90.01 22.67 90.01Z" fill="#FFFFFF" fill-opacity="1.000000" fill-rule="nonzero"/>
		<path id="Vector" d="M18.31 96.24L16.08 96.24C16 96.24 15.93 96.21 15.87 96.16C15.82 96.1 15.78 96.03 15.78 95.95L15.78 92.54C15.78 92.46 15.82 92.38 15.87 92.33C15.93 92.27 16 92.24 16.08 92.24L18.31 92.24C18.39 92.24 18.47 92.27 18.52 92.33C18.58 92.38 18.61 92.46 18.61 92.54L18.61 95.95C18.61 96.03 18.58 96.1 18.52 96.16C18.47 96.21 18.39 96.24 18.31 96.24Z" fill="#FFFFFF" fill-opacity="1.000000" fill-rule="nonzero"/>
		<path id="Vector" d="M22.67 96.24L20.43 96.24C20.35 96.24 20.28 96.21 20.22 96.16C20.17 96.1 20.14 96.03 20.14 95.95L20.14 92.54C20.14 92.46 20.17 92.38 20.22 92.33C20.28 92.27 20.35 92.24 20.43 92.24L22.67 92.24C22.74 92.24 22.82 92.27 22.87 92.33C22.93 92.38 22.96 92.46 22.96 92.54L22.96 95.95C22.96 96.03 22.93 96.1 22.87 96.16C22.82 96.21 22.74 96.24 22.67 96.24Z" fill="#FFFFFF" fill-opacity="1.000000" fill-rule="nonzero"/>
		<path id="Vector" d="M18.31 102.48L16.08 102.48C16 102.48 15.93 102.45 15.87 102.39C15.82 102.34 15.78 102.26 15.78 102.18L15.78 98.77C15.78 98.69 15.82 98.62 15.87 98.56C15.93 98.51 16 98.48 16.08 98.48L18.31 98.48C18.39 98.48 18.47 98.51 18.52 98.56C18.58 98.62 18.61 98.69 18.61 98.77L18.61 102.18C18.61 102.26 18.58 102.34 18.52 102.39C18.47 102.45 18.39 102.48 18.31 102.48Z" fill="#FFFFFF" fill-opacity="1.000000" fill-rule="nonzero"/>
		<path id="Vector" d="M22.67 102.48L20.43 102.48C20.35 102.48 20.28 102.45 20.22 102.39C20.17 102.34 20.14 102.26 20.14 102.18L20.14 98.77C20.14 98.69 20.17 98.62 20.22 98.56C20.28 98.51 20.35 98.48 20.43 98.48L22.67 98.48C22.74 98.48 22.82 98.51 22.87 98.56C22.93 98.62 22.96 98.69 22.96 98.77L22.96 102.18C22.96 102.26 22.93 102.34 22.87 102.39C22.82 102.45 22.74 102.48 22.67 102.48Z" fill="#FFFFFF" fill-opacity="1.000000" fill-rule="nonzero"/>
		<path id="Vector" d="M18.31 108.71L16.08 108.71C16 108.71 15.93 108.68 15.87 108.62C15.82 108.57 15.78 108.49 15.78 108.42L15.78 105.01C15.78 104.93 15.82 104.85 15.87 104.8C15.93 104.74 16 104.71 16.08 104.71L18.31 104.71C18.39 104.71 18.47 104.74 18.52 104.8C18.58 104.85 18.61 104.93 18.61 105.01L18.61 108.42C18.61 108.49 18.58 108.57 18.52 108.62C18.47 108.68 18.39 108.71 18.31 108.71Z" fill="#FFFFFF" fill-opacity="1.000000" fill-rule="nonzero"/>
		<path id="Vector" d="M22.67 108.71L20.43 108.71C20.35 108.71 20.28 108.68 20.22 108.62C20.17 108.57 20.14 108.49 20.14 108.42L20.14 105.01C20.14 104.93 20.17 104.85 20.22 104.8C20.28 104.74 20.35 104.71 20.43 104.71L22.67 104.71C22.74 104.71 22.82 104.74 22.87 104.8C22.93 104.85 22.96 104.93 22.96 105.01L22.96 108.42C22.96 108.49 22.93 108.57 22.87 108.62C22.82 108.68 22.74 108.71 22.67 108.71Z" fill="#FFFFFF" fill-opacity="1.000000" fill-rule="nonzero"/>
		<path id="Vector" d="M18.31 114.94L16.08 114.94C16 114.94 15.93 114.91 15.87 114.86C15.82 114.8 15.78 114.73 15.78 114.65L15.78 111.24C15.78 111.16 15.82 111.09 15.87 111.03C15.93 110.98 16 110.94 16.08 110.94L18.31 110.94C18.39 110.94 18.47 110.98 18.52 111.03C18.58 111.09 18.61 111.16 18.61 111.24L18.61 114.65C18.61 114.73 18.58 114.8 18.52 114.86C18.47 114.91 18.39 114.94 18.31 114.94Z" fill="#FFFFFF" fill-opacity="1.000000" fill-rule="nonzero"/>
		<path id="Vector" d="M22.67 114.94L20.43 114.94C20.35 114.94 20.28 114.91 20.22 114.86C20.17 114.8 20.14 114.73 20.14 114.65L20.14 111.24C20.14 111.16 20.17 111.09 20.22 111.03C20.28 110.98 20.35 110.94 20.43 110.94L22.67 110.94C22.74 110.94 22.82 110.98 22.87 111.03C22.93 111.09 22.96 111.16 22.96 111.24L22.96 114.65C22.96 114.73 22.93 114.8 22.87 114.86C22.82 114.91 22.74 114.94 22.67 114.94Z" fill="#FFFFFF" fill-opacity="1.000000" fill-rule="nonzero"/>
		<path id="Vector" d="M172.23 131.3L170.63 131.3C170.51 131.3 170.4 131.25 170.31 131.16C170.23 131.08 170.18 130.97 170.18 130.85L170.18 128.75C170.18 128.63 170.23 128.52 170.31 128.44C170.4 128.35 170.51 128.3 170.63 128.3L172.23 128.3C172.34 128.3 172.46 128.35 172.54 128.44C172.63 128.52 172.67 128.63 172.67 128.75L172.67 130.85C172.67 130.97 172.63 131.08 172.54 131.16C172.46 131.25 172.34 131.3 172.23 131.3Z" fill="#3F3D56" fill-opacity="1.000000" fill-rule="nonzero"/>
		<path id="Vector" d="M185.69 148.35L177.51 148.35C177.29 148.35 177.07 148.26 176.91 148.1C176.75 147.94 176.66 147.72 176.66 147.5L176.66 131.64C176.66 131.42 176.75 131.2 176.91 131.05C177.07 130.89 177.29 130.8 177.51 130.8L185.69 130.8C185.91 130.8 186.13 130.89 186.29 131.05C186.45 131.2 186.54 131.42 186.54 131.64L186.54 147.5C186.54 147.72 186.45 147.94 186.29 148.1C186.13 148.26 185.91 148.35 185.69 148.35Z" fill="#3F3D56" fill-opacity="1.000000" fill-rule="nonzero"/>
		<path id="Vector" d="M180.8 148.35L166.64 148.35C166.42 148.35 166.2 148.26 166.04 148.1C165.88 147.94 165.79 147.72 165.79 147.5L165.79 131.64C165.79 131.42 165.88 131.2 166.04 131.05C166.2 130.89 166.42 130.8 166.64 130.8L180.8 130.8C181.03 130.8 181.24 130.89 181.4 131.05C181.56 131.2 181.65 131.42 181.65 131.64L181.65 147.5C181.65 147.72 181.56 147.94 181.4 148.1C181.24 148.26 181.03 148.35 180.8 148.35Z" fill="#F78065" fill-opacity="1.000000" fill-rule="nonzero"/>
		<path id="Vector" d="M170.73 131.3L169.13 131.3C169.02 131.3 168.9 131.25 168.82 131.16C168.73 131.08 168.69 130.97 168.69 130.85L168.69 128.75C168.69 128.63 168.73 128.52 168.82 128.44C168.9 128.35 169.02 128.3 169.13 128.3L170.73 128.3C170.85 128.3 170.96 128.35 171.05 128.44C171.13 128.52 171.18 128.63 171.18 128.75L171.18 130.85C171.18 130.97 171.13 131.08 171.05 131.16C170.96 131.25 170.85 131.3 170.73 131.3Z" fill="#F78065" fill-opacity="1.000000" fill-rule="nonzero"/>
		<path id="Vector" d="M172.82 138.62L170.93 138.62C170.86 138.62 170.8 138.6 170.75 138.55C170.71 138.5 170.68 138.44 170.68 138.38L170.68 135.48C170.68 135.42 170.71 135.35 170.75 135.31C170.8 135.26 170.86 135.23 170.93 135.23L172.82 135.23C172.89 135.23 172.95 135.26 173 135.31C173.05 135.35 173.07 135.42 173.07 135.48L173.07 138.38C173.07 138.44 173.05 138.5 173 138.55C172.95 138.6 172.89 138.62 172.82 138.62Z" fill="#FFFFFF" fill-opacity="1.000000" fill-rule="nonzero"/>
		<path id="Vector" d="M176.51 138.62L174.62 138.62C174.55 138.62 174.49 138.6 174.44 138.55C174.4 138.5 174.37 138.44 174.37 138.38L174.37 135.48C174.37 135.42 174.4 135.35 174.44 135.31C174.49 135.26 174.55 135.23 174.62 135.23L176.51 135.23C176.58 135.23 176.64 135.26 176.69 135.31C176.74 135.35 176.76 135.42 176.76 135.48L176.76 138.38C176.76 138.44 176.74 138.5 176.69 138.55C176.64 138.6 176.58 138.62 176.51 138.62Z" fill="#FFFFFF" fill-opacity="1.000000" fill-rule="nonzero"/>
		<path id="Vector" d="M172.82 143.91L170.93 143.91C170.86 143.91 170.8 143.88 170.75 143.84C170.71 143.79 170.68 143.73 170.68 143.66L170.68 140.77C170.68 140.7 170.71 140.64 170.75 140.59C170.8 140.55 170.86 140.52 170.93 140.52L172.82 140.52C172.89 140.52 172.95 140.55 173 140.59C173.05 140.64 173.07 140.7 173.07 140.77L173.07 143.66C173.07 143.73 173.05 143.79 173 143.84C172.95 143.88 172.89 143.91 172.82 143.91Z" fill="#FFFFFF" fill-opacity="1.000000" fill-rule="nonzero"/>
		<path id="Vector" d="M176.51 143.91L174.62 143.91C174.55 143.91 174.49 143.88 174.44 143.84C174.4 143.79 174.37 143.73 174.37 143.66L174.37 140.77C174.37 140.7 174.4 140.64 174.44 140.59C174.49 140.55 174.55 140.52 174.62 140.52L176.51 140.52C176.58 140.52 176.64 140.55 176.69 140.59C176.74 140.64 176.76 140.7 176.76 140.77L176.76 143.66C176.76 143.73 176.74 143.79 176.69 143.84C176.64 143.88 176.58 143.91 176.51 143.91Z" fill="#FFFFFF" fill-opacity="1.000000" fill-rule="nonzero"/>
	</g>
</svg>
