<svg width="32.000000" height="32.000000" viewBox="0 0 32 32" fill="none" xmlns="http://www.w3.org/2000/svg" xmlns:xlink="http://www.w3.org/1999/xlink">
	<desc>
			Created with Pixso.
	</desc>
	<defs>
		<clipPath id="clip5_461">
			<rect id="WCR_Compare-HSV" width="32.000000" height="32.000000" fill="white" fill-opacity="0"/>
		</clipPath>
	</defs>
	<rect id="WCR_Compare-HSV" width="32.000000" height="32.000000" fill="#FFFFFF" fill-opacity="0"/>
	<g clip-path="url(#clip5_461)">
		<path id="XMLID 196" d="M2.88 32L11.38 23.49C13.53 25.06 16.17 26 19.04 26C26.22 26 32.04 20.17 32.04 13C32.04 5.82 26.22 0 19.04 0C11.86 0 6.04 5.82 6.04 13C6.04 15.84 6.96 18.46 8.51 20.6L0 29.11L2.88 32ZM19.04 22.47C13.8 22.47 9.56 18.23 9.56 13C9.56 7.76 13.8 3.52 19.04 3.52C24.27 3.52 28.51 7.76 28.51 13C28.51 18.23 24.27 22.47 19.04 22.47Z" fill="#22262A" fill-opacity="1.000000" fill-rule="nonzero"/>
		<path id="XMLID 195" d="M24.02 8L14.02 8L12.02 12L19.02 20L26.02 12L24.02 8Z" fill="#22262A" fill-opacity="1.000000" fill-rule="nonzero"/>
	</g>
</svg>
