<svg width="32.000000" height="32.000000" viewBox="0 0 32 32" fill="none" xmlns="http://www.w3.org/2000/svg" xmlns:xlink="http://www.w3.org/1999/xlink">
	<desc>
			Created with Pixso.
	</desc>
	<defs>
		<clipPath id="clip5_436">
			<rect id="asset/library_books" width="32.000000" height="32.000000" fill="white" fill-opacity="0"/>
		</clipPath>
	</defs>
	<rect id="asset/library_books" width="32.000000" height="32.000000" fill="#FFFFFF" fill-opacity="0"/>
	<g clip-path="url(#clip5_436)">
		<path id="Color" d="M4 8C3.26 8 2.66 8.6 2.66 9.33L2.66 26.66C2.66 28.13 3.86 29.33 5.33 29.33L22.66 29.33C23.4 29.33 24 28.73 24 28C24 27.26 23.4 26.66 22.66 26.66L6.66 26.66C5.93 26.66 5.33 26.06 5.33 25.33L5.33 9.33C5.33 8.6 4.73 8 4 8ZM26.66 2.66L10.66 2.66C9.2 2.66 8 3.86 8 5.33L8 21.33C8 22.8 9.2 24 10.66 24L26.66 24C28.13 24 29.33 22.8 29.33 21.33L29.33 5.33C29.33 3.86 28.13 2.66 26.66 2.66ZM24 14.66L13.33 14.66C12.6 14.66 12 14.06 12 13.33C12 12.6 12.6 12 13.33 12L24 12C24.73 12 25.33 12.6 25.33 13.33C25.33 14.06 24.73 14.66 24 14.66ZM18.66 20L13.33 20C12.6 20 12 19.4 12 18.66C12 17.93 12.6 17.33 13.33 17.33L18.66 17.33C19.4 17.33 20 17.93 20 18.66C20 19.4 19.4 20 18.66 20ZM24 9.33L13.33 9.33C12.6 9.33 12 8.73 12 8C12 7.26 12.6 6.66 13.33 6.66L24 6.66C24.73 6.66 25.33 7.26 25.33 8C25.33 8.73 24.73 9.33 24 9.33Z" fill="#444B53" fill-opacity="1.000000" fill-rule="nonzero"/>
	</g>
</svg>
